<svg width="49" height="48" viewBox="0 0 49 48" fill="none" xmlns="http://www.w3.org/2000/svg">
<path d="M18.732 27.498L16.5 9.89599L14.268 27.496H6.5C5.396 27.496 4.5 26.622 4.5 25.544C4.50633 25.0196 4.72048 24.519 5.09544 24.1523C5.47041 23.7856 5.97555 23.5827 6.5 23.588H10.732L12.532 9.41599C12.8 7.27199 14.8 5.75199 16.99 6.01599C18.81 6.23599 20.242 7.63599 20.468 9.41599L22.266 23.588H26.214L28.5 38.08L30.784 23.59H42.5C43.604 23.59 44.5 24.466 44.5 25.546C44.5 26.626 43.604 27.5 42.5 27.5H34.216L32.454 38.674C32.3162 39.5034 31.9178 40.2673 31.3165 40.8549C30.7152 41.4425 29.9423 41.8233 29.11 41.942C26.926 42.272 24.884 40.808 24.546 38.674L22.786 27.5H18.73L18.732 27.498Z" fill="#C1C7CD"/>
</svg>
