<svg width="166" height="32" viewBox="0 0 166 32" fill="none" xmlns="http://www.w3.org/2000/svg">
<path d="M37.503 32H50.4208L18.4209 0H5.50305L37.503 32Z" fill="#697077"/>
<path d="M25.0574 1.63716e-06L55.9048 30.8474V0H47.5569V9.73909L37.8177 0L25.0574 1.63716e-06Z" fill="#697077"/>
<path d="M0.0952148 1.07141V32H8.44303V22.2608L18.1821 32H31.0239L0.0952148 1.07141Z" fill="#697077"/>
<path d="M72.3657 9.85547L67.7251 24H63.9868L70.3267 6.9375H72.7056L72.3657 9.85547ZM76.2212 24L71.5688 9.85547L71.1938 6.9375H73.5962L79.9712 24H76.2212ZM76.0103 17.6484V20.4023H66.9985V17.6484H76.0103ZM84.7173 14.0859V24H81.3423V11.3203H84.5181L84.7173 14.0859ZM88.5376 11.2383L88.479 14.3672C88.3149 14.3438 88.1157 14.3242 87.8813 14.3086C87.6548 14.2852 87.4478 14.2734 87.2603 14.2734C86.7837 14.2734 86.3696 14.3359 86.0181 14.4609C85.6743 14.5781 85.3853 14.7539 85.1509 14.9883C84.9243 15.2227 84.7524 15.5078 84.6353 15.8438C84.5259 16.1797 84.4634 16.5625 84.4478 16.9922L83.7681 16.7812C83.7681 15.9609 83.8501 15.207 84.0142 14.5195C84.1782 13.8242 84.4165 13.2188 84.729 12.7031C85.0493 12.1875 85.4399 11.7891 85.9009 11.5078C86.3618 11.2266 86.8892 11.0859 87.4829 11.0859C87.6704 11.0859 87.8618 11.1016 88.0571 11.1328C88.2524 11.1562 88.4126 11.1914 88.5376 11.2383ZM96.9282 11.3203V13.7109H89.5454V11.3203H96.9282ZM91.3735 8.19141H94.7485V20.1797C94.7485 20.5469 94.7954 20.8281 94.8892 21.0234C94.9907 21.2188 95.1392 21.3555 95.3345 21.4336C95.5298 21.5039 95.7759 21.5391 96.0728 21.5391C96.2837 21.5391 96.4712 21.5312 96.6353 21.5156C96.8071 21.4922 96.9517 21.4688 97.0688 21.4453L97.0806 23.9297C96.7915 24.0234 96.479 24.0977 96.1431 24.1523C95.8071 24.207 95.436 24.2344 95.0298 24.2344C94.2876 24.2344 93.6392 24.1133 93.0845 23.8711C92.5376 23.6211 92.1157 23.2227 91.8188 22.6758C91.522 22.1289 91.3735 21.4102 91.3735 20.5195V8.19141ZM105.213 20.4375L109.233 6.9375H113.147L107.206 24H104.627L105.213 20.4375ZM101.51 6.9375L105.518 20.4375L106.127 24H103.526L97.6196 6.9375H101.51ZM119.85 24.2344C118.866 24.2344 117.983 24.0781 117.202 23.7656C116.42 23.4453 115.756 23.0039 115.209 22.4414C114.67 21.8789 114.256 21.2266 113.967 20.4844C113.678 19.7344 113.534 18.9375 113.534 18.0938V17.625C113.534 16.6641 113.67 15.7852 113.944 14.9883C114.217 14.1914 114.608 13.5 115.116 12.9141C115.631 12.3281 116.256 11.8789 116.991 11.5664C117.725 11.2461 118.553 11.0859 119.475 11.0859C120.374 11.0859 121.17 11.2344 121.866 11.5312C122.561 11.8281 123.143 12.25 123.612 12.7969C124.088 13.3438 124.448 14 124.69 14.7656C124.932 15.5234 125.053 16.3672 125.053 17.2969V18.7031H114.975V16.4531H121.737V16.1953C121.737 15.7266 121.651 15.3086 121.479 14.9414C121.315 14.5664 121.065 14.2695 120.729 14.0508C120.393 13.832 119.963 13.7227 119.44 13.7227C118.995 13.7227 118.612 13.8203 118.292 14.0156C117.971 14.2109 117.709 14.4844 117.506 14.8359C117.311 15.1875 117.163 15.6016 117.061 16.0781C116.967 16.5469 116.92 17.0625 116.92 17.625V18.0938C116.92 18.6016 116.991 19.0703 117.131 19.5C117.28 19.9297 117.487 20.3008 117.752 20.6133C118.026 20.9258 118.354 21.168 118.737 21.3398C119.127 21.5117 119.569 21.5977 120.061 21.5977C120.67 21.5977 121.237 21.4805 121.76 21.2461C122.292 21.0039 122.749 20.6406 123.131 20.1562L124.772 21.9375C124.506 22.3203 124.143 22.6875 123.682 23.0391C123.229 23.3906 122.682 23.6797 122.042 23.9062C121.401 24.125 120.67 24.2344 119.85 24.2344ZM130.28 14.0273V24H126.905V11.3203H130.069L130.28 14.0273ZM129.788 17.2148H128.874C128.874 16.2773 128.995 15.4336 129.237 14.6836C129.479 13.9258 129.819 13.2812 130.256 12.75C130.694 12.2109 131.213 11.8008 131.815 11.5195C132.424 11.2305 133.104 11.0859 133.854 11.0859C134.448 11.0859 134.991 11.1719 135.483 11.3438C135.975 11.5156 136.397 11.7891 136.749 12.1641C137.108 12.5391 137.381 13.0352 137.569 13.6523C137.764 14.2695 137.862 15.0234 137.862 15.9141V24H134.463V15.9023C134.463 15.3398 134.385 14.9023 134.229 14.5898C134.073 14.2773 133.842 14.0586 133.538 13.9336C133.241 13.8008 132.874 13.7344 132.436 13.7344C131.983 13.7344 131.588 13.8242 131.252 14.0039C130.924 14.1836 130.651 14.4336 130.432 14.7539C130.221 15.0664 130.061 15.4336 129.952 15.8555C129.842 16.2773 129.788 16.7305 129.788 17.2148ZM147.928 20.9648V11.3203H151.303V24H148.127L147.928 20.9648ZM148.303 18.3633L149.299 18.3398C149.299 19.1836 149.202 19.9688 149.006 20.6953C148.811 21.4141 148.518 22.0391 148.127 22.5703C147.737 23.0938 147.245 23.5039 146.651 23.8008C146.057 24.0898 145.358 24.2344 144.553 24.2344C143.936 24.2344 143.366 24.1484 142.842 23.9766C142.327 23.7969 141.881 23.5195 141.506 23.1445C141.139 22.7617 140.85 22.2734 140.639 21.6797C140.436 21.0781 140.334 20.3555 140.334 19.5117V11.3203H143.709V19.5352C143.709 19.9102 143.752 20.2266 143.838 20.4844C143.932 20.7422 144.061 20.9531 144.225 21.1172C144.389 21.2812 144.581 21.3984 144.799 21.4688C145.026 21.5391 145.276 21.5742 145.549 21.5742C146.245 21.5742 146.792 21.4336 147.19 21.1523C147.596 20.8711 147.881 20.4883 148.045 20.0039C148.217 19.5117 148.303 18.9648 148.303 18.3633ZM159.717 24.2344C158.733 24.2344 157.85 24.0781 157.069 23.7656C156.288 23.4453 155.624 23.0039 155.077 22.4414C154.538 21.8789 154.124 21.2266 153.834 20.4844C153.545 19.7344 153.401 18.9375 153.401 18.0938V17.625C153.401 16.6641 153.538 15.7852 153.811 14.9883C154.084 14.1914 154.475 13.5 154.983 12.9141C155.499 12.3281 156.124 11.8789 156.858 11.5664C157.592 11.2461 158.42 11.0859 159.342 11.0859C160.241 11.0859 161.038 11.2344 161.733 11.5312C162.428 11.8281 163.01 12.25 163.479 12.7969C163.956 13.3438 164.315 14 164.557 14.7656C164.799 15.5234 164.92 16.3672 164.92 17.2969V18.7031H154.842V16.4531H161.604V16.1953C161.604 15.7266 161.518 15.3086 161.346 14.9414C161.182 14.5664 160.932 14.2695 160.596 14.0508C160.26 13.832 159.831 13.7227 159.307 13.7227C158.862 13.7227 158.479 13.8203 158.159 14.0156C157.838 14.2109 157.577 14.4844 157.374 14.8359C157.178 15.1875 157.03 15.6016 156.928 16.0781C156.834 16.5469 156.788 17.0625 156.788 17.625V18.0938C156.788 18.6016 156.858 19.0703 156.999 19.5C157.147 19.9297 157.354 20.3008 157.62 20.6133C157.893 20.9258 158.221 21.168 158.604 21.3398C158.995 21.5117 159.436 21.5977 159.928 21.5977C160.538 21.5977 161.104 21.4805 161.627 21.2461C162.159 21.0039 162.616 20.6406 162.999 20.1562L164.639 21.9375C164.374 22.3203 164.01 22.6875 163.549 23.0391C163.096 23.3906 162.549 23.6797 161.909 23.9062C161.268 24.125 160.538 24.2344 159.717 24.2344Z" fill="#697077"/>
</svg>
