<svg width="41" height="36" viewBox="0 0 41 36" fill="none" xmlns="http://www.w3.org/2000/svg">
<path d="M36.5 14V10C36.5 9.46957 36.2893 8.96086 35.9142 8.58579C35.5391 8.21071 35.0304 8 34.5 8H32.5V10C32.5 10.5304 32.2893 11.0391 31.9142 11.4142C31.5391 11.7893 31.0304 12 30.5 12C29.9696 12 29.4609 11.7893 29.0858 11.4142C28.7107 11.0391 28.5 10.5304 28.5 10V8H12.5V10C12.5 10.5304 12.2893 11.0391 11.9142 11.4142C11.5391 11.7893 11.0304 12 10.5 12C9.96957 12 9.46086 11.7893 9.08579 11.4142C8.71071 11.0391 8.5 10.5304 8.5 10V8H6.5C5.96957 8 5.46086 8.21071 5.08579 8.58579C4.71071 8.96086 4.5 9.46957 4.5 10V14H36.5ZM36.5 18H4.5V30C4.5 30.5304 4.71071 31.0391 5.08579 31.4142C5.46086 31.7893 5.96957 32 6.5 32H34.5C35.0304 32 35.5391 31.7893 35.9142 31.4142C36.2893 31.0391 36.5 30.5304 36.5 30V18ZM32.5 4H34.5C36.0913 4 37.6174 4.63214 38.7426 5.75736C39.8679 6.88258 40.5 8.4087 40.5 10V30C40.5 31.5913 39.8679 33.1174 38.7426 34.2426C37.6174 35.3679 36.0913 36 34.5 36H6.5C4.9087 36 3.38258 35.3679 2.25736 34.2426C1.13214 33.1174 0.5 31.5913 0.5 30L0.5 10C0.5 8.4087 1.13214 6.88258 2.25736 5.75736C3.38258 4.63214 4.9087 4 6.5 4H8.5V2C8.5 1.46957 8.71071 0.960859 9.08579 0.585786C9.46086 0.210714 9.96957 0 10.5 0C11.0304 0 11.5391 0.210714 11.9142 0.585786C12.2893 0.960859 12.5 1.46957 12.5 2V4H28.5V2C28.5 1.46957 28.7107 0.960859 29.0858 0.585786C29.4609 0.210714 29.9696 0 30.5 0C31.0304 0 31.5391 0.210714 31.9142 0.585786C32.2893 0.960859 32.5 1.46957 32.5 2V4Z" fill="#C1C7CD"/>
</svg>
