<svg width="97" height="96" viewBox="0 0 97 96" fill="none" xmlns="http://www.w3.org/2000/svg">
<path d="M80.5 40V32C80.5 30.9391 80.0786 29.9217 79.3284 29.1716C78.5783 28.4214 77.5609 28 76.5 28H72.5V32C72.5 33.0609 72.0786 34.0783 71.3284 34.8284C70.5783 35.5786 69.5609 36 68.5 36C67.4391 36 66.4217 35.5786 65.6716 34.8284C64.9214 34.0783 64.5 33.0609 64.5 32V28H32.5V32C32.5 33.0609 32.0786 34.0783 31.3284 34.8284C30.5783 35.5786 29.5609 36 28.5 36C27.4391 36 26.4217 35.5786 25.6716 34.8284C24.9214 34.0783 24.5 33.0609 24.5 32V28H20.5C19.4391 28 18.4217 28.4214 17.6716 29.1716C16.9214 29.9217 16.5 30.9391 16.5 32V40H80.5ZM80.5 48H16.5V72C16.5 73.0609 16.9214 74.0783 17.6716 74.8284C18.4217 75.5786 19.4391 76 20.5 76H76.5C77.5609 76 78.5783 75.5786 79.3284 74.8284C80.0786 74.0783 80.5 73.0609 80.5 72V48ZM72.5 20H76.5C79.6826 20 82.7348 21.2643 84.9853 23.5147C87.2357 25.7652 88.5 28.8174 88.5 32V72C88.5 75.1826 87.2357 78.2348 84.9853 80.4853C82.7348 82.7357 79.6826 84 76.5 84H20.5C17.3174 84 14.2652 82.7357 12.0147 80.4853C9.76428 78.2348 8.5 75.1826 8.5 72V32C8.5 28.8174 9.76428 25.7652 12.0147 23.5147C14.2652 21.2643 17.3174 20 20.5 20H24.5V16C24.5 14.9391 24.9214 13.9217 25.6716 13.1716C26.4217 12.4214 27.4391 12 28.5 12C29.5609 12 30.5783 12.4214 31.3284 13.1716C32.0786 13.9217 32.5 14.9391 32.5 16V20H64.5V16C64.5 14.9391 64.9214 13.9217 65.6716 13.1716C66.4217 12.4214 67.4391 12 68.5 12C69.5609 12 70.5783 12.4214 71.3284 13.1716C72.0786 13.9217 72.5 14.9391 72.5 16V20Z" fill="#C1C7CD"/>
</svg>
