<svg width="49" height="48" viewBox="0 0 49 48" fill="none" xmlns="http://www.w3.org/2000/svg">
<path d="M40.5 20V16C40.5 15.4696 40.2893 14.9609 39.9142 14.5858C39.5391 14.2107 39.0304 14 38.5 14H36.5V16C36.5 16.5304 36.2893 17.0391 35.9142 17.4142C35.5391 17.7893 35.0304 18 34.5 18C33.9696 18 33.4609 17.7893 33.0858 17.4142C32.7107 17.0391 32.5 16.5304 32.5 16V14H16.5V16C16.5 16.5304 16.2893 17.0391 15.9142 17.4142C15.5391 17.7893 15.0304 18 14.5 18C13.9696 18 13.4609 17.7893 13.0858 17.4142C12.7107 17.0391 12.5 16.5304 12.5 16V14H10.5C9.96957 14 9.46086 14.2107 9.08579 14.5858C8.71071 14.9609 8.5 15.4696 8.5 16V20H40.5ZM40.5 24H8.5V36C8.5 36.5304 8.71071 37.0391 9.08579 37.4142C9.46086 37.7893 9.96957 38 10.5 38H38.5C39.0304 38 39.5391 37.7893 39.9142 37.4142C40.2893 37.0391 40.5 36.5304 40.5 36V24ZM36.5 10H38.5C40.0913 10 41.6174 10.6321 42.7426 11.7574C43.8679 12.8826 44.5 14.4087 44.5 16V36C44.5 37.5913 43.8679 39.1174 42.7426 40.2426C41.6174 41.3679 40.0913 42 38.5 42H10.5C8.9087 42 7.38258 41.3679 6.25736 40.2426C5.13214 39.1174 4.5 37.5913 4.5 36V16C4.5 14.4087 5.13214 12.8826 6.25736 11.7574C7.38258 10.6321 8.9087 10 10.5 10H12.5V8C12.5 7.46957 12.7107 6.96086 13.0858 6.58579C13.4609 6.21071 13.9696 6 14.5 6C15.0304 6 15.5391 6.21071 15.9142 6.58579C16.2893 6.96086 16.5 7.46957 16.5 8V10H32.5V8C32.5 7.46957 32.7107 6.96086 33.0858 6.58579C33.4609 6.21071 33.9696 6 34.5 6C35.0304 6 35.5391 6.21071 35.9142 6.58579C36.2893 6.96086 36.5 7.46957 36.5 8V10Z" fill="#C1C7CD"/>
</svg>
