<svg width="49" height="48" viewBox="0 0 49 48" fill="none" xmlns="http://www.w3.org/2000/svg">
<path d="M32.5 38H16.5V41C16.5 41.7957 16.1839 42.5587 15.6213 43.1213C15.0587 43.6839 14.2956 44 13.5 44H11.5C10.7044 44 9.94129 43.6839 9.37868 43.1213C8.81607 42.5587 8.5 41.7957 8.5 41V37.66C7.32985 37.246 6.31684 36.4794 5.60048 35.4657C4.88412 34.4521 4.49964 33.2412 4.5 32V26C4.5 24.76 4.876 23.608 5.52 22.652L7.692 9.052C7.91755 7.64237 8.63832 6.35935 9.72484 5.43339C10.8114 4.50742 12.1924 3.9992 13.62 4H35.38C36.8065 4.00118 38.1859 4.51055 39.2708 5.43674C40.3557 6.36294 41.0751 7.64536 41.3 9.054L43.466 22.634C44.118 23.594 44.498 24.754 44.498 26V32C44.4984 33.2412 44.1139 34.4521 43.3975 35.4657C42.6812 36.4794 41.6682 37.246 40.498 37.66V41C40.498 41.7957 40.1819 42.5587 39.6193 43.1213C39.0567 43.6839 38.2937 44 37.498 44H35.498C34.7024 44 33.9393 43.6839 33.3767 43.1213C32.8141 42.5587 32.498 41.7957 32.498 41V38H32.5ZM10.5 34H38.5C39.0304 34 39.5391 33.7893 39.9142 33.4142C40.2893 33.0391 40.5 32.5304 40.5 32V26C40.5 25.4696 40.2893 24.9609 39.9142 24.5858C39.5391 24.2107 39.0304 24 38.5 24H10.5C9.96957 24 9.46086 24.2107 9.08579 24.5858C8.71071 24.9609 8.5 25.4696 8.5 26V32C8.5 32.5304 8.71071 33.0391 9.08579 33.4142C9.46086 33.7893 9.96957 34 10.5 34ZM39 20.02L37.352 9.684C37.2769 9.2148 37.0373 8.78766 36.6759 8.47909C36.3146 8.17052 35.8552 8.00068 35.38 8H13.618C13.1421 7.99973 12.6818 8.16914 12.3196 8.4778C11.9574 8.78645 11.7172 9.21412 11.642 9.684L9.992 20.022C10.161 20.0076 10.3304 20.0002 10.5 20H38.5C38.668 20 38.836 20.006 39 20.02ZM35.5 28C35.2348 28 34.9804 28.1054 34.7929 28.2929C34.6054 28.4804 34.5 28.7348 34.5 29C34.5 29.2652 34.6054 29.5196 34.7929 29.7071C34.9804 29.8946 35.2348 30 35.5 30C35.7652 30 36.0196 29.8946 36.2071 29.7071C36.3946 29.5196 36.5 29.2652 36.5 29C36.5 28.7348 36.3946 28.4804 36.2071 28.2929C36.0196 28.1054 35.7652 28 35.5 28ZM35.5 32C35.106 32 34.7159 31.9224 34.3519 31.7716C33.988 31.6209 33.6573 31.3999 33.3787 31.1213C33.1001 30.8427 32.8791 30.512 32.7284 30.1481C32.5776 29.7841 32.5 29.394 32.5 29C32.5 28.606 32.5776 28.2159 32.7284 27.8519C32.8791 27.488 33.1001 27.1573 33.3787 26.8787C33.6573 26.6001 33.988 26.3791 34.3519 26.2284C34.7159 26.0776 35.106 26 35.5 26C36.2956 26 37.0587 26.3161 37.6213 26.8787C38.1839 27.4413 38.5 28.2044 38.5 29C38.5 29.7956 38.1839 30.5587 37.6213 31.1213C37.0587 31.6839 36.2956 32 35.5 32ZM13.5 28C13.2348 28 12.9804 28.1054 12.7929 28.2929C12.6054 28.4804 12.5 28.7348 12.5 29C12.5 29.2652 12.6054 29.5196 12.7929 29.7071C12.9804 29.8946 13.2348 30 13.5 30C13.7652 30 14.0196 29.8946 14.2071 29.7071C14.3946 29.5196 14.5 29.2652 14.5 29C14.5 28.7348 14.3946 28.4804 14.2071 28.2929C14.0196 28.1054 13.7652 28 13.5 28ZM13.5 32C13.106 32 12.7159 31.9224 12.352 31.7716C11.988 31.6209 11.6573 31.3999 11.3787 31.1213C11.1001 30.8427 10.8791 30.512 10.7284 30.1481C10.5776 29.7841 10.5 29.394 10.5 29C10.5 28.606 10.5776 28.2159 10.7284 27.8519C10.8791 27.488 11.1001 27.1573 11.3787 26.8787C11.6573 26.6001 11.988 26.3791 12.352 26.2284C12.7159 26.0776 13.106 26 13.5 26C14.2956 26 15.0587 26.3161 15.6213 26.8787C16.1839 27.4413 16.5 28.2044 16.5 29C16.5 29.7956 16.1839 30.5587 15.6213 31.1213C15.0587 31.6839 14.2956 32 13.5 32ZM14.908 10.188C15.4384 10.188 15.9471 10.3987 16.3222 10.7738C16.6973 11.1489 16.908 11.6576 16.908 12.188V16.188C16.908 16.7184 16.6973 17.2271 16.3222 17.6022C15.9471 17.9773 15.4384 18.188 14.908 18.188C14.3776 18.188 13.8689 17.9773 13.4938 17.6022C13.1187 17.2271 12.908 16.7184 12.908 16.188V12.188C12.908 11.6576 13.1187 11.1489 13.4938 10.7738C13.8689 10.3987 14.3776 10.188 14.908 10.188Z" fill="#C1C7CD"/>
</svg>
