<svg width="24" height="25" viewBox="0 0 24 25" fill="none" xmlns="http://www.w3.org/2000/svg">
<path d="M10.486 17.2304C10.3547 17.2306 10.2247 17.205 10.1034 17.1549C9.98204 17.1048 9.87181 17.0312 9.77899 16.9384L5.53699 12.6954C5.44141 12.6032 5.36516 12.4929 5.31266 12.3709C5.26017 12.249 5.23249 12.1178 5.23125 11.985C5.23 11.8522 5.25521 11.7205 5.3054 11.5976C5.3556 11.4747 5.42977 11.363 5.52359 11.269C5.61742 11.175 5.72902 11.1007 5.85188 11.0503C5.97474 11 6.1064 10.9746 6.23918 10.9756C6.37196 10.9767 6.50319 11.0042 6.62523 11.0565C6.74727 11.1088 6.85767 11.1849 6.94999 11.2804L10.485 14.8154L16.85 8.45238C17.0375 8.26474 17.2919 8.15927 17.5571 8.15918C17.8224 8.15909 18.0768 8.26437 18.2645 8.45188C18.4521 8.63939 18.5576 8.89376 18.5577 9.15903C18.5578 9.4243 18.4525 9.67874 18.265 9.86638L11.193 16.9384C11.1002 17.0312 10.9899 17.1048 10.8686 17.1549C10.7473 17.205 10.6173 17.2306 10.486 17.2304Z" fill="#25A249"/>
</svg>
