<svg width="25" height="24" viewBox="0 0 25 24" fill="none" xmlns="http://www.w3.org/2000/svg">
<path d="M16.767 2H8.697C7.12015 2.00185 5.60844 2.62914 4.49353 3.74424C3.37862 4.85933 2.75159 6.37115 2.75 7.948L2.75 16.018C2.75185 17.5948 3.37914 19.1066 4.49424 20.2215C5.60933 21.3364 7.12115 21.9634 8.698 21.965H16.768C18.3448 21.9631 19.8566 21.3359 20.9715 20.2208C22.0864 19.1057 22.7134 17.5938 22.715 16.017V7.947C22.7131 6.37015 22.0859 4.85844 20.9708 3.74353C19.8557 2.62862 18.3438 2.00159 16.767 2V2ZM20.707 16.017C20.707 16.5344 20.6051 17.0468 20.4071 17.5248C20.2091 18.0028 19.9189 18.4371 19.553 18.803C19.1871 19.1689 18.7528 19.4591 18.2748 19.6571C17.7968 19.8551 17.2844 19.957 16.767 19.957H8.697C7.65222 19.9567 6.65032 19.5415 5.91165 18.8026C5.17297 18.0638 4.758 17.0618 4.758 16.017V7.947C4.75827 6.90222 5.17349 5.90032 5.91235 5.16165C6.65122 4.42297 7.65322 4.008 8.698 4.008H16.768C17.8128 4.00827 18.8147 4.42349 19.5534 5.16235C20.292 5.90122 20.707 6.90322 20.707 7.948V16.018V16.017Z" fill="#697077"/>
<path d="M12.7319 6.81885C11.3634 6.82096 10.0515 7.36563 9.08385 8.33345C8.11621 9.30127 7.5718 10.6133 7.56995 11.9818C7.57153 13.3508 8.11597 14.6632 9.08385 15.6312C10.0517 16.5993 11.364 17.144 12.7329 17.1458C14.102 17.1443 15.4146 16.5997 16.3827 15.6316C17.3508 14.6635 17.8954 13.3509 17.8969 11.9818C17.8948 10.6129 17.3499 9.30073 16.3816 8.33304C15.4134 7.36535 14.1009 6.82117 12.7319 6.81985V6.81885ZM12.7319 15.1378C11.8952 15.1378 11.0927 14.8054 10.501 14.2138C9.90935 13.6221 9.57695 12.8196 9.57695 11.9828C9.57695 11.1461 9.90935 10.3436 10.501 9.75193C11.0927 9.16025 11.8952 8.82785 12.7319 8.82785C13.5687 8.82785 14.3712 9.16025 14.9629 9.75193C15.5545 10.3436 15.8869 11.1461 15.8869 11.9828C15.8869 12.8196 15.5545 13.6221 14.9629 14.2138C14.3712 14.8054 13.5687 15.1378 12.7319 15.1378Z" fill="#697077"/>
<path d="M17.9059 8.09509C18.5891 8.09509 19.1429 7.54127 19.1429 6.85809C19.1429 6.17492 18.5891 5.62109 17.9059 5.62109C17.2228 5.62109 16.6689 6.17492 16.6689 6.85809C16.6689 7.54127 17.2228 8.09509 17.9059 8.09509Z" fill="#697077"/>
</svg>
