<svg width="132" height="30" viewBox="0 0 132 30" fill="none" xmlns="http://www.w3.org/2000/svg">
<path d="M14.011 4.65002V0.400024H0.610962V29.6H14.011V25.35C11.266 25.35 8.63336 24.2595 6.6924 22.3185C4.7514 20.3775 3.66096 17.745 3.66096 15C3.66096 12.255 4.7514 9.62243 6.6924 7.68147C8.63336 5.74047 11.266 4.65002 14.011 4.65002Z" fill="#697077"/>
<path d="M14.011 4.65002V25.35C16.756 25.35 19.3886 24.2595 21.3296 22.3185C23.2706 20.3775 24.361 17.745 24.361 15C24.361 12.255 23.2706 9.62243 21.3296 7.68147C19.3886 5.74047 16.756 4.65002 14.011 4.65002Z" fill="#697077"/>
<path d="M37.0485 4.98828V23H33.6735V4.98828H37.0485ZM45.0406 10.3203L39.5328 16.6016L36.5797 19.5898L35.3492 17.1523L37.693 14.1758L40.986 10.3203H45.0406ZM41.5367 23L37.7867 17.1406L40.1188 15.1016L45.4274 23H41.5367ZM45.9547 16.7891V16.543C45.9547 15.6133 46.0875 14.7578 46.3531 13.9766C46.6188 13.1875 47.0055 12.5039 47.5133 11.9258C48.0211 11.3477 48.6461 10.8984 49.3883 10.5781C50.1305 10.25 50.9821 10.0859 51.943 10.0859C52.9039 10.0859 53.7594 10.25 54.5094 10.5781C55.2594 10.8984 55.8883 11.3477 56.3961 11.9258C56.9117 12.5039 57.3024 13.1875 57.568 13.9766C57.8336 14.7578 57.9664 15.6133 57.9664 16.543V16.7891C57.9664 17.7109 57.8336 18.5664 57.568 19.3555C57.3024 20.1367 56.9117 20.8203 56.3961 21.4062C55.8883 21.9844 55.2633 22.4336 54.5211 22.7539C53.7789 23.0742 52.9274 23.2344 51.9664 23.2344C51.0055 23.2344 50.15 23.0742 49.4 22.7539C48.6578 22.4336 48.0289 21.9844 47.5133 21.4062C47.0055 20.8203 46.6188 20.1367 46.3531 19.3555C46.0875 18.5664 45.9547 17.7109 45.9547 16.7891ZM49.3297 16.543V16.7891C49.3297 17.3203 49.3766 17.8164 49.4703 18.2773C49.5641 18.7383 49.7125 19.1445 49.9156 19.4961C50.1266 19.8398 50.4 20.1094 50.736 20.3047C51.0719 20.5 51.4821 20.5977 51.9664 20.5977C52.4352 20.5977 52.8375 20.5 53.1735 20.3047C53.5094 20.1094 53.7789 19.8398 53.9821 19.4961C54.1852 19.1445 54.3336 18.7383 54.4274 18.2773C54.5289 17.8164 54.5797 17.3203 54.5797 16.7891V16.543C54.5797 16.0273 54.5289 15.543 54.4274 15.0898C54.3336 14.6289 54.1813 14.2227 53.9703 13.8711C53.7672 13.5117 53.4977 13.2305 53.1617 13.0273C52.8258 12.8242 52.4196 12.7227 51.943 12.7227C51.4664 12.7227 51.0602 12.8242 50.7242 13.0273C50.3961 13.2305 50.1266 13.5117 49.9156 13.8711C49.7125 14.2227 49.5641 14.6289 49.4703 15.0898C49.3766 15.543 49.3297 16.0273 49.3297 16.543ZM63.3453 13.0273V23H59.9703V10.3203H63.1344L63.3453 13.0273ZM62.8531 16.2148H61.9391C61.9391 15.2773 62.0602 14.4336 62.3024 13.6836C62.5446 12.9258 62.8844 12.2812 63.3219 11.75C63.7594 11.2109 64.2789 10.8008 64.8805 10.5195C65.4899 10.2305 66.1696 10.0859 66.9196 10.0859C67.5133 10.0859 68.0563 10.1719 68.5485 10.3438C69.0406 10.5156 69.4625 10.7891 69.8141 11.1641C70.1735 11.5391 70.4469 12.0352 70.6344 12.6523C70.8297 13.2695 70.9274 14.0234 70.9274 14.9141V23H67.5289V14.9023C67.5289 14.3398 67.4508 13.9023 67.2946 13.5898C67.1383 13.2773 66.9078 13.0586 66.6031 12.9336C66.3063 12.8008 65.9391 12.7344 65.5016 12.7344C65.0485 12.7344 64.6539 12.8242 64.318 13.0039C63.9899 13.1836 63.7164 13.4336 63.4977 13.7539C63.2867 14.0664 63.1266 14.4336 63.0172 14.8555C62.9078 15.2773 62.8531 15.7305 62.8531 16.2148ZM79.7047 10.3203V12.7109H72.3219V10.3203H79.7047ZM74.15 7.19141H77.525V19.1797C77.525 19.5469 77.5719 19.8281 77.6656 20.0234C77.7672 20.2188 77.9156 20.3555 78.111 20.4336C78.3063 20.5039 78.5524 20.5391 78.8492 20.5391C79.0602 20.5391 79.2477 20.5312 79.4117 20.5156C79.5836 20.4922 79.7281 20.4688 79.8453 20.4453L79.8571 22.9297C79.568 23.0234 79.2555 23.0977 78.9196 23.1523C78.5836 23.207 78.2125 23.2344 77.8063 23.2344C77.0641 23.2344 76.4156 23.1133 75.861 22.8711C75.3141 22.6211 74.8922 22.2227 74.5953 21.6758C74.2985 21.1289 74.15 20.4102 74.15 19.5195V7.19141ZM85.0016 13.0859V23H81.6266V10.3203H84.8024L85.0016 13.0859ZM88.8219 10.2383L88.7633 13.3672C88.5992 13.3438 88.4 13.3242 88.1656 13.3086C87.9391 13.2852 87.7321 13.2734 87.5446 13.2734C87.068 13.2734 86.6539 13.3359 86.3024 13.4609C85.9586 13.5781 85.6696 13.7539 85.4352 13.9883C85.2086 14.2227 85.0367 14.5078 84.9196 14.8438C84.8102 15.1797 84.7477 15.5625 84.7321 15.9922L84.0524 15.7812C84.0524 14.9609 84.1344 14.207 84.2985 13.5195C84.4625 12.8242 84.7008 12.2188 85.0133 11.7031C85.3336 11.1875 85.7242 10.7891 86.1852 10.5078C86.6461 10.2266 87.1735 10.0859 87.7672 10.0859C87.9547 10.0859 88.1461 10.1016 88.3414 10.1328C88.5367 10.1562 88.6969 10.1914 88.8219 10.2383ZM96.861 20.1406V14.4922C96.861 14.0859 96.7946 13.7383 96.6617 13.4492C96.5289 13.1523 96.3219 12.9219 96.0406 12.7578C95.7672 12.5938 95.4117 12.5117 94.9742 12.5117C94.5992 12.5117 94.275 12.5781 94.0016 12.7109C93.7281 12.8359 93.5172 13.0195 93.3688 13.2617C93.2203 13.4961 93.1461 13.7734 93.1461 14.0938H89.7711C89.7711 13.5547 89.8961 13.043 90.1461 12.5586C90.3961 12.0742 90.7594 11.6484 91.236 11.2812C91.7125 10.9062 92.2789 10.6133 92.9352 10.4023C93.5992 10.1914 94.3414 10.0859 95.1617 10.0859C96.1461 10.0859 97.0211 10.25 97.7867 10.5781C98.5524 10.9062 99.1539 11.3984 99.5914 12.0547C100.037 12.7109 100.259 13.5312 100.259 14.5156V19.9414C100.259 20.6367 100.302 21.207 100.388 21.6523C100.474 22.0898 100.599 22.4727 100.763 22.8008V23H97.3531C97.1891 22.6562 97.0641 22.2266 96.9781 21.7109C96.9 21.1875 96.861 20.6641 96.861 20.1406ZM97.3063 15.2773L97.3297 17.1875H95.443C94.9977 17.1875 94.611 17.2383 94.2828 17.3398C93.9547 17.4414 93.6852 17.5859 93.4742 17.7734C93.2633 17.9531 93.1071 18.1641 93.0055 18.4062C92.9117 18.6484 92.8649 18.9141 92.8649 19.2031C92.8649 19.4922 92.9313 19.7539 93.0641 19.9883C93.1969 20.2148 93.3883 20.3945 93.6383 20.5273C93.8883 20.6523 94.1813 20.7148 94.5172 20.7148C95.025 20.7148 95.4664 20.6133 95.8414 20.4102C96.2164 20.207 96.5055 19.957 96.7086 19.6602C96.9196 19.3633 97.0289 19.082 97.0367 18.8164L97.9274 20.2461C97.8024 20.5664 97.6305 20.8984 97.4117 21.2422C97.2008 21.5859 96.9313 21.9102 96.6031 22.2148C96.275 22.5117 95.8805 22.7578 95.4196 22.9531C94.9586 23.1406 94.4117 23.2344 93.7789 23.2344C92.9742 23.2344 92.2438 23.0742 91.5875 22.7539C90.9391 22.4258 90.4235 21.9766 90.0406 21.4062C89.6656 20.8281 89.4781 20.1719 89.4781 19.4375C89.4781 18.7734 89.6031 18.1836 89.8531 17.668C90.1031 17.1523 90.4703 16.7188 90.9547 16.3672C91.4469 16.0078 92.0602 15.7383 92.7946 15.5586C93.5289 15.3711 94.3805 15.2773 95.3492 15.2773H97.3063ZM109.716 19.4961C109.716 19.2539 109.646 19.0352 109.505 18.8398C109.365 18.6445 109.103 18.4648 108.72 18.3008C108.345 18.1289 107.802 17.9727 107.091 17.832C106.451 17.6914 105.853 17.5156 105.298 17.3047C104.752 17.0859 104.275 16.8242 103.869 16.5195C103.47 16.2148 103.158 15.8555 102.931 15.4414C102.705 15.0195 102.591 14.5391 102.591 14C102.591 13.4688 102.705 12.9688 102.931 12.5C103.166 12.0312 103.498 11.6172 103.927 11.2578C104.365 10.8906 104.896 10.6055 105.521 10.4023C106.154 10.1914 106.865 10.0859 107.654 10.0859C108.755 10.0859 109.701 10.2617 110.49 10.6133C111.287 10.9648 111.896 11.4492 112.318 12.0664C112.748 12.6758 112.963 13.3711 112.963 14.1523H109.588C109.588 13.8242 109.517 13.5312 109.377 13.2734C109.244 13.0078 109.033 12.8008 108.744 12.6523C108.463 12.4961 108.095 12.418 107.642 12.418C107.267 12.418 106.943 12.4844 106.67 12.6172C106.396 12.7422 106.185 12.9141 106.037 13.1328C105.896 13.3438 105.826 13.5781 105.826 13.8359C105.826 14.0312 105.865 14.207 105.943 14.3633C106.029 14.5117 106.166 14.6484 106.353 14.7734C106.541 14.8984 106.783 15.0156 107.08 15.125C107.384 15.2266 107.759 15.3203 108.205 15.4062C109.119 15.5938 109.935 15.8398 110.654 16.1445C111.373 16.4414 111.943 16.8477 112.365 17.3633C112.787 17.8711 112.998 18.5391 112.998 19.3672C112.998 19.9297 112.873 20.4453 112.623 20.9141C112.373 21.3828 112.013 21.793 111.545 22.1445C111.076 22.4883 110.513 22.7578 109.857 22.9531C109.209 23.1406 108.478 23.2344 107.666 23.2344C106.486 23.2344 105.486 23.0234 104.666 22.6016C103.853 22.1797 103.236 21.6445 102.814 20.9961C102.4 20.3398 102.193 19.668 102.193 18.9805H105.392C105.408 19.4414 105.525 19.8125 105.744 20.0938C105.97 20.375 106.255 20.5781 106.599 20.7031C106.951 20.8281 107.33 20.8906 107.736 20.8906C108.173 20.8906 108.537 20.832 108.826 20.7148C109.115 20.5898 109.334 20.4258 109.482 20.2227C109.638 20.0117 109.716 19.7695 109.716 19.4961ZM121.4 10.3203V12.7109H114.017V10.3203H121.4ZM115.845 7.19141H119.22V19.1797C119.22 19.5469 119.267 19.8281 119.361 20.0234C119.463 20.2188 119.611 20.3555 119.806 20.4336C120.002 20.5039 120.248 20.5391 120.545 20.5391C120.755 20.5391 120.943 20.5312 121.107 20.5156C121.279 20.4922 121.423 20.4688 121.541 20.4453L121.552 22.9297C121.263 23.0234 120.951 23.0977 120.615 23.1523C120.279 23.207 119.908 23.2344 119.502 23.2344C118.759 23.2344 118.111 23.1133 117.556 22.8711C117.009 22.6211 116.588 22.2227 116.291 21.6758C115.994 21.1289 115.845 20.4102 115.845 19.5195V7.19141ZM126.697 13.0859V23H123.322V10.3203H126.498L126.697 13.0859ZM130.517 10.2383L130.459 13.3672C130.295 13.3438 130.095 13.3242 129.861 13.3086C129.634 13.2852 129.427 13.2734 129.24 13.2734C128.763 13.2734 128.349 13.3359 127.998 13.4609C127.654 13.5781 127.365 13.7539 127.13 13.9883C126.904 14.2227 126.732 14.5078 126.615 14.8438C126.505 15.1797 126.443 15.5625 126.427 15.9922L125.748 15.7812C125.748 14.9609 125.83 14.207 125.994 13.5195C126.158 12.8242 126.396 12.2188 126.709 11.7031C127.029 11.1875 127.42 10.7891 127.88 10.5078C128.341 10.2266 128.869 10.0859 129.463 10.0859C129.65 10.0859 129.841 10.1016 130.037 10.1328C130.232 10.1562 130.392 10.1914 130.517 10.2383Z" fill="#697077"/>
</svg>
