<svg width="25" height="24" viewBox="0 0 25 24" fill="none" xmlns="http://www.w3.org/2000/svg">
<path d="M22.709 13.7189V21.0979H18.431V14.2129C18.431 12.4829 17.812 11.3029 16.264 11.3029C15.082 11.3029 14.378 12.0989 14.069 12.8679C13.956 13.1429 13.927 13.5259 13.927 13.9109V21.0979H9.647C9.647 21.0979 9.705 9.43788 9.647 8.22888H13.927V10.0529L13.899 10.0949H13.927V10.0529C14.495 9.17788 15.51 7.92688 17.783 7.92688C20.598 7.92688 22.709 9.76688 22.709 13.7189ZM5.171 2.02588C3.708 2.02588 2.75 2.98588 2.75 4.24888C2.75 5.48388 3.68 6.47288 5.115 6.47288H5.143C6.636 6.47288 7.563 5.48388 7.563 4.24888C7.537 2.98588 6.637 2.02588 5.172 2.02588H5.171ZM3.004 21.0979H7.282V8.22888H3.004V21.0979Z" fill="#697077"/>
</svg>
