<svg width="143" height="24" viewBox="0 0 143 24" fill="none" xmlns="http://www.w3.org/2000/svg">
<path fill-rule="evenodd" clip-rule="evenodd" d="M0 0V24H24V0H0ZM3.41421 2L12 10.5858L20.5858 2H3.41421ZM22 3.41421L13.4142 12L22 20.5858V3.41421ZM20.5858 22L12 13.4142L3.41421 22H20.5858ZM2 20.5858L10.5858 12L2 3.41421V20.5858Z" fill="#4D5358"/>
<path d="M32.2275 15.9697L34.7764 5.20312H36.2002L36.5254 6.99609L33.8096 18H32.2803L32.2275 15.9697ZM30.918 5.20312L33.0273 15.9697L32.8516 18H31.1465L28.3076 5.20312H30.918ZM38.7666 15.9258L40.8496 5.20312H43.46L40.6299 18H38.9248L38.7666 15.9258ZM37 5.20312L39.5664 16.0137L39.4961 18H37.9668L35.2334 6.9873L35.585 5.20312H37ZM48.8301 18.1758C48.0918 18.1758 47.4297 18.0586 46.8438 17.8242C46.2578 17.584 45.7598 17.2529 45.3496 16.8311C44.9453 16.4092 44.6348 15.9199 44.418 15.3633C44.2012 14.8008 44.0928 14.2031 44.0928 13.5703V13.2188C44.0928 12.498 44.1953 11.8389 44.4004 11.2412C44.6055 10.6436 44.8984 10.125 45.2793 9.68555C45.666 9.24609 46.1348 8.90918 46.6855 8.6748C47.2363 8.43457 47.8574 8.31445 48.5488 8.31445C49.2227 8.31445 49.8203 8.42578 50.3418 8.64844C50.8633 8.87109 51.2998 9.1875 51.6514 9.59766C52.0088 10.0078 52.2783 10.5 52.46 11.0742C52.6416 11.6426 52.7324 12.2754 52.7324 12.9727V14.0273H45.1738V12.3398H50.2451V12.1465C50.2451 11.7949 50.1807 11.4814 50.0518 11.2061C49.9287 10.9248 49.7412 10.7021 49.4893 10.5381C49.2373 10.374 48.915 10.292 48.5225 10.292C48.1885 10.292 47.9014 10.3652 47.6611 10.5117C47.4209 10.6582 47.2246 10.8633 47.0723 11.127C46.9258 11.3906 46.8145 11.7012 46.7383 12.0586C46.668 12.4102 46.6328 12.7969 46.6328 13.2188V13.5703C46.6328 13.9512 46.6855 14.3027 46.791 14.625C46.9023 14.9473 47.0576 15.2256 47.2568 15.46C47.4619 15.6943 47.708 15.876 47.9951 16.0049C48.2881 16.1338 48.6191 16.1982 48.9883 16.1982C49.4453 16.1982 49.8701 16.1104 50.2627 15.9346C50.6611 15.7529 51.0039 15.4805 51.291 15.1172L52.5215 16.4531C52.3223 16.7402 52.0498 17.0156 51.7041 17.2793C51.3643 17.543 50.9541 17.7598 50.4736 17.9297C49.9932 18.0938 49.4453 18.1758 48.8301 18.1758ZM54.1738 4.5H56.7051V15.8203L56.4502 18H54.1738V4.5ZM62.7256 13.1484V13.333C62.7256 14.042 62.6494 14.6924 62.4971 15.2842C62.3506 15.876 62.1221 16.3887 61.8115 16.8223C61.501 17.25 61.1143 17.584 60.6514 17.8242C60.1943 18.0586 59.6553 18.1758 59.0342 18.1758C58.4541 18.1758 57.9502 18.0586 57.5225 17.8242C57.1006 17.5898 56.7461 17.2588 56.459 16.8311C56.1719 16.4033 55.9404 15.9023 55.7646 15.3281C55.5889 14.7539 55.457 14.127 55.3691 13.4473V13.043C55.457 12.3633 55.5889 11.7363 55.7646 11.1621C55.9404 10.5879 56.1719 10.0869 56.459 9.65918C56.7461 9.23145 57.1006 8.90039 57.5225 8.66602C57.9443 8.43164 58.4424 8.31445 59.0166 8.31445C59.6436 8.31445 60.1885 8.43457 60.6514 8.6748C61.1201 8.90918 61.5068 9.24316 61.8115 9.67676C62.1221 10.1045 62.3506 10.6143 62.4971 11.2061C62.6494 11.792 62.7256 12.4395 62.7256 13.1484ZM60.1943 13.333V13.1484C60.1943 12.7617 60.165 12.3984 60.1064 12.0586C60.0537 11.7129 59.96 11.4111 59.8252 11.1533C59.6904 10.8896 59.5059 10.6816 59.2715 10.5293C59.043 10.377 58.7471 10.3008 58.3838 10.3008C58.0381 10.3008 57.7451 10.3594 57.5049 10.4766C57.2646 10.5938 57.0654 10.7578 56.9072 10.9688C56.7549 11.1797 56.6406 11.4316 56.5645 11.7246C56.4883 12.0117 56.4414 12.3281 56.4238 12.6738V13.8252C56.4414 14.2881 56.5176 14.6982 56.6523 15.0557C56.793 15.4072 57.0039 15.6855 57.2852 15.8906C57.5723 16.0898 57.9443 16.1895 58.4014 16.1895C58.7588 16.1895 59.0547 16.1191 59.2891 15.9785C59.5234 15.8379 59.7051 15.6387 59.834 15.3809C59.9688 15.123 60.0625 14.8213 60.1152 14.4756C60.168 14.124 60.1943 13.7432 60.1943 13.333ZM64.2988 4.5H66.8301V15.8203L66.5752 18H64.2988V4.5ZM72.8506 13.1484V13.333C72.8506 14.042 72.7744 14.6924 72.6221 15.2842C72.4756 15.876 72.2471 16.3887 71.9365 16.8223C71.626 17.25 71.2393 17.584 70.7764 17.8242C70.3193 18.0586 69.7803 18.1758 69.1592 18.1758C68.5791 18.1758 68.0752 18.0586 67.6475 17.8242C67.2256 17.5898 66.8711 17.2588 66.584 16.8311C66.2969 16.4033 66.0654 15.9023 65.8896 15.3281C65.7139 14.7539 65.582 14.127 65.4941 13.4473V13.043C65.582 12.3633 65.7139 11.7363 65.8896 11.1621C66.0654 10.5879 66.2969 10.0869 66.584 9.65918C66.8711 9.23145 67.2256 8.90039 67.6475 8.66602C68.0693 8.43164 68.5674 8.31445 69.1416 8.31445C69.7686 8.31445 70.3135 8.43457 70.7764 8.6748C71.2451 8.90918 71.6318 9.24316 71.9365 9.67676C72.2471 10.1045 72.4756 10.6143 72.6221 11.2061C72.7744 11.792 72.8506 12.4395 72.8506 13.1484ZM70.3193 13.333V13.1484C70.3193 12.7617 70.29 12.3984 70.2314 12.0586C70.1787 11.7129 70.085 11.4111 69.9502 11.1533C69.8154 10.8896 69.6309 10.6816 69.3965 10.5293C69.168 10.377 68.8721 10.3008 68.5088 10.3008C68.1631 10.3008 67.8701 10.3594 67.6299 10.4766C67.3896 10.5938 67.1904 10.7578 67.0322 10.9688C66.8799 11.1797 66.7656 11.4316 66.6895 11.7246C66.6133 12.0117 66.5664 12.3281 66.5488 12.6738V13.8252C66.5664 14.2881 66.6426 14.6982 66.7773 15.0557C66.918 15.4072 67.1289 15.6855 67.4102 15.8906C67.6973 16.0898 68.0693 16.1895 68.5264 16.1895C68.8838 16.1895 69.1797 16.1191 69.4141 15.9785C69.6484 15.8379 69.8301 15.6387 69.959 15.3809C70.0938 15.123 70.1875 14.8213 70.2402 14.4756C70.293 14.124 70.3193 13.7432 70.3193 13.333ZM77.1396 16.9277L79.6621 8.49023H82.3779L78.5547 19.4326C78.4727 19.6729 78.3613 19.9307 78.2207 20.2061C78.0859 20.4814 77.9014 20.7422 77.667 20.9883C77.4385 21.2402 77.1484 21.4453 76.7969 21.6035C76.4512 21.7617 76.0264 21.8408 75.5225 21.8408C75.2822 21.8408 75.0859 21.8262 74.9336 21.7969C74.7812 21.7676 74.5996 21.7266 74.3887 21.6738V19.8193C74.4531 19.8193 74.5205 19.8193 74.5908 19.8193C74.6611 19.8252 74.7285 19.8281 74.793 19.8281C75.127 19.8281 75.3994 19.79 75.6104 19.7139C75.8213 19.6377 75.9912 19.5205 76.1201 19.3623C76.249 19.21 76.3516 19.0107 76.4277 18.7646L77.1396 16.9277ZM76.085 8.49023L78.1504 15.3809L78.5107 18.0615L76.7881 18.2461L73.3691 8.49023H76.085ZM86.1836 5.20312V18H83.5469V5.20312H86.1836ZM91.2812 10.6699V12.7266H85.4629V10.6699H91.2812ZM91.8965 5.20312V7.26855H85.4629V5.20312H91.8965ZM95.5703 10.5645V18H93.0391V8.49023H95.4209L95.5703 10.5645ZM98.4355 8.42871L98.3916 10.7754C98.2686 10.7578 98.1191 10.7432 97.9434 10.7314C97.7734 10.7139 97.6182 10.7051 97.4775 10.7051C97.1201 10.7051 96.8096 10.752 96.5459 10.8457C96.2881 10.9336 96.0713 11.0654 95.8955 11.2412C95.7256 11.417 95.5967 11.6309 95.5088 11.8828C95.4268 12.1348 95.3799 12.4219 95.3682 12.7441L94.8584 12.5859C94.8584 11.9707 94.9199 11.4053 95.043 10.8896C95.166 10.3682 95.3447 9.91406 95.5791 9.52734C95.8193 9.14062 96.1123 8.8418 96.458 8.63086C96.8037 8.41992 97.1992 8.31445 97.6445 8.31445C97.7852 8.31445 97.9287 8.32617 98.0752 8.34961C98.2217 8.36719 98.3418 8.39355 98.4355 8.42871ZM104.465 15.8555V11.6191C104.465 11.3145 104.415 11.0537 104.315 10.8369C104.216 10.6143 104.061 10.4414 103.85 10.3184C103.645 10.1953 103.378 10.1338 103.05 10.1338C102.769 10.1338 102.525 10.1836 102.32 10.2832C102.115 10.377 101.957 10.5146 101.846 10.6963C101.734 10.8721 101.679 11.0801 101.679 11.3203H99.1475C99.1475 10.916 99.2412 10.5322 99.4287 10.1689C99.6162 9.80566 99.8887 9.48633 100.246 9.21094C100.604 8.92969 101.028 8.70996 101.521 8.55176C102.019 8.39355 102.575 8.31445 103.19 8.31445C103.929 8.31445 104.585 8.4375 105.159 8.68359C105.733 8.92969 106.185 9.29883 106.513 9.79102C106.847 10.2832 107.014 10.8984 107.014 11.6367V15.7061C107.014 16.2275 107.046 16.6553 107.11 16.9893C107.175 17.3174 107.269 17.6045 107.392 17.8506V18H104.834C104.711 17.7422 104.617 17.4199 104.553 17.0332C104.494 16.6406 104.465 16.248 104.465 15.8555ZM104.799 12.208L104.816 13.6406H103.401C103.067 13.6406 102.777 13.6787 102.531 13.7549C102.285 13.8311 102.083 13.9395 101.925 14.0801C101.767 14.2148 101.649 14.373 101.573 14.5547C101.503 14.7363 101.468 14.9355 101.468 15.1523C101.468 15.3691 101.518 15.5654 101.617 15.7412C101.717 15.9111 101.86 16.0459 102.048 16.1455C102.235 16.2393 102.455 16.2861 102.707 16.2861C103.088 16.2861 103.419 16.21 103.7 16.0576C103.981 15.9053 104.198 15.7178 104.351 15.4951C104.509 15.2725 104.591 15.0615 104.597 14.8623L105.265 15.9346C105.171 16.1748 105.042 16.4238 104.878 16.6816C104.72 16.9395 104.518 17.1826 104.271 17.4111C104.025 17.6338 103.729 17.8184 103.384 17.9648C103.038 18.1055 102.628 18.1758 102.153 18.1758C101.55 18.1758 101.002 18.0557 100.51 17.8154C100.023 17.5693 99.6367 17.2324 99.3496 16.8047C99.0684 16.3711 98.9277 15.8789 98.9277 15.3281C98.9277 14.8301 99.0215 14.3877 99.209 14.001C99.3965 13.6143 99.6719 13.2891 100.035 13.0254C100.404 12.7559 100.864 12.5537 101.415 12.4189C101.966 12.2783 102.604 12.208 103.331 12.208H104.799ZM111.496 10.459V18H108.956V8.49023H111.338L111.496 10.459ZM111.145 12.9111H110.441C110.441 12.249 110.521 11.6396 110.679 11.083C110.843 10.5205 111.08 10.0342 111.391 9.62402C111.707 9.20801 112.097 8.88574 112.56 8.65723C113.022 8.42871 113.559 8.31445 114.168 8.31445C114.59 8.31445 114.977 8.37891 115.328 8.50781C115.68 8.63086 115.981 8.82715 116.233 9.09668C116.491 9.36035 116.69 9.70605 116.831 10.1338C116.972 10.5557 117.042 11.0625 117.042 11.6543V18H114.511V11.9355C114.511 11.502 114.452 11.168 114.335 10.9336C114.218 10.6992 114.051 10.5352 113.834 10.4414C113.623 10.3477 113.368 10.3008 113.069 10.3008C112.741 10.3008 112.454 10.3682 112.208 10.5029C111.968 10.6377 111.769 10.8252 111.61 11.0654C111.452 11.2998 111.335 11.5752 111.259 11.8916C111.183 12.208 111.145 12.5479 111.145 12.9111ZM116.805 12.6211L115.899 12.7354C115.899 12.1143 115.976 11.5371 116.128 11.0039C116.286 10.4707 116.518 10.002 116.822 9.59766C117.133 9.19336 117.517 8.87988 117.974 8.65723C118.431 8.42871 118.958 8.31445 119.556 8.31445C120.013 8.31445 120.429 8.38184 120.804 8.5166C121.179 8.64551 121.498 8.85352 121.762 9.14062C122.031 9.42188 122.236 9.79102 122.377 10.248C122.523 10.7051 122.597 11.2646 122.597 11.9268V18H120.057V11.9268C120.057 11.4873 119.998 11.1533 119.881 10.9248C119.77 10.6904 119.605 10.5293 119.389 10.4414C119.178 10.3477 118.926 10.3008 118.633 10.3008C118.328 10.3008 118.062 10.3623 117.833 10.4854C117.604 10.6025 117.414 10.7666 117.262 10.9775C117.109 11.1885 116.995 11.4346 116.919 11.7158C116.843 11.9912 116.805 12.293 116.805 12.6211ZM128.934 18.1758C128.195 18.1758 127.533 18.0586 126.947 17.8242C126.361 17.584 125.863 17.2529 125.453 16.8311C125.049 16.4092 124.738 15.9199 124.521 15.3633C124.305 14.8008 124.196 14.2031 124.196 13.5703V13.2188C124.196 12.498 124.299 11.8389 124.504 11.2412C124.709 10.6436 125.002 10.125 125.383 9.68555C125.77 9.24609 126.238 8.90918 126.789 8.6748C127.34 8.43457 127.961 8.31445 128.652 8.31445C129.326 8.31445 129.924 8.42578 130.445 8.64844C130.967 8.87109 131.403 9.1875 131.755 9.59766C132.112 10.0078 132.382 10.5 132.563 11.0742C132.745 11.6426 132.836 12.2754 132.836 12.9727V14.0273H125.277V12.3398H130.349V12.1465C130.349 11.7949 130.284 11.4814 130.155 11.2061C130.032 10.9248 129.845 10.7021 129.593 10.5381C129.341 10.374 129.019 10.292 128.626 10.292C128.292 10.292 128.005 10.3652 127.765 10.5117C127.524 10.6582 127.328 10.8633 127.176 11.127C127.029 11.3906 126.918 11.7012 126.842 12.0586C126.771 12.4102 126.736 12.7969 126.736 13.2188V13.5703C126.736 13.9512 126.789 14.3027 126.895 14.625C127.006 14.9473 127.161 15.2256 127.36 15.46C127.565 15.6943 127.812 15.876 128.099 16.0049C128.392 16.1338 128.723 16.1982 129.092 16.1982C129.549 16.1982 129.974 16.1104 130.366 15.9346C130.765 15.7529 131.107 15.4805 131.395 15.1172L132.625 16.4531C132.426 16.7402 132.153 17.0156 131.808 17.2793C131.468 17.543 131.058 17.7598 130.577 17.9297C130.097 18.0938 129.549 18.1758 128.934 18.1758ZM139.419 15.3721C139.419 15.1904 139.366 15.0264 139.261 14.8799C139.155 14.7334 138.959 14.5986 138.672 14.4756C138.391 14.3467 137.983 14.2295 137.45 14.124C136.97 14.0186 136.521 13.8867 136.105 13.7285C135.695 13.5645 135.338 13.3682 135.033 13.1396C134.734 12.9111 134.5 12.6416 134.33 12.3311C134.16 12.0146 134.075 11.6543 134.075 11.25C134.075 10.8516 134.16 10.4766 134.33 10.125C134.506 9.77344 134.755 9.46289 135.077 9.19336C135.405 8.91797 135.804 8.7041 136.272 8.55176C136.747 8.39355 137.28 8.31445 137.872 8.31445C138.698 8.31445 139.407 8.44629 139.999 8.70996C140.597 8.97363 141.054 9.33691 141.37 9.7998C141.692 10.2568 141.854 10.7783 141.854 11.3643H139.322C139.322 11.1182 139.27 10.8984 139.164 10.7051C139.064 10.5059 138.906 10.3506 138.689 10.2393C138.479 10.1221 138.203 10.0635 137.863 10.0635C137.582 10.0635 137.339 10.1133 137.134 10.2129C136.929 10.3066 136.771 10.4355 136.659 10.5996C136.554 10.7578 136.501 10.9336 136.501 11.127C136.501 11.2734 136.53 11.4053 136.589 11.5225C136.653 11.6338 136.756 11.7363 136.896 11.8301C137.037 11.9238 137.219 12.0117 137.441 12.0938C137.67 12.1699 137.951 12.2402 138.285 12.3047C138.971 12.4453 139.583 12.6299 140.122 12.8584C140.661 13.0811 141.089 13.3857 141.405 13.7725C141.722 14.1533 141.88 14.6543 141.88 15.2754C141.88 15.6973 141.786 16.084 141.599 16.4355C141.411 16.7871 141.142 17.0947 140.79 17.3584C140.438 17.6162 140.017 17.8184 139.524 17.9648C139.038 18.1055 138.49 18.1758 137.881 18.1758C136.996 18.1758 136.246 18.0176 135.631 17.7012C135.021 17.3848 134.559 16.9834 134.242 16.4971C133.932 16.0049 133.776 15.501 133.776 14.9854H136.176C136.188 15.3311 136.275 15.6094 136.439 15.8203C136.609 16.0312 136.823 16.1836 137.081 16.2773C137.345 16.3711 137.629 16.418 137.934 16.418C138.262 16.418 138.534 16.374 138.751 16.2861C138.968 16.1924 139.132 16.0693 139.243 15.917C139.36 15.7588 139.419 15.5771 139.419 15.3721Z" fill="#697077"/>
</svg>
