<svg width="181" height="39" viewBox="0 0 181 39" fill="none" xmlns="http://www.w3.org/2000/svg">
<path fill-rule="evenodd" clip-rule="evenodd" d="M0 0V24H24V0H0ZM3.41421 2L12 10.5858L20.5858 2H3.41421ZM22 3.41421L13.4142 12L22 20.5858V3.41421ZM20.5858 22L12 13.4142L3.41421 22H20.5858ZM2 20.5858L10.5858 12L2 3.41421V20.5858Z" fill="#DDE1E6"/>
<path d="M33.6367 18.293L37.0352 3.9375H38.9336L39.3672 6.32812L35.7461 21H33.707L33.6367 18.293ZM31.8906 3.9375L34.7031 18.293L34.4688 21H32.1953L28.4102 3.9375H31.8906ZM42.3555 18.2344L45.1328 3.9375H48.6133L44.8398 21H42.5664L42.3555 18.2344ZM40 3.9375L43.4219 18.3516L43.3281 21H41.2891L37.6445 6.31641L38.1133 3.9375H40ZM55.7734 21.2344C54.7891 21.2344 53.9062 21.0781 53.125 20.7656C52.3438 20.4453 51.6797 20.0039 51.1328 19.4414C50.5938 18.8789 50.1797 18.2266 49.8906 17.4844C49.6016 16.7344 49.457 15.9375 49.457 15.0938V14.625C49.457 13.6641 49.5938 12.7852 49.8672 11.9883C50.1406 11.1914 50.5312 10.5 51.0391 9.91406C51.5547 9.32812 52.1797 8.87891 52.9141 8.56641C53.6484 8.24609 54.4766 8.08594 55.3984 8.08594C56.2969 8.08594 57.0938 8.23438 57.7891 8.53125C58.4844 8.82812 59.0664 9.25 59.5352 9.79688C60.0117 10.3438 60.3711 11 60.6133 11.7656C60.8555 12.5234 60.9766 13.3672 60.9766 14.2969V15.7031H50.8984V13.4531H57.6602V13.1953C57.6602 12.7266 57.5742 12.3086 57.4023 11.9414C57.2383 11.5664 56.9883 11.2695 56.6523 11.0508C56.3164 10.832 55.8867 10.7227 55.3633 10.7227C54.918 10.7227 54.5352 10.8203 54.2148 11.0156C53.8945 11.2109 53.6328 11.4844 53.4297 11.8359C53.2344 12.1875 53.0859 12.6016 52.9844 13.0781C52.8906 13.5469 52.8438 14.0625 52.8438 14.625V15.0938C52.8438 15.6016 52.9141 16.0703 53.0547 16.5C53.2031 16.9297 53.4102 17.3008 53.6758 17.6133C53.9492 17.9258 54.2773 18.168 54.6602 18.3398C55.0508 18.5117 55.4922 18.5977 55.9844 18.5977C56.5938 18.5977 57.1602 18.4805 57.6836 18.2461C58.2148 18.0039 58.6719 17.6406 59.0547 17.1562L60.6953 18.9375C60.4297 19.3203 60.0664 19.6875 59.6055 20.0391C59.1523 20.3906 58.6055 20.6797 57.9648 20.9062C57.3242 21.125 56.5938 21.2344 55.7734 21.2344ZM62.8984 3H66.2734V18.0938L65.9336 21H62.8984V3ZM74.3008 14.5312V14.7773C74.3008 15.7227 74.1992 16.5898 73.9961 17.3789C73.8008 18.168 73.4961 18.8516 73.082 19.4297C72.668 20 72.1523 20.4453 71.5352 20.7656C70.9258 21.0781 70.207 21.2344 69.3789 21.2344C68.6055 21.2344 67.9336 21.0781 67.3633 20.7656C66.8008 20.4531 66.3281 20.0117 65.9453 19.4414C65.5625 18.8711 65.2539 18.2031 65.0195 17.4375C64.7852 16.6719 64.6094 15.8359 64.4922 14.9297V14.3906C64.6094 13.4844 64.7852 12.6484 65.0195 11.8828C65.2539 11.1172 65.5625 10.4492 65.9453 9.87891C66.3281 9.30859 66.8008 8.86719 67.3633 8.55469C67.9258 8.24219 68.5898 8.08594 69.3555 8.08594C70.1914 8.08594 70.918 8.24609 71.5352 8.56641C72.1602 8.87891 72.6758 9.32422 73.082 9.90234C73.4961 10.4727 73.8008 11.1523 73.9961 11.9414C74.1992 12.7227 74.3008 13.5859 74.3008 14.5312ZM70.9258 14.7773V14.5312C70.9258 14.0156 70.8867 13.5312 70.8086 13.0781C70.7383 12.6172 70.6133 12.2148 70.4336 11.8711C70.2539 11.5195 70.0078 11.2422 69.6953 11.0391C69.3906 10.8359 68.9961 10.7344 68.5117 10.7344C68.0508 10.7344 67.6602 10.8125 67.3398 10.9688C67.0195 11.125 66.7539 11.3438 66.543 11.625C66.3398 11.9062 66.1875 12.2422 66.0859 12.6328C65.9844 13.0156 65.9219 13.4375 65.8984 13.8984V15.4336C65.9219 16.0508 66.0234 16.5977 66.2031 17.0742C66.3906 17.543 66.6719 17.9141 67.0469 18.1875C67.4297 18.4531 67.9258 18.5859 68.5352 18.5859C69.0117 18.5859 69.4062 18.4922 69.7188 18.3047C70.0312 18.1172 70.2734 17.8516 70.4453 17.5078C70.625 17.1641 70.75 16.7617 70.8203 16.3008C70.8906 15.832 70.9258 15.3242 70.9258 14.7773ZM76.3984 3H79.7734V18.0938L79.4336 21H76.3984V3ZM87.8008 14.5312V14.7773C87.8008 15.7227 87.6992 16.5898 87.4961 17.3789C87.3008 18.168 86.9961 18.8516 86.582 19.4297C86.168 20 85.6523 20.4453 85.0352 20.7656C84.4258 21.0781 83.707 21.2344 82.8789 21.2344C82.1055 21.2344 81.4336 21.0781 80.8633 20.7656C80.3008 20.4531 79.8281 20.0117 79.4453 19.4414C79.0625 18.8711 78.7539 18.2031 78.5195 17.4375C78.2852 16.6719 78.1094 15.8359 77.9922 14.9297V14.3906C78.1094 13.4844 78.2852 12.6484 78.5195 11.8828C78.7539 11.1172 79.0625 10.4492 79.4453 9.87891C79.8281 9.30859 80.3008 8.86719 80.8633 8.55469C81.4258 8.24219 82.0898 8.08594 82.8555 8.08594C83.6914 8.08594 84.418 8.24609 85.0352 8.56641C85.6602 8.87891 86.1758 9.32422 86.582 9.90234C86.9961 10.4727 87.3008 11.1523 87.4961 11.9414C87.6992 12.7227 87.8008 13.5859 87.8008 14.5312ZM84.4258 14.7773V14.5312C84.4258 14.0156 84.3867 13.5312 84.3086 13.0781C84.2383 12.6172 84.1133 12.2148 83.9336 11.8711C83.7539 11.5195 83.5078 11.2422 83.1953 11.0391C82.8906 10.8359 82.4961 10.7344 82.0117 10.7344C81.5508 10.7344 81.1602 10.8125 80.8398 10.9688C80.5195 11.125 80.2539 11.3438 80.043 11.625C79.8398 11.9062 79.6875 12.2422 79.5859 12.6328C79.4844 13.0156 79.4219 13.4375 79.3984 13.8984V15.4336C79.4219 16.0508 79.5234 16.5977 79.7031 17.0742C79.8906 17.543 80.1719 17.9141 80.5469 18.1875C80.9297 18.4531 81.4258 18.5859 82.0352 18.5859C82.5117 18.5859 82.9062 18.4922 83.2188 18.3047C83.5312 18.1172 83.7734 17.8516 83.9453 17.5078C84.125 17.1641 84.25 16.7617 84.3203 16.3008C84.3906 15.832 84.4258 15.3242 84.4258 14.7773ZM93.5195 19.5703L96.8828 8.32031H100.504L95.4062 22.9102C95.2969 23.2305 95.1484 23.5742 94.9609 23.9414C94.7812 24.3086 94.5352 24.6562 94.2227 24.9844C93.918 25.3203 93.5312 25.5938 93.0625 25.8047C92.6016 26.0156 92.0352 26.1211 91.3633 26.1211C91.043 26.1211 90.7812 26.1016 90.5781 26.0625C90.375 26.0234 90.1328 25.9688 89.8516 25.8984V23.4258C89.9375 23.4258 90.0273 23.4258 90.1211 23.4258C90.2148 23.4336 90.3047 23.4375 90.3906 23.4375C90.8359 23.4375 91.1992 23.3867 91.4805 23.2852C91.7617 23.1836 91.9883 23.0273 92.1602 22.8164C92.332 22.6133 92.4688 22.3477 92.5703 22.0195L93.5195 19.5703ZM92.1133 8.32031L94.8672 17.5078L95.3477 21.082L93.0508 21.3281L88.4922 8.32031H92.1133ZM105.578 3.9375V21H102.062V3.9375H105.578ZM112.375 11.2266V13.9688H104.617V11.2266H112.375ZM113.195 3.9375V6.69141H104.617V3.9375H113.195ZM118.094 11.0859V21H114.719V8.32031H117.895L118.094 11.0859ZM121.914 8.23828L121.855 11.3672C121.691 11.3438 121.492 11.3242 121.258 11.3086C121.031 11.2852 120.824 11.2734 120.637 11.2734C120.16 11.2734 119.746 11.3359 119.395 11.4609C119.051 11.5781 118.762 11.7539 118.527 11.9883C118.301 12.2227 118.129 12.5078 118.012 12.8438C117.902 13.1797 117.84 13.5625 117.824 13.9922L117.145 13.7812C117.145 12.9609 117.227 12.207 117.391 11.5195C117.555 10.8242 117.793 10.2188 118.105 9.70312C118.426 9.1875 118.816 8.78906 119.277 8.50781C119.738 8.22656 120.266 8.08594 120.859 8.08594C121.047 8.08594 121.238 8.10156 121.434 8.13281C121.629 8.15625 121.789 8.19141 121.914 8.23828ZM129.953 18.1406V12.4922C129.953 12.0859 129.887 11.7383 129.754 11.4492C129.621 11.1523 129.414 10.9219 129.133 10.7578C128.859 10.5938 128.504 10.5117 128.066 10.5117C127.691 10.5117 127.367 10.5781 127.094 10.7109C126.82 10.8359 126.609 11.0195 126.461 11.2617C126.312 11.4961 126.238 11.7734 126.238 12.0938H122.863C122.863 11.5547 122.988 11.043 123.238 10.5586C123.488 10.0742 123.852 9.64844 124.328 9.28125C124.805 8.90625 125.371 8.61328 126.027 8.40234C126.691 8.19141 127.434 8.08594 128.254 8.08594C129.238 8.08594 130.113 8.25 130.879 8.57812C131.645 8.90625 132.246 9.39844 132.684 10.0547C133.129 10.7109 133.352 11.5312 133.352 12.5156V17.9414C133.352 18.6367 133.395 19.207 133.48 19.6523C133.566 20.0898 133.691 20.4727 133.855 20.8008V21H130.445C130.281 20.6562 130.156 20.2266 130.07 19.7109C129.992 19.1875 129.953 18.6641 129.953 18.1406ZM130.398 13.2773L130.422 15.1875H128.535C128.09 15.1875 127.703 15.2383 127.375 15.3398C127.047 15.4414 126.777 15.5859 126.566 15.7734C126.355 15.9531 126.199 16.1641 126.098 16.4062C126.004 16.6484 125.957 16.9141 125.957 17.2031C125.957 17.4922 126.023 17.7539 126.156 17.9883C126.289 18.2148 126.48 18.3945 126.73 18.5273C126.98 18.6523 127.273 18.7148 127.609 18.7148C128.117 18.7148 128.559 18.6133 128.934 18.4102C129.309 18.207 129.598 17.957 129.801 17.6602C130.012 17.3633 130.121 17.082 130.129 16.8164L131.02 18.2461C130.895 18.5664 130.723 18.8984 130.504 19.2422C130.293 19.5859 130.023 19.9102 129.695 20.2148C129.367 20.5117 128.973 20.7578 128.512 20.9531C128.051 21.1406 127.504 21.2344 126.871 21.2344C126.066 21.2344 125.336 21.0742 124.68 20.7539C124.031 20.4258 123.516 19.9766 123.133 19.4062C122.758 18.8281 122.57 18.1719 122.57 17.4375C122.57 16.7734 122.695 16.1836 122.945 15.668C123.195 15.1523 123.562 14.7188 124.047 14.3672C124.539 14.0078 125.152 13.7383 125.887 13.5586C126.621 13.3711 127.473 13.2773 128.441 13.2773H130.398ZM139.328 10.9453V21H135.941V8.32031H139.117L139.328 10.9453ZM138.859 14.2148H137.922C137.922 13.332 138.027 12.5195 138.238 11.7773C138.457 11.0273 138.773 10.3789 139.188 9.83203C139.609 9.27734 140.129 8.84766 140.746 8.54297C141.363 8.23828 142.078 8.08594 142.891 8.08594C143.453 8.08594 143.969 8.17188 144.438 8.34375C144.906 8.50781 145.309 8.76953 145.645 9.12891C145.988 9.48047 146.254 9.94141 146.441 10.5117C146.629 11.0742 146.723 11.75 146.723 12.5391V21H143.348V12.9141C143.348 12.3359 143.27 11.8906 143.113 11.5781C142.957 11.2656 142.734 11.0469 142.445 10.9219C142.164 10.7969 141.824 10.7344 141.426 10.7344C140.988 10.7344 140.605 10.8242 140.277 11.0039C139.957 11.1836 139.691 11.4336 139.48 11.7539C139.27 12.0664 139.113 12.4336 139.012 12.8555C138.91 13.2773 138.859 13.7305 138.859 14.2148ZM146.406 13.8281L145.199 13.9805C145.199 13.1523 145.301 12.3828 145.504 11.6719C145.715 10.9609 146.023 10.3359 146.43 9.79688C146.844 9.25781 147.355 8.83984 147.965 8.54297C148.574 8.23828 149.277 8.08594 150.074 8.08594C150.684 8.08594 151.238 8.17578 151.738 8.35547C152.238 8.52734 152.664 8.80469 153.016 9.1875C153.375 9.5625 153.648 10.0547 153.836 10.6641C154.031 11.2734 154.129 12.0195 154.129 12.9023V21H150.742V12.9023C150.742 12.3164 150.664 11.8711 150.508 11.5664C150.359 11.2539 150.141 11.0391 149.852 10.9219C149.57 10.7969 149.234 10.7344 148.844 10.7344C148.438 10.7344 148.082 10.8164 147.777 10.9805C147.473 11.1367 147.219 11.3555 147.016 11.6367C146.812 11.918 146.66 12.2461 146.559 12.6211C146.457 12.9883 146.406 13.3906 146.406 13.8281ZM162.578 21.2344C161.594 21.2344 160.711 21.0781 159.93 20.7656C159.148 20.4453 158.484 20.0039 157.938 19.4414C157.398 18.8789 156.984 18.2266 156.695 17.4844C156.406 16.7344 156.262 15.9375 156.262 15.0938V14.625C156.262 13.6641 156.398 12.7852 156.672 11.9883C156.945 11.1914 157.336 10.5 157.844 9.91406C158.359 9.32812 158.984 8.87891 159.719 8.56641C160.453 8.24609 161.281 8.08594 162.203 8.08594C163.102 8.08594 163.898 8.23438 164.594 8.53125C165.289 8.82812 165.871 9.25 166.34 9.79688C166.816 10.3438 167.176 11 167.418 11.7656C167.66 12.5234 167.781 13.3672 167.781 14.2969V15.7031H157.703V13.4531H164.465V13.1953C164.465 12.7266 164.379 12.3086 164.207 11.9414C164.043 11.5664 163.793 11.2695 163.457 11.0508C163.121 10.832 162.691 10.7227 162.168 10.7227C161.723 10.7227 161.34 10.8203 161.02 11.0156C160.699 11.2109 160.438 11.4844 160.234 11.8359C160.039 12.1875 159.891 12.6016 159.789 13.0781C159.695 13.5469 159.648 14.0625 159.648 14.625V15.0938C159.648 15.6016 159.719 16.0703 159.859 16.5C160.008 16.9297 160.215 17.3008 160.48 17.6133C160.754 17.9258 161.082 18.168 161.465 18.3398C161.855 18.5117 162.297 18.5977 162.789 18.5977C163.398 18.5977 163.965 18.4805 164.488 18.2461C165.02 18.0039 165.477 17.6406 165.859 17.1562L167.5 18.9375C167.234 19.3203 166.871 19.6875 166.41 20.0391C165.957 20.3906 165.41 20.6797 164.77 20.9062C164.129 21.125 163.398 21.2344 162.578 21.2344ZM176.559 17.4961C176.559 17.2539 176.488 17.0352 176.348 16.8398C176.207 16.6445 175.945 16.4648 175.562 16.3008C175.188 16.1289 174.645 15.9727 173.934 15.832C173.293 15.6914 172.695 15.5156 172.141 15.3047C171.594 15.0859 171.117 14.8242 170.711 14.5195C170.312 14.2148 170 13.8555 169.773 13.4414C169.547 13.0195 169.434 12.5391 169.434 12C169.434 11.4688 169.547 10.9688 169.773 10.5C170.008 10.0312 170.34 9.61719 170.77 9.25781C171.207 8.89062 171.738 8.60547 172.363 8.40234C172.996 8.19141 173.707 8.08594 174.496 8.08594C175.598 8.08594 176.543 8.26172 177.332 8.61328C178.129 8.96484 178.738 9.44922 179.16 10.0664C179.59 10.6758 179.805 11.3711 179.805 12.1523H176.43C176.43 11.8242 176.359 11.5312 176.219 11.2734C176.086 11.0078 175.875 10.8008 175.586 10.6523C175.305 10.4961 174.938 10.418 174.484 10.418C174.109 10.418 173.785 10.4844 173.512 10.6172C173.238 10.7422 173.027 10.9141 172.879 11.1328C172.738 11.3438 172.668 11.5781 172.668 11.8359C172.668 12.0312 172.707 12.207 172.785 12.3633C172.871 12.5117 173.008 12.6484 173.195 12.7734C173.383 12.8984 173.625 13.0156 173.922 13.125C174.227 13.2266 174.602 13.3203 175.047 13.4062C175.961 13.5938 176.777 13.8398 177.496 14.1445C178.215 14.4414 178.785 14.8477 179.207 15.3633C179.629 15.8711 179.84 16.5391 179.84 17.3672C179.84 17.9297 179.715 18.4453 179.465 18.9141C179.215 19.3828 178.855 19.793 178.387 20.1445C177.918 20.4883 177.355 20.7578 176.699 20.9531C176.051 21.1406 175.32 21.2344 174.508 21.2344C173.328 21.2344 172.328 21.0234 171.508 20.6016C170.695 20.1797 170.078 19.6445 169.656 18.9961C169.242 18.3398 169.035 17.668 169.035 16.9805H172.234C172.25 17.4414 172.367 17.8125 172.586 18.0938C172.812 18.375 173.098 18.5781 173.441 18.7031C173.793 18.8281 174.172 18.8906 174.578 18.8906C175.016 18.8906 175.379 18.832 175.668 18.7148C175.957 18.5898 176.176 18.4258 176.324 18.2227C176.48 18.0117 176.559 17.7695 176.559 17.4961Z" fill="#C1C7CD"/>
<path d="M131.443 35H130.359V27.9922C130.359 27.5352 130.441 27.1504 130.605 26.8379C130.773 26.5215 131.014 26.2832 131.326 26.123C131.639 25.959 132.01 25.877 132.439 25.877C132.564 25.877 132.689 25.8848 132.814 25.9004C132.943 25.916 133.068 25.9395 133.189 25.9707L133.131 26.8555C133.049 26.8359 132.955 26.8223 132.85 26.8145C132.748 26.8066 132.646 26.8027 132.545 26.8027C132.314 26.8027 132.115 26.8496 131.947 26.9434C131.783 27.0332 131.658 27.166 131.572 27.3418C131.486 27.5176 131.443 27.7344 131.443 27.9922V35ZM132.791 28.6602V29.4922H129.357V28.6602H132.791ZM133.711 31.9004V31.7656C133.711 31.3086 133.777 30.8848 133.91 30.4941C134.043 30.0996 134.234 29.7578 134.484 29.4688C134.734 29.1758 135.037 28.9492 135.393 28.7891C135.748 28.625 136.146 28.543 136.588 28.543C137.033 28.543 137.434 28.625 137.789 28.7891C138.148 28.9492 138.453 29.1758 138.703 29.4688C138.957 29.7578 139.15 30.0996 139.283 30.4941C139.416 30.8848 139.482 31.3086 139.482 31.7656V31.9004C139.482 32.3574 139.416 32.7812 139.283 33.1719C139.15 33.5625 138.957 33.9043 138.703 34.1973C138.453 34.4863 138.15 34.7129 137.795 34.877C137.443 35.0371 137.045 35.1172 136.6 35.1172C136.154 35.1172 135.754 35.0371 135.398 34.877C135.043 34.7129 134.738 34.4863 134.484 34.1973C134.234 33.9043 134.043 33.5625 133.91 33.1719C133.777 32.7812 133.711 32.3574 133.711 31.9004ZM134.795 31.7656V31.9004C134.795 32.2168 134.832 32.5156 134.906 32.7969C134.98 33.0742 135.092 33.3203 135.24 33.5352C135.393 33.75 135.582 33.9199 135.809 34.0449C136.035 34.166 136.299 34.2266 136.6 34.2266C136.896 34.2266 137.156 34.166 137.379 34.0449C137.605 33.9199 137.793 33.75 137.941 33.5352C138.09 33.3203 138.201 33.0742 138.275 32.7969C138.354 32.5156 138.393 32.2168 138.393 31.9004V31.7656C138.393 31.4531 138.354 31.1582 138.275 30.8809C138.201 30.5996 138.088 30.3516 137.936 30.1367C137.787 29.918 137.6 29.7461 137.373 29.6211C137.15 29.4961 136.889 29.4336 136.588 29.4336C136.291 29.4336 136.029 29.4961 135.803 29.6211C135.58 29.7461 135.393 29.918 135.24 30.1367C135.092 30.3516 134.98 30.5996 134.906 30.8809C134.832 31.1582 134.795 31.4531 134.795 31.7656ZM141.926 29.6562V35H140.842V28.6602H141.896L141.926 29.6562ZM143.906 28.625L143.9 29.6328C143.811 29.6133 143.725 29.6016 143.643 29.5977C143.564 29.5898 143.475 29.5859 143.373 29.5859C143.123 29.5859 142.902 29.625 142.711 29.7031C142.52 29.7812 142.357 29.8906 142.225 30.0312C142.092 30.1719 141.986 30.3398 141.908 30.5352C141.834 30.7266 141.785 30.9375 141.762 31.168L141.457 31.3438C141.457 30.9609 141.494 30.6016 141.568 30.2656C141.646 29.9297 141.766 29.6328 141.926 29.375C142.086 29.1133 142.289 28.9102 142.535 28.7656C142.785 28.6172 143.082 28.543 143.426 28.543C143.504 28.543 143.594 28.5527 143.695 28.5723C143.797 28.5879 143.867 28.6055 143.906 28.625ZM149.18 26.4688V35H148.049V26.4688H149.18ZM152.754 30.3066V31.2324H148.934V30.3066H152.754ZM153.334 26.4688V27.3945H148.934V26.4688H153.334ZM155.695 28.6602V35H154.605V28.6602H155.695ZM154.523 26.9785C154.523 26.8027 154.576 26.6543 154.682 26.5332C154.791 26.4121 154.951 26.3516 155.162 26.3516C155.369 26.3516 155.527 26.4121 155.637 26.5332C155.75 26.6543 155.807 26.8027 155.807 26.9785C155.807 27.1465 155.75 27.291 155.637 27.4121C155.527 27.5293 155.369 27.5879 155.162 27.5879C154.951 27.5879 154.791 27.5293 154.682 27.4121C154.576 27.291 154.523 27.1465 154.523 26.9785ZM161.543 28.6602H162.527V34.8652C162.527 35.4238 162.414 35.9004 162.188 36.2949C161.961 36.6895 161.645 36.9883 161.238 37.1914C160.836 37.3984 160.371 37.502 159.844 37.502C159.625 37.502 159.367 37.4668 159.07 37.3965C158.777 37.3301 158.488 37.2148 158.203 37.0508C157.922 36.8906 157.686 36.6738 157.494 36.4004L158.062 35.7559C158.328 36.0762 158.605 36.2988 158.895 36.4238C159.188 36.5488 159.477 36.6113 159.762 36.6113C160.105 36.6113 160.402 36.5469 160.652 36.418C160.902 36.2891 161.096 36.0977 161.232 35.8438C161.373 35.5938 161.443 35.2852 161.443 34.918V30.0547L161.543 28.6602ZM157.178 31.9004V31.7773C157.178 31.293 157.234 30.8535 157.348 30.459C157.465 30.0605 157.631 29.7188 157.846 29.4336C158.064 29.1484 158.328 28.9297 158.637 28.7773C158.945 28.6211 159.293 28.543 159.68 28.543C160.078 28.543 160.426 28.6133 160.723 28.7539C161.023 28.8906 161.277 29.0918 161.484 29.3574C161.695 29.6191 161.861 29.9355 161.982 30.3066C162.104 30.6777 162.188 31.0977 162.234 31.5664V32.1055C162.191 32.5703 162.107 32.9883 161.982 33.3594C161.861 33.7305 161.695 34.0469 161.484 34.3086C161.277 34.5703 161.023 34.7715 160.723 34.9121C160.422 35.0488 160.07 35.1172 159.668 35.1172C159.289 35.1172 158.945 35.0371 158.637 34.877C158.332 34.7168 158.07 34.4922 157.852 34.2031C157.633 33.9141 157.465 33.5742 157.348 33.1836C157.234 32.7891 157.178 32.3613 157.178 31.9004ZM158.262 31.7773V31.9004C158.262 32.2168 158.293 32.5137 158.355 32.791C158.422 33.0684 158.521 33.3125 158.654 33.5234C158.791 33.7344 158.965 33.9004 159.176 34.0215C159.387 34.1387 159.639 34.1973 159.932 34.1973C160.291 34.1973 160.588 34.1211 160.822 33.9688C161.057 33.8164 161.242 33.6152 161.379 33.3652C161.52 33.1152 161.629 32.8438 161.707 32.5508V31.1387C161.664 30.9238 161.598 30.7168 161.508 30.5176C161.422 30.3145 161.309 30.1348 161.168 29.9785C161.031 29.8184 160.861 29.6914 160.658 29.5977C160.455 29.5039 160.217 29.457 159.943 29.457C159.646 29.457 159.391 29.5195 159.176 29.6445C158.965 29.7656 158.791 29.9336 158.654 30.1484C158.521 30.3594 158.422 30.6055 158.355 30.8867C158.293 31.1641 158.262 31.4609 158.262 31.7773ZM165.252 29.9199V35H164.162V28.6602H165.193L165.252 29.9199ZM165.029 31.5898L164.525 31.5723C164.529 31.1387 164.586 30.7383 164.695 30.3711C164.805 30 164.967 29.6777 165.182 29.4043C165.396 29.1309 165.664 28.9199 165.984 28.7715C166.305 28.6191 166.676 28.543 167.098 28.543C167.395 28.543 167.668 28.5859 167.918 28.6719C168.168 28.7539 168.385 28.8848 168.568 29.0645C168.752 29.2441 168.895 29.4746 168.996 29.7559C169.098 30.0371 169.148 30.377 169.148 30.7754V35H168.064V30.8281C168.064 30.4961 168.008 30.2305 167.895 30.0312C167.785 29.832 167.629 29.6875 167.426 29.5977C167.223 29.5039 166.984 29.457 166.711 29.457C166.391 29.457 166.123 29.5137 165.908 29.627C165.693 29.7402 165.521 29.8965 165.393 30.0957C165.264 30.2949 165.17 30.5234 165.111 30.7812C165.057 31.0352 165.029 31.3047 165.029 31.5898ZM169.137 30.9922L168.41 31.2148C168.414 30.8672 168.471 30.5332 168.58 30.2129C168.693 29.8926 168.855 29.6074 169.066 29.3574C169.281 29.1074 169.545 28.9102 169.857 28.7656C170.17 28.6172 170.527 28.543 170.93 28.543C171.27 28.543 171.57 28.5879 171.832 28.6777C172.098 28.7676 172.32 28.9062 172.5 29.0938C172.684 29.2773 172.822 29.5137 172.916 29.8027C173.01 30.0918 173.057 30.4355 173.057 30.834V35H171.967V30.8223C171.967 30.4668 171.91 30.1914 171.797 29.9961C171.688 29.7969 171.531 29.6582 171.328 29.5801C171.129 29.498 170.891 29.457 170.613 29.457C170.375 29.457 170.164 29.498 169.98 29.5801C169.797 29.6621 169.643 29.7754 169.518 29.9199C169.393 30.0605 169.297 30.2227 169.23 30.4062C169.168 30.5898 169.137 30.7852 169.137 30.9922ZM178.436 33.916V30.6523C178.436 30.4023 178.385 30.1855 178.283 30.002C178.186 29.8145 178.037 29.6699 177.838 29.5684C177.639 29.4668 177.393 29.416 177.1 29.416C176.826 29.416 176.586 29.4629 176.379 29.5566C176.176 29.6504 176.016 29.7734 175.898 29.9258C175.785 30.0781 175.729 30.2422 175.729 30.418H174.645C174.645 30.1914 174.703 29.9668 174.82 29.7441C174.938 29.5215 175.105 29.3203 175.324 29.1406C175.547 28.957 175.812 28.8125 176.121 28.707C176.434 28.5977 176.781 28.543 177.164 28.543C177.625 28.543 178.031 28.6211 178.383 28.7773C178.738 28.9336 179.016 29.1699 179.215 29.4863C179.418 29.7988 179.52 30.1914 179.52 30.6641V33.6172C179.52 33.8281 179.537 34.0527 179.572 34.291C179.611 34.5293 179.668 34.7344 179.742 34.9062V35H178.611C178.557 34.875 178.514 34.709 178.482 34.502C178.451 34.291 178.436 34.0957 178.436 33.916ZM178.623 31.1562L178.635 31.918H177.539C177.23 31.918 176.955 31.9434 176.713 31.9941C176.471 32.041 176.268 32.1133 176.104 32.2109C175.939 32.3086 175.814 32.4316 175.729 32.5801C175.643 32.7246 175.6 32.8945 175.6 33.0898C175.6 33.2891 175.645 33.4707 175.734 33.6348C175.824 33.7988 175.959 33.9297 176.139 34.0273C176.322 34.1211 176.547 34.168 176.812 34.168C177.145 34.168 177.438 34.0977 177.691 33.957C177.945 33.8164 178.146 33.6445 178.295 33.4414C178.447 33.2383 178.529 33.041 178.541 32.8496L179.004 33.3711C178.977 33.5352 178.902 33.7168 178.781 33.916C178.66 34.1152 178.498 34.3066 178.295 34.4902C178.096 34.6699 177.857 34.8203 177.58 34.9414C177.307 35.0586 176.998 35.1172 176.654 35.1172C176.225 35.1172 175.848 35.0332 175.523 34.8652C175.203 34.6973 174.953 34.4727 174.773 34.1914C174.598 33.9062 174.51 33.5879 174.51 33.2363C174.51 32.8965 174.576 32.5977 174.709 32.3398C174.842 32.0781 175.033 31.8613 175.283 31.6895C175.533 31.5137 175.834 31.3809 176.186 31.291C176.537 31.2012 176.93 31.1562 177.363 31.1562H178.623Z" fill="#C1C7CD"/>
</svg>
