<svg width="49" height="48" viewBox="0 0 49 48" fill="none" xmlns="http://www.w3.org/2000/svg">
<path d="M34.5 20V36H30.5V20H18.5V36H14.5V20C12.9087 20 11.3826 20.6321 10.2574 21.7574C9.13214 22.8826 8.5 24.4087 8.5 26V30C8.5 31.5913 9.13214 33.1174 10.2574 34.2426C11.3826 35.3679 12.9087 36 14.5 36H34.5C36.0913 36 37.6174 35.3679 38.7426 34.2426C39.8679 33.1174 40.5 31.5913 40.5 30V26C40.5 24.4087 39.8679 22.8826 38.7426 21.7574C37.6174 20.6321 36.0913 20 34.5 20ZM18.84 16H30.16C29.744 14.8317 28.9767 13.8207 27.9634 13.1058C26.95 12.3908 25.7402 12.0071 24.5 12.0071C23.2598 12.0071 22.05 12.3908 21.0366 13.1058C20.0233 13.8207 19.256 14.8317 18.84 16ZM14.7 16C15.163 13.7427 16.391 11.7145 18.1765 10.258C19.9621 8.80144 22.1957 8.00598 24.5 8.00598C26.8043 8.00598 29.0379 8.80144 30.8235 10.258C32.609 11.7145 33.837 13.7427 34.3 16H34.5C37.1522 16 39.6957 17.0536 41.5711 18.9289C43.4464 20.8043 44.5 23.3478 44.5 26V30C44.5 32.6522 43.4464 35.1957 41.5711 37.0711C39.6957 38.9464 37.1522 40 34.5 40H14.5C11.8478 40 9.3043 38.9464 7.42893 37.0711C5.55357 35.1957 4.5 32.6522 4.5 30V26C4.5 23.3478 5.55357 20.8043 7.42893 18.9289C9.3043 17.0536 11.8478 16 14.5 16H14.7Z" fill="#C1C7CD"/>
</svg>
