<svg width="24" height="24" viewBox="0 0 24 24" fill="none" xmlns="http://www.w3.org/2000/svg">
<path d="M13.4 11.4004V6.40039C13.4 6.13517 13.2947 5.88082 13.1071 5.69328C12.9196 5.50575 12.6652 5.40039 12.4 5.40039C12.1348 5.40039 11.8805 5.50575 11.6929 5.69328C11.5054 5.88082 11.4 6.13517 11.4 6.40039V11.4004H6.40002C6.13481 11.4004 5.88045 11.5057 5.69292 11.6933C5.50538 11.8808 5.40002 12.1352 5.40002 12.4004C5.40002 12.6656 5.50538 12.92 5.69292 13.1075C5.88045 13.295 6.13481 13.4004 6.40002 13.4004H11.4V18.4004C11.4 18.6656 11.5054 18.92 11.6929 19.1075C11.8805 19.295 12.1348 19.4004 12.4 19.4004C12.6652 19.4004 12.9196 19.295 13.1071 19.1075C13.2947 18.92 13.4 18.6656 13.4 18.4004V13.4004H18.4C18.6652 13.4004 18.9196 13.295 19.1071 13.1075C19.2947 12.92 19.4 12.6656 19.4 12.4004C19.4 12.1352 19.2947 11.8808 19.1071 11.6933C18.9196 11.5057 18.6652 11.4004 18.4 11.4004H13.4Z" fill="#21272A"/>
</svg>
