<svg width="40" height="48" viewBox="0 0 40 48" fill="none" xmlns="http://www.w3.org/2000/svg">
<path d="M21.4 23.4V18.4C21.4 18.1348 21.2947 17.8804 21.1071 17.6929C20.9196 17.5054 20.6652 17.4 20.4 17.4C20.1348 17.4 19.8805 17.5054 19.6929 17.6929C19.5054 17.8804 19.4 18.1348 19.4 18.4V23.4H14.4C14.1348 23.4 13.8805 23.5054 13.6929 23.6929C13.5054 23.8804 13.4 24.1348 13.4 24.4C13.4 24.6652 13.5054 24.9196 13.6929 25.1071C13.8805 25.2946 14.1348 25.4 14.4 25.4H19.4V30.4C19.4 30.6652 19.5054 30.9196 19.6929 31.1071C19.8805 31.2946 20.1348 31.4 20.4 31.4C20.6652 31.4 20.9196 31.2946 21.1071 31.1071C21.2947 30.9196 21.4 30.6652 21.4 30.4V25.4H26.4C26.6652 25.4 26.9196 25.2946 27.1071 25.1071C27.2947 24.9196 27.4 24.6652 27.4 24.4C27.4 24.1348 27.2947 23.8804 27.1071 23.6929C26.9196 23.5054 26.6652 23.4 26.4 23.4H21.4Z" fill="#0F62FE"/>
</svg>
