<svg width="24" height="24" viewBox="0 0 24 24" fill="none" xmlns="http://www.w3.org/2000/svg">
<path d="M10.5 16.4995C11.2879 16.4995 12.0682 16.3443 12.7961 16.0428C13.5241 15.7413 14.1855 15.2993 14.7427 14.7422C15.2998 14.185 15.7418 13.5236 16.0433 12.7956C16.3448 12.0677 16.5 11.2875 16.5 10.4995C16.5 9.7116 16.3448 8.93138 16.0433 8.20343C15.7418 7.47547 15.2998 6.81404 14.7427 6.25689C14.1855 5.69973 13.5241 5.25778 12.7961 4.95625C12.0682 4.65472 11.2879 4.49953 10.5 4.49953C8.90872 4.49953 7.38259 5.13167 6.25737 6.25689C5.13216 7.3821 4.50002 8.90823 4.50002 10.4995C4.50002 12.0908 5.13216 13.6169 6.25737 14.7422C7.38259 15.8674 8.90872 16.4995 10.5 16.4995ZM16.82 15.4055L20.4 18.9855C20.4955 19.0778 20.5716 19.1882 20.6239 19.3103C20.6762 19.4323 20.7037 19.5636 20.7048 19.6963C20.7058 19.8291 20.6804 19.9608 20.63 20.0836C20.5797 20.2065 20.5053 20.3181 20.4114 20.4119C20.3174 20.5057 20.2057 20.5799 20.0828 20.6301C19.9599 20.6803 19.8282 20.7055 19.6954 20.7043C19.5626 20.703 19.4314 20.6753 19.3095 20.6229C19.1875 20.5704 19.0772 20.4941 18.985 20.3985L15.405 16.8185C13.7975 18.0664 11.7748 18.6547 9.74877 18.4637C7.72273 18.2727 5.84562 17.3168 4.49957 15.7906C3.15351 14.2643 2.4397 12.2825 2.50344 10.2485C2.56718 8.21443 3.40368 6.28115 4.84266 4.84217C6.28164 3.4032 8.21492 2.56669 10.2489 2.50295C12.283 2.43921 14.2648 3.15302 15.7911 4.49908C17.3173 5.84513 18.2732 7.72224 18.4642 9.74828C18.6552 11.7743 18.0669 13.797 16.819 15.4045L16.82 15.4055Z" fill="#697077"/>
</svg>
