<svg width="125" height="32" viewBox="0 0 125 32" fill="none" xmlns="http://www.w3.org/2000/svg">
<path fill-rule="evenodd" clip-rule="evenodd" d="M0.220825 16.3482L0.222369 16.1879L0.225553 16.0275L0.230385 15.8671L0.236857 15.7067L0.244985 15.5463L0.254753 15.3859L0.266177 15.2256L0.279241 15.0653L0.293961 14.905L0.310329 14.7448L0.328345 14.5848L0.348001 14.4248L0.369313 14.265L0.392273 14.1053L0.416873 13.9458L0.443121 13.7865L0.471017 13.6273L0.500545 13.4684L0.531721 13.3097L0.564537 13.1512L0.598993 12.993L0.635073 12.835L0.672801 12.6774L0.712145 12.5201L0.753129 12.3631L0.795729 12.2064L0.839961 12.0501L0.885809 11.8942L0.933273 11.7386L0.982345 11.5835L1.03303 11.4288L1.08533 11.2745L1.13923 11.1206L1.19471 10.9673L1.2518 10.8144L1.31047 10.662L1.37074 10.5102L1.43258 10.3588L1.49599 10.2081L1.56098 10.0578L1.62753 9.90816L1.69564 9.75912L1.76531 9.61072L1.83652 9.46288L1.90928 9.31568L1.98358 9.1692L2.0594 9.02336L2.13675 8.87816L2.21562 8.73376L2.29599 8.59L2.37788 8.44696L2.46126 8.30472L2.54613 8.1632L2.63248 8.02248L2.72031 7.88256L2.80961 7.74344L2.90037 7.6052L2.99259 7.46768L3.08624 7.33112L3.18134 7.19536L3.27786 7.06048L3.37579 6.92656L3.47515 6.79344L3.5759 6.66136L3.67805 6.53016L3.78158 6.39987L3.88648 6.27059L3.99275 6.14229L4.10038 6.01498L4.20935 5.88866L4.31967 5.76338L4.4313 5.63913L4.54425 5.51592L4.65851 5.39378L4.77407 5.2727L4.89091 5.15272L5.00902 5.03383L5.12839 4.91606L5.24902 4.79941L5.3709 4.6839L5.494 4.56954L5.61832 4.45634L5.74385 4.34433L5.87058 4.2335L5.99849 4.12386L6.12757 4.01544L6.25781 3.90825L6.3892 3.80229L6.52173 3.69758L6.65539 3.59412L6.79011 3.49194L6.92603 3.39104L7.06299 3.29144L7.20098 3.19314L7.34003 3.09616L7.48019 3.0005L7.6213 2.90618L7.76347 2.81321L7.90667 2.72159L8.0509 2.63135L8.19603 2.54249L8.34219 2.45501L8.48923 2.36894L8.63723 2.28427L8.78619 2.20102L8.93603 2.11921L9.08675 2.03882L9.23835 1.9599L9.39083 1.88242L9.54418 1.80641L9.69835 1.73187L9.85338 1.65882L10.0091 1.58726L10.1658 1.5172L10.3231 1.44865L10.4813 1.38162L10.6402 1.31611L10.7998 1.25214L10.9601 1.1897L11.1211 1.12882L11.2828 1.06948L11.4452 1.01172L11.6083 0.95552L11.7719 0.900896L11.9362 0.847864L12.1011 0.796416L12.2666 0.746568L12.4327 0.698328L12.5992 0.651696L12.7664 0.606672L12.9341 0.563272L13.1023 0.521504L13.2709 0.481376L13.4401 0.442872L13.6097 0.406024L13.7797 0.370816L13.9502 0.337264L14.1211 0.305376L14.2923 0.275144L14.464 0.246584L14.636 0.219696L14.8083 0.19448L14.981 0.170952L15.1539 0.149104L15.3272 0.128944L15.5007 0.110464L15.6745 0.093696L15.8485 0.078616L16.0227 0.0652321L16.1971 0.0535601L17.1351 0L17.1886 4.51894L17.2192 4.51858L17.3487 4.5184L17.4783 4.51949L17.6078 4.52185L17.7375 4.52549L17.8671 4.5304L17.9967 4.53658L18.1264 4.54404L18.2561 4.55278L18.3857 4.56279L18.5154 4.57409L18.6449 4.58666L18.7744 4.60052L18.9038 4.61565L19.0331 4.63206L19.1623 4.64974L19.2915 4.6687L19.4204 4.68895L19.5493 4.71047L19.6779 4.73326L19.8065 4.75734L19.9348 4.78268L20.0629 4.8093L20.1909 4.83719L20.3186 4.86635L20.446 4.89678L20.5733 4.92847L20.7003 4.96144L20.8269 4.99566L20.9533 5.03115L21.0795 5.0679L21.2052 5.1059L21.3307 5.14515L21.4558 5.18566L21.5806 5.22742L21.705 5.27042L21.829 5.31467L21.9527 5.36015L22.0759 5.40688L22.1987 5.45483L22.3211 5.50402L22.443 5.55444L22.5644 5.60607L22.6855 5.65893L22.806 5.713L22.926 5.76828L23.0455 5.82476L23.1646 5.88245L23.2831 5.94134L23.401 6.00142L23.5183 6.06268L23.6351 6.12513L23.7514 6.18876L23.867 6.25356L23.982 6.31953L24.0964 6.38666L24.2102 6.45496L24.3233 6.5244L24.4358 6.59496L24.5475 6.66672L24.6587 6.73952L24.7691 6.81352L24.8788 6.88864L24.9878 6.9648L25.0961 7.04216L25.2036 7.12056L25.3103 7.20008L25.4164 7.28072L25.5216 7.3624L25.6261 7.4452L25.7297 7.52896L25.8326 7.61384L25.9346 7.69984L26.0358 7.7868L26.1362 7.8748L26.2357 7.96384L26.3343 8.05392L26.432 8.14504L26.5289 8.23712L26.6249 8.33016L26.7199 8.42424L26.8141 8.51928L26.9073 8.61536L26.9996 8.71232L27.0909 8.81024L27.1813 8.90912L27.2707 9.00896L27.3591 9.10968L27.4465 9.21136L27.5329 9.31392L27.6183 9.41736L27.7027 9.52176L27.7861 9.62696L27.8684 9.73304L27.9497 9.84L28.0299 9.94784L28.1091 10.0565L28.1871 10.166L28.2641 10.2763L28.34 10.3874L28.4148 10.4993L28.4885 10.612L28.5611 10.7255L28.6324 10.8398L28.7027 10.9547L28.7719 11.0705L28.8399 11.187L28.9067 11.3042L28.9723 11.4221L29.0368 11.5407L29.1001 11.66L29.1622 11.78L29.2231 11.9006L29.2827 12.0219L29.3412 12.1439L29.3985 12.2665L29.4545 12.3897L29.5093 12.5135L29.5628 12.6379L29.6151 12.763L29.6661 12.8885L29.7159 13.0146L29.7643 13.1413L29.8115 13.2686L29.8575 13.3962L29.9021 13.5246L29.9455 13.6533L29.9875 13.7826L30.0283 13.9122L30.0677 14.0424L30.1058 14.173L30.1426 14.3041L30.178 14.4356L30.2122 14.5675L30.2449 14.6998L30.2764 14.8325L30.3065 14.9655L30.3352 15.099L30.3627 15.2326L30.3887 15.3668L30.4133 15.5012L30.4367 15.6359L30.4586 15.7709L30.4791 15.9062L30.4983 16.0418L30.5161 16.1775L30.5325 16.3136L30.5475 16.4498L30.5611 16.5863L30.5734 16.723L30.5843 16.8598L30.5937 16.9969L30.6017 17.1341L30.6083 17.2714L30.6136 17.4089L30.6174 17.5464L30.6199 17.6841L30.6208 17.8218L30.6204 17.9597L30.6186 18.0976L30.6153 18.2356L30.6107 18.3735L30.6046 18.5115L30.5971 18.6495L30.5882 18.7875L30.5779 18.9255L30.5661 19.0634L30.5529 19.2014L30.5383 19.3392L30.5223 19.4769L30.5048 19.6146L30.486 19.7521L30.4657 19.8895L30.444 20.0268L30.4209 20.1639L30.3963 20.3009L30.3704 20.4377L30.3431 20.5743L30.3143 20.7107L30.284 20.8469L30.2524 20.9829L30.2195 21.1186L30.185 21.254L30.1491 21.3891L30.1119 21.524L30.0733 21.6586L30.0333 21.7928L29.9919 21.9268L29.949 22.0603L29.9048 22.1936L29.8592 22.3264L29.8122 22.4589L29.7639 22.591L29.7141 22.7226L29.663 22.8538L29.6105 22.9846L29.5567 23.1149L29.5015 23.2447L29.4449 23.3742L29.387 23.503L29.3277 23.6314L29.2671 23.7592L29.2051 23.8865L29.1418 24.0133L29.0772 24.1394L29.0112 24.2651L28.944 24.3901L28.8754 24.5146L28.8055 24.6383L28.7343 24.7615L28.6619 24.8841L28.5881 25.0059L28.5131 25.1272L28.4367 25.2477L28.3591 25.3675L28.2803 25.4866L28.2001 25.605L28.1187 25.7227L28.0361 25.8397L27.9523 25.9558L27.8671 26.0713L27.7808 26.1859L27.6933 26.2998L27.6046 26.4127L27.5147 26.525L27.4235 26.6363L27.3312 26.7468L27.2377 26.8565L27.1431 26.9653L27.0472 27.0732L26.9503 27.1802L26.8522 27.2864L26.753 27.3916L26.6526 27.4959L26.5511 27.5992L26.4485 27.7016L26.3448 27.803L26.2401 27.9035L26.1343 28.003L26.0274 28.1015L25.9194 28.199L25.8103 28.2954L25.7003 28.3909L25.5892 28.4854L25.4771 28.5787L25.364 28.671L25.2499 28.7622L25.1348 28.8524L25.0187 28.9414L24.9017 29.0294L24.7837 29.1162L24.6648 29.202L24.5449 29.2866L24.4241 29.3701L24.3024 29.4524L24.1799 29.5335L24.0563 29.6135L23.932 29.6924L23.8068 29.77L23.6807 29.8465L23.5538 29.9217L23.426 29.9958L23.2975 30.0686L23.1681 30.1401L23.038 30.2105L22.9071 30.2795L22.7754 30.3474L22.6429 30.414L22.5097 30.4793L22.3758 30.5433L22.2411 30.6061L22.1058 30.6675L21.9698 30.7277L21.8331 30.7865L21.6957 30.844L21.5577 30.9002L21.4191 30.9551L21.2798 31.0086L21.1399 31.0609L20.9994 31.1117L20.8583 31.1612L20.7167 31.2093L20.5745 31.2561L20.4317 31.3014L20.2884 31.3454L20.1447 31.3881L20.0004 31.4293L19.8556 31.4691L19.7104 31.5076L19.5647 31.5446L19.4186 31.5802L19.272 31.6144L19.125 31.6471L18.9776 31.6785L18.8299 31.7084L18.6817 31.7369L18.5332 31.7639L18.3844 31.7894L18.2352 31.8136L18.0858 31.8363L17.9359 31.8575L17.7859 31.8773L17.6356 31.8956L17.485 31.9124L17.3342 31.9278L17.1831 31.9417L17.0319 31.9541L16.8805 31.965L16.7289 31.9745L16.5771 31.9825L16.4251 31.989L16.2731 31.9939L16.1209 31.9974L15.9687 31.9994L15.8163 32L15.6639 31.999L15.5114 31.9966L15.3588 31.9926L15.2063 31.9871L15.0537 31.9802L14.9011 31.9718L14.7487 31.9618L14.5961 31.9503L14.4437 31.9374L14.2913 31.9229L14.139 31.907L13.9868 31.8895L13.8347 31.8706L13.6827 31.8501L13.531 31.8281L13.3793 31.8046L13.2279 31.7797L13.0766 31.7533L12.9255 31.7253L12.7747 31.6958L12.624 31.665L12.4737 31.6325L12.3235 31.5986L12.1738 31.5632L12.0243 31.5263L11.8751 31.4879L11.7262 31.4481L11.5777 31.4068L11.4295 31.364L11.2817 31.3198L11.1343 31.274L10.9874 31.2268L10.8408 31.1782L10.6947 31.128L10.549 31.0764L10.4038 31.0234L10.2591 30.969L10.1148 30.913L9.97114 30.8557L9.82794 30.7969L9.68531 30.7366L9.54323 30.675L9.40171 30.612L9.26075 30.5475L9.12043 30.4816L8.98075 30.4143L8.84171 30.3456L8.70323 30.2755L8.56547 30.2041L8.42842 30.1312L8.29195 30.057L8.15627 29.9814L8.02131 29.9045L7.88707 29.8262L7.75355 29.7465L7.62083 29.6655L7.48883 29.5831L7.35763 29.4995L7.2273 29.4145L7.09771 29.3282L6.96899 29.2406L6.84115 29.1517L6.71411 29.0615L6.58795 28.97L6.46269 28.8773L6.33832 28.7832L6.21487 28.6879L6.09235 28.5914L5.97075 28.4936L5.85012 28.3946L5.73045 28.2944L5.61175 28.193L5.49405 28.0903L5.37735 27.9864L5.26167 27.8814L5.14703 27.7752L5.03341 27.6678L4.92086 27.5593L4.80937 27.4495L4.69895 27.3387L4.58963 27.2268L4.48142 27.1137L4.37431 26.9995L4.26834 26.8842L4.16351 26.7678L4.05982 26.6504L3.95729 26.5319L3.85594 26.4123L3.75577 26.2918L3.6568 26.1701L3.55903 26.0474L3.46249 25.9238L3.36717 25.7991L3.27309 25.6734L3.18026 25.5468L3.08869 25.4192L2.99839 25.2906L2.90937 25.1612L2.82164 25.0308L2.73522 24.8994L2.65011 24.7673L2.56631 24.6342L2.48384 24.5002L2.40272 24.3654L2.32295 24.2296L2.24454 24.0931L2.16749 23.9558L2.09182 23.8176L2.01754 23.6786L1.94464 23.5388L1.87316 23.3983L1.80308 23.257L1.73443 23.115L1.66721 22.9722L1.60142 22.8288L1.53707 22.6846L1.47418 22.5398L1.41275 22.3942L1.35279 22.248L1.29429 22.1011L1.23728 21.9536L1.18177 21.8055L1.12775 21.6568L1.07523 21.5075L1.02421 21.3577L0.974713 21.2072L0.926745 21.0562L0.880297 20.9047L0.835393 20.7527L0.792025 20.6002L0.750201 20.4471L0.709929 20.2937L0.671217 20.1398L0.634065 19.9854L0.598489 19.8306L0.564481 19.6753L0.532049 19.5197L0.501201 19.3637L0.471937 19.2074L0.444265 19.0506L0.418193 18.8936L0.393713 18.7362L0.370841 18.5786L0.349577 18.4206L0.329929 18.2623L0.311889 18.1038L0.295465 17.9451L0.280665 17.7862L0.267489 17.627L0.255937 17.4677L0.246017 17.3082L0.237729 17.1485L0.231073 16.9886L0.226049 16.8287L0.222665 16.6686L0.220929 16.5085L0.220825 16.3482ZM15.7233 4.61359L15.6868 1.53343L15.6522 1.53678L15.4931 1.5537L15.3345 1.57217L15.1759 1.5922L15.018 1.61372L14.8603 1.63681L14.7027 1.66144L14.5455 1.68758L14.3886 1.71529L14.2324 1.74443L14.076 1.77521L13.9207 1.80737L13.7652 1.84115L13.6105 1.87637L13.4559 1.91315L13.3021 1.95134L13.1487 1.99107L12.9956 2.03228L12.8431 2.07498L12.6912 2.1191L12.5396 2.16475L12.3888 2.21182L12.2384 2.26038L12.0888 2.31028L11.9395 2.36176L11.7909 2.41462L11.6431 2.46887L11.4956 2.52461L11.349 2.5817L11.2031 2.64018L11.0577 2.70015L10.913 2.76149L10.769 2.82422L10.6258 2.88828L10.4833 2.95373L10.3416 3.0205L10.2004 3.08874L10.0603 3.15822L9.92083 3.22906L9.78219 3.30124L9.64435 3.37475L9.50747 3.44952L9.37115 3.52567L9.23571 3.60314L9.10147 3.68172L8.96763 3.76183L8.83507 3.84301L8.70339 3.92545L8.57234 4.00924L8.44235 4.09426L8.3133 4.18051L8.18547 4.26778L8.05811 4.3566L7.93203 4.44637L7.80691 4.53738L7.68267 4.62963L7.55955 4.72298L7.43755 4.81746L7.31627 4.91326L7.19635 5.00997L7.0773 5.10795L6.95938 5.207L6.8425 5.3072L6.72683 5.40836L6.61201 5.5108L6.49851 5.61415L6.38597 5.7187L6.27474 5.82412L6.16452 5.93069L6.05553 6.03822L5.94765 6.14681L5.84082 6.25652L5.73539 6.36698L5.63114 6.4784L5.52782 6.59112L5.42593 6.70456L5.32529 6.8188L5.22568 6.93424L5.12752 7.0504L5.03045 7.1676L4.93468 7.2856L4.84017 7.40456L4.74689 7.52432L4.65498 7.64488L4.56428 7.76632L4.47483 7.88872L4.38681 8.01168L4.29997 8.13568L4.21451 8.26032L4.13038 8.38576L4.04751 8.512L3.96603 8.63896L3.8859 8.76656L3.80711 8.89496L3.72972 9.024L3.65361 9.15384L3.57887 9.2844L3.50559 9.41544L3.43363 9.5472L3.36305 9.67968L3.2939 9.81272L3.22611 9.9464L3.15977 10.0806L3.09482 10.2154L3.0313 10.3507L2.96916 10.4867L2.9085 10.6231L2.84921 10.7602L2.79137 10.8977L2.73501 11.0356L2.68006 11.1741L2.62655 11.313L2.57451 11.4524L2.52391 11.5922L2.4748 11.7324L2.42711 11.8731L2.38091 12.0142L2.33618 12.1556L2.29293 12.2973L2.25112 12.4395L2.21083 12.5819L2.172 12.7247L2.13465 12.8678L2.09879 13.0112L2.06442 13.1548L2.03154 13.2987L2.00015 13.4429L1.97025 13.5873L1.94185 13.7318L1.91494 13.8766L1.88953 14.0216L1.86562 14.1668L1.84321 14.3121L1.8223 14.4575L1.80289 14.6031L1.78498 14.7488L1.76857 14.8946L1.75367 15.0405L1.74027 15.1864L1.72836 15.3323L1.71796 15.4784L1.70907 15.6245L1.70167 15.7705L1.69577 15.9166L1.69137 16.0626L1.68847 16.2086L1.68707 16.3545L1.68716 16.5004L1.68875 16.6462L1.69183 16.7919L1.69639 16.9375L1.70245 17.083L1.71 17.2283L1.71903 17.3734L1.72954 17.5185L1.74153 17.6633L1.755 17.8079L1.76994 17.9524L1.78635 18.0966L1.80423 18.2406L1.82358 18.3842L1.84439 18.5277L1.86666 18.6709L1.89037 18.8137L1.91555 18.9562L1.94216 19.0985L1.97022 19.2403L1.99971 19.3819L2.03064 19.523L2.063 19.6638L2.09679 19.8042L2.13199 19.9442L2.16861 20.0838L2.20663 20.2229L2.24607 20.3616L2.2869 20.4998L2.32912 20.6376L2.37274 20.7749L2.41772 20.9116L2.46409 21.0478L2.51183 21.1835L2.56094 21.3187L2.61139 21.4533L2.66322 21.5874L2.71636 21.7208L2.77085 21.8537L2.82668 21.9859L2.88383 22.1175L2.9423 22.2486L3.00207 22.379L3.06315 22.5086L3.12552 22.6377L3.18919 22.766L3.25412 22.8937L3.32034 23.0206L3.38781 23.1469L3.45655 23.2724L3.52652 23.3971L3.59774 23.5211L3.67019 23.6444L3.74387 23.7668L3.81872 23.8885L3.89483 24.0094L3.97211 24.1294L4.05059 24.2486L4.13024 24.367L4.21105 24.4846L4.29302 24.6013L4.37616 24.7171L4.46042 24.8321L4.54583 24.9462L4.63233 25.0593L4.71999 25.1715L4.80869 25.2828L4.89851 25.3932L4.98944 25.5027L5.08139 25.6112L5.17443 25.7187L5.2685 25.8253L5.36364 25.9309L5.45979 26.0354L5.55693 26.139L5.65511 26.2416L5.75426 26.3432L5.85444 26.4438L5.95556 26.5432L6.05767 26.6417L6.1607 26.739L6.26467 26.8354L6.36961 26.9307L6.47544 27.0249L6.58212 27.1179L6.68979 27.2099L6.79835 27.3008L6.90762 27.3906L7.01795 27.4793L7.12898 27.5667L7.24091 27.6531L7.35363 27.7384L7.46723 27.8225L7.58155 27.9054L7.69667 27.9871L7.81251 28.0677L7.92923 28.1471L8.04659 28.2253L8.16483 28.3023L8.28363 28.3782L8.40322 28.4527L8.52355 28.5262L8.64443 28.5983L8.7661 28.6693L8.88835 28.739L9.01131 28.8074L9.13483 28.8746L9.25907 28.9406L9.38379 29.0054L9.50915 29.0689L9.63515 29.131L9.76171 29.192L9.88875 29.2517L10.0163 29.3101L10.1444 29.3671L10.2731 29.423L10.4023 29.4774L10.5319 29.5307L10.662 29.5826L10.7926 29.6332L10.9236 29.6826L11.055 29.7306L11.1868 29.7772L11.3191 29.8226L11.4518 29.8666L11.5848 29.9094L11.7181 29.9507L11.8519 29.9908L11.9859 30.0295L12.1203 30.0669L12.2551 30.103L12.39 30.1377L12.5253 30.171L12.6607 30.203L12.7966 30.2338L12.9326 30.263L13.0687 30.291L13.2052 30.3177L13.3419 30.343L13.4787 30.3669L13.6156 30.3894L13.7527 30.4106L13.89 30.4305L14.0275 30.449L14.1649 30.4662L14.3025 30.4819L14.4402 30.4963L14.5779 30.5094L14.7158 30.5211L14.8536 30.5315L14.9915 30.5405L15.1294 30.5482L15.2672 30.5544L15.4051 30.5594L15.5429 30.563L15.6807 30.5651L15.8184 30.566L15.9561 30.5655L16.0937 30.5637L16.2311 30.5606L16.3685 30.556L16.5058 30.5502L16.6429 30.543L16.7798 30.5344L16.9166 30.5246L17.0532 30.5134L17.1896 30.5008L17.3258 30.4869L17.4618 30.4717L17.5975 30.4552L17.733 30.4374L17.8682 30.4182L18.0031 30.3977L18.1378 30.3759L18.2722 30.3528L18.4063 30.3284L18.5399 30.3027L18.6733 30.2758L18.8063 30.2474L18.939 30.2179L19.0712 30.187L19.2031 30.1549L19.3346 30.1215L19.4656 30.0868L19.5962 30.0509L19.7264 30.0137L19.8561 29.9752L19.9854 29.9355L20.1141 29.8946L20.2424 29.8524L20.3702 29.809L20.4973 29.7644L20.6241 29.7185L20.7503 29.6714L20.8759 29.6231L21.0009 29.5737L21.1253 29.523L21.2491 29.4711L21.3724 29.4181L21.4951 29.3638L21.617 29.3085L21.7384 29.2519L21.8591 29.1942L21.9791 29.1354L22.0986 29.0753L22.2172 29.0142L22.3352 28.9519L22.4526 28.8885L22.5691 28.824L22.6849 28.7584L22.7999 28.6918L22.9144 28.6239L23.0279 28.5551L23.1408 28.4851L23.2527 28.4142L23.3639 28.3421L23.4744 28.269L23.5841 28.1947L23.6927 28.1197L23.8007 28.0434L23.9078 27.9662L24.014 27.8881L24.1195 27.8088L24.2239 27.7287L24.3276 27.6474L24.4303 27.5654L24.532 27.4823L24.6331 27.3982L24.7331 27.3132L24.832 27.2274L24.9302 27.1405L25.0273 27.0528L25.1235 26.9642L25.2188 26.8746L25.313 26.7843L25.4063 26.693L25.4987 26.6008L25.5899 26.5078L25.6803 26.414L25.7695 26.3194L25.8576 26.2241L25.945 26.1276L26.0311 26.0306L26.1163 25.9327L26.2003 25.8342L26.2833 25.7347L26.3652 25.6346L26.446 25.5338L26.5259 25.4321L26.6045 25.3298L26.6822 25.2267L26.7586 25.123L26.834 25.0186L26.9084 24.9134L26.9814 24.8078L27.0535 24.7013L27.1243 24.5943L27.194 24.4866L27.2627 24.3782L27.3301 24.2694L27.3963 24.1599L27.4615 24.0496L27.5254 23.9391L27.5882 23.8278L27.6499 23.716L27.7102 23.6038L27.7695 23.4909L27.8275 23.3774L27.8843 23.2639L27.9399 23.1494L27.9944 23.0346L28.0476 22.9194L28.0996 22.8037L28.1504 22.6875L28.1999 22.571L28.2483 22.4539L28.2955 22.3365L28.3413 22.219L28.3859 22.1006L28.4293 21.9822L28.4715 21.8632L28.5125 21.744L28.5522 21.6244L28.5905 21.5048L28.6278 21.3843L28.6636 21.264L28.6983 21.1433L28.7317 21.0224L28.7639 20.901L28.7947 20.7797L28.8243 20.6579L28.8527 20.5359L28.8798 20.4138L28.9056 20.2914L28.9301 20.1691L28.9534 20.0462L28.9754 19.9237L28.9961 19.8006L29.0155 19.6775L29.0337 19.5544L29.0507 19.431L29.0663 19.3078L29.0807 19.1841L29.0937 19.0608L29.1055 18.9371L29.116 18.8137L29.1253 18.6898L29.1333 18.5665L29.14 18.4427L29.1455 18.3189L29.1496 18.1954L29.1526 18.0721L29.1542 17.9483L29.1546 17.8248L29.1537 17.7014L29.1515 17.5782L29.1481 17.4549L29.1434 17.3321L29.1375 17.2088L29.1303 17.0861L29.1218 16.9634L29.1121 16.841L29.1011 16.7185L29.089 16.5965L29.0755 16.4744L29.0608 16.3527L29.0449 16.2311L29.0278 16.1099L29.0093 15.9886L28.9897 15.8679L28.9689 15.7476L28.9468 15.6272L28.9235 15.5072L28.899 15.3877L28.8732 15.2681L28.8464 15.1494L28.8182 15.0305L28.789 14.9124L28.7583 14.7942L28.7267 14.6768L28.6938 14.5596L28.6597 14.4426L28.6245 14.3264L28.5881 14.2106L28.5504 14.0948L28.5118 13.9799L28.4718 13.8651L28.4308 13.751L28.3886 13.6372L28.3453 13.5242L28.3007 13.4113L28.2551 13.299L28.2085 13.1875L28.1607 13.0765L28.1116 12.9656L28.0618 12.8558L28.0105 12.746L27.9583 12.6373L27.9051 12.529L27.8506 12.421L27.7952 12.314L27.7387 12.2074L27.681 12.1014L27.6226 11.9963L27.5628 11.8915L27.5022 11.7876L27.4403 11.6842L27.3778 11.5818L27.3139 11.4796L27.2492 11.3784L27.1834 11.2777L27.1167 11.1778L27.0491 11.0789L26.9803 10.9803L26.9106 10.8826L26.84 10.7857L26.7684 10.6896L26.6959 10.5941L26.6225 10.4995L26.5482 10.4056L26.4729 10.3126L26.3967 10.2203L26.3196 10.1288L26.2416 10.0382L26.1628 9.94832L26.0832 9.85936L26.0027 9.7712L25.9211 9.68376L25.8391 9.59752L25.7557 9.51176L25.6719 9.4272L25.5872 9.34328L25.5018 9.2604L25.4152 9.17816L25.3283 9.0972L25.2403 9.01688L25.1516 8.93752L25.0624 8.8592L24.9723 8.78176L24.8812 8.70504L24.7896 8.62944L24.6974 8.5548L24.6043 8.48112L24.5106 8.40832L24.4163 8.33672L24.3211 8.26568L24.2255 8.196L24.1291 8.1272L24.0319 8.05928L23.9344 7.99248L23.8359 7.92648L23.7373 7.86184L23.6376 7.79792L23.5376 7.73512L23.4368 7.67328L23.3356 7.61248L23.2339 7.5528L23.1317 7.49424L23.0286 7.4364L22.9255 7.37992L22.8215 7.32432L22.7171 7.26984L22.6123 7.21648L22.5068 7.16408L22.401 7.11272L22.2947 7.06256L22.1879 7.01336L22.0809 6.96536L21.9733 6.91832L21.8619 6.87096L21.7571 6.82768L21.648 6.78384L21.5391 6.74136L21.4294 6.69968L21.3196 6.65936L21.2094 6.62L21.0989 6.58184L20.9879 6.54464L20.8769 6.50872L20.7654 6.47384L20.6536 6.44008L20.5418 6.40752L20.4295 6.37597L20.3167 6.3455L20.2042 6.31628L20.0914 6.28817L19.9779 6.26109L19.8647 6.23526L19.7511 6.21046L19.6374 6.18686L19.5233 6.16433L19.4094 6.14298L19.2951 6.12274L19.181 6.10368L19.0663 6.08568L18.9519 6.06887L18.8372 6.05318L18.7224 6.03861L18.6076 6.02518L18.4928 6.01291L18.3779 6.00176L18.263 5.99174L18.1479 5.98286L18.0328 5.9751L17.918 5.96849L17.8031 5.96301L17.6879 5.95865L17.5732 5.95543L17.4583 5.95334L17.3435 5.95238L17.2286 5.95254L17.2055 5.9528L17.2418 9.01056L17.307 9.01024L17.3909 9.01072L17.4748 9.012L17.5588 9.01416L17.6429 9.01712L17.727 9.02096L17.8111 9.0256L17.8952 9.03104L17.9794 9.03736L18.0635 9.04448L18.1477 9.05248L18.2318 9.06128L18.3159 9.07096L18.4 9.08144L18.484 9.09272L18.568 9.10496L18.6519 9.11792L18.7358 9.13176L18.8196 9.14648L18.9033 9.162L18.9869 9.1784L19.0704 9.1956L19.1539 9.2136L19.2371 9.23248L19.3203 9.25224L19.4033 9.2728L19.4861 9.29416L19.5688 9.3164L19.6514 9.33944L19.7338 9.36336L19.816 9.38808L19.898 9.4136L19.9798 9.44L20.0614 9.4672L20.1428 9.49528L20.2239 9.52416L20.3049 9.55384L20.3855 9.58432L20.466 9.61568L20.5462 9.64784L20.6261 9.6808L20.7057 9.71464L20.7851 9.7492L20.8641 9.78464L20.9428 9.8208L21.0212 9.85784L21.0994 9.89568L21.1771 9.93432L21.2546 9.97376L21.3317 10.014L21.4084 10.055L21.4848 10.0968L21.5608 10.1394L21.6364 10.1827L21.7117 10.2269L21.7866 10.2718L21.861 10.3175L21.935 10.364L22.0086 10.4113L22.0818 10.4593L22.1545 10.508L22.2268 10.5575L22.2987 10.6078L22.37 10.6588L22.4409 10.7106L22.5113 10.7631L22.5813 10.8163L22.6507 10.8703L22.7196 10.925L22.788 10.9804L22.8559 11.0366L22.9233 11.0934L22.9902 11.151L23.0565 11.2092L23.1223 11.2682L23.1875 11.3278L23.252 11.3882L23.3161 11.4492L23.3795 11.5109L23.4424 11.5733L23.5047 11.6363L23.5664 11.7001L23.6275 11.7644L23.6879 11.8294L23.7478 11.8951L23.807 11.9614L23.8655 12.0283L23.9235 12.0959L23.9807 12.1641L24.0374 12.2329L24.0933 12.3023L24.1486 12.3723L24.2031 12.443L24.2571 12.5142L24.3103 12.586L24.3627 12.6583L24.4146 12.7313L24.4656 12.8048L24.516 12.8789L24.5656 12.9535L24.6145 13.0286L24.6627 13.1044L24.7101 13.1806L24.7568 13.2574L24.8027 13.3346L24.8479 13.4125L24.8923 13.4907L24.9359 13.5695L24.9787 13.6488L25.0207 13.7286L25.062 13.8088L25.1024 13.8895L25.1421 13.9707L25.181 14.0523L25.219 14.1343L25.2562 14.2169L25.2926 14.2998L25.3282 14.3831L25.3629 14.4669L25.3968 14.551L25.4299 14.6356L25.462 14.7205L25.4934 14.8058L25.5239 14.8915L25.5535 14.9776L25.5823 15.064L25.6102 15.1508L25.6372 15.2378L25.6634 15.3253L25.6887 15.413L25.7131 15.5011L25.7365 15.5895L25.7591 15.6782L25.7808 15.7671L25.8016 15.8563L25.8215 15.9458L25.8405 16.0356L25.8586 16.1256L25.8757 16.2158L25.8919 16.3064L25.9073 16.3971L25.9217 16.488L25.9351 16.5792L25.9477 16.6705L25.9593 16.762L25.97 16.8538L25.9797 16.9457L25.9885 17.0377L25.9964 17.1299L26.0033 17.2222L26.0093 17.3147L26.0143 17.4073L26.0183 17.5L26.0215 17.5929L26.0236 17.6858L26.0248 17.7788L26.0251 17.8719L26.0243 17.965L26.0227 18.0582L26.02 18.1515L26.0164 18.2449L26.0119 18.3382L26.0063 18.4315L25.9999 18.525L25.9924 18.6183L25.9839 18.7117L25.9746 18.805L25.9642 18.8983L25.9529 18.9917L25.9406 19.0849L25.9273 19.1781L25.9131 19.2712L25.8979 19.3642L25.8817 19.4572L25.8645 19.5501L25.8464 19.6429L25.8273 19.7355L25.8072 19.8281L25.7863 19.9205L25.7643 20.0127L25.7413 20.1048L25.7174 20.1968L25.6925 20.2886L25.6667 20.3802L25.6399 20.4715L25.6121 20.5627L25.5834 20.6538L25.5536 20.7446L25.523 20.835L25.4914 20.9254L25.4589 21.0154L25.4254 21.1052L25.3909 21.1947L25.3555 21.284L25.3192 21.373L25.2819 21.4617L25.2437 21.55L25.2046 21.6381L25.1645 21.7258L25.1235 21.8132L25.0815 21.9002L25.0387 21.987L24.9948 22.0733L24.9501 22.1593L24.9045 22.2448L24.8579 22.33L24.8105 22.4148L24.7622 22.4992L24.7129 22.5831L24.6627 22.6667L24.6117 22.7498L24.5598 22.8325L24.5069 22.9146L24.4532 22.9964L24.3986 23.0776L24.3431 23.1584L24.2868 23.2387L24.2296 23.3185L24.1715 23.3978L24.1127 23.4766L24.0529 23.5548L23.9923 23.6325L23.9308 23.7096L23.8685 23.7862L23.8054 23.8622L23.7415 23.9378L23.6767 24.0126L23.6111 24.087L23.5447 24.1606L23.4775 24.2338L23.4095 24.3062L23.3407 24.3782L23.2711 24.4494L23.2008 24.52L23.1296 24.5899L23.0578 24.6593L22.9851 24.7279L22.9117 24.7958L22.8375 24.8632L22.7626 24.9298L22.687 24.9957L22.6106 25.061L22.5335 25.1254L22.4557 25.1893L22.3772 25.2523L22.2979 25.3146L22.218 25.3762L22.1375 25.4371L22.0562 25.4972L21.9742 25.5566L21.8916 25.6152L21.8083 25.673L21.7244 25.73L21.6398 25.7862L21.5546 25.8417L21.4687 25.8963L21.3823 25.9502L21.2952 26.0031L21.2076 26.0554L21.1193 26.1067L21.0305 26.1572L20.9411 26.2069L20.8511 26.2558L20.7605 26.3038L20.6694 26.3509L20.5777 26.3971L20.4855 26.4425L20.3928 26.487L20.2995 26.5306L20.2058 26.5734L20.1115 26.6152L20.0168 26.6562L19.9215 26.6962L19.8259 26.7353L19.7297 26.7735L19.6331 26.8108L19.536 26.8472L19.4385 26.8826L19.3406 26.9171L19.2422 26.9506L19.1435 26.9833L19.0443 27.0149L18.9447 27.0456L18.8448 27.0754L18.7445 27.1041L18.6439 27.1319L18.5428 27.1587L18.4415 27.1846L18.3398 27.2094L18.2378 27.2334L18.1354 27.2562L18.0328 27.2782L17.9299 27.299L17.8267 27.319L17.7232 27.3379L17.6195 27.3558L17.5155 27.3727L17.4113 27.3886L17.3068 27.4034L17.2021 27.4173L17.0972 27.4302L16.9922 27.4419L16.8869 27.4527L16.7815 27.4625L16.6759 27.4712L16.5701 27.4789L16.4642 27.4855L16.3581 27.4911L16.2519 27.4957L16.1456 27.4992L16.0392 27.5017L15.9327 27.5031L15.8261 27.5035L15.7195 27.5029L15.6128 27.5011L15.506 27.4984L15.3992 27.4946L15.2924 27.4897L15.1855 27.4838L15.0787 27.4768L14.9719 27.4688L14.8651 27.4597L14.7583 27.4495L14.6515 27.4383L14.5447 27.4261L14.4381 27.4128L14.3315 27.3984L14.225 27.383L14.1186 27.3665L14.0123 27.349L13.906 27.3303L13.7999 27.3107L13.694 27.29L13.5883 27.2682L13.4826 27.2454L13.3771 27.2215L13.2719 27.1966L13.1667 27.1706L13.0619 27.1435L12.9571 27.1154L12.8527 27.0863L12.7485 27.0562L12.6445 27.025L12.5407 26.9927L12.4373 26.9594L12.3342 26.925L12.2312 26.8897L12.1287 26.8533L12.0264 26.8158L11.9244 26.7774L11.8228 26.7378L11.7215 26.6974L11.6206 26.6558L11.52 26.6132L11.4199 26.5697L11.3201 26.525L11.2207 26.4794L11.1217 26.4329L11.0231 26.3853L10.925 26.3366L10.8272 26.287L10.73 26.2365L10.6332 26.1849L10.5369 26.1323L10.4411 26.0788L10.3457 26.0242L10.2508 25.9688L10.1565 25.9123L10.0627 25.8549L9.96939 25.7966L9.87667 25.7372L9.78451 25.677L9.69291 25.6157L9.60187 25.5535L9.51139 25.4905L9.42155 25.4265L9.33227 25.3615L9.24362 25.2957L9.15555 25.2289L9.06819 25.1612L8.98147 25.0926L8.89538 25.0231L8.80995 24.9528L8.72515 24.8815L8.64107 24.8094L8.5577 24.7364L8.47499 24.6626L8.39299 24.5878L8.31179 24.5123L8.23123 24.4359L8.15139 24.3586L8.07235 24.2806L7.99411 24.2017L7.91659 24.1219L7.83979 24.0414L7.76379 23.9601L7.68866 23.878L7.61427 23.795L7.54067 23.7114L7.46795 23.6269L7.39595 23.5417L7.32491 23.4557L7.25459 23.3689L7.18523 23.2814L7.11666 23.1932L7.04899 23.1042L6.98219 23.0146L6.91618 22.9242L6.85115 22.8331L6.78707 22.7414L6.72379 22.6489L6.66147 22.5558L6.60007 22.462L6.5396 22.3675L6.48006 22.2724L6.42147 22.1766L6.36382 22.0802L6.30713 21.9833L6.2514 21.8856L6.19664 21.7874L6.14287 21.6886L6.09007 21.5892L6.03827 21.4892L5.98746 21.3886L5.93766 21.2875L5.88886 21.1858L5.84109 21.0837L5.79434 20.9809L5.74861 20.8777L5.70392 20.7739L5.66027 20.6696L5.61767 20.5649L5.57612 20.4597L5.53563 20.3539L5.49619 20.2478L5.45783 20.1412L5.42054 20.0341L5.38433 19.9266L5.3492 19.8187L5.31516 19.7104L5.28222 19.6018L5.25037 19.4926L5.21962 19.3832L5.18998 19.2734L5.16147 19.1631L5.13406 19.0526L5.10776 18.9418L5.0826 18.8306L5.05856 18.719L5.03566 18.6073L5.01389 18.4952L4.99326 18.3828L4.97377 18.2702L4.95543 18.1573L4.93824 18.0442L4.9222 17.9308L4.90732 17.8172L4.8936 17.7034L4.88104 17.5894L4.86964 17.4752L4.85941 17.3608L4.85035 17.2462L4.84247 17.1316L4.83575 17.0167L4.83021 16.9018L4.82585 16.7867L4.82267 16.6715L4.82067 16.5562L4.81986 16.4408L4.82023 16.3254L4.82179 16.2098L4.82454 16.0943L4.82847 15.9787L4.83359 15.863L4.83991 15.7474L4.84742 15.6318L4.85612 15.5162L4.86601 15.4005L4.8771 15.285L4.88939 15.1694L4.90286 15.0539L4.91753 14.9385L4.93339 14.8231L4.95045 14.7078L4.96871 14.5927L4.98815 14.4777L5.00879 14.3628L5.03062 14.248L5.05364 14.1334L5.07785 14.019L5.10326 13.9046L5.12985 13.7906L5.15762 13.6766L5.18659 13.563L5.21674 13.4495L5.24807 13.3362L5.28058 13.2233L5.31427 13.1106L5.34914 12.9981L5.38519 12.8858L5.4224 12.774L5.46078 12.6624L5.50034 12.5511L5.54107 12.4402L5.58295 12.3295L5.62599 12.2193L5.67019 12.1094L5.71554 11.9998L5.76204 11.8907L5.80969 11.7819L5.85849 11.6736L5.90842 11.5657L5.95949 11.4582L6.01169 11.3511L6.06503 11.2446L6.11948 11.1384L6.17506 11.0328L6.23175 10.9276L6.28955 10.823L6.34846 10.7188L6.40847 10.6151L6.46959 10.5121L6.53179 10.4095L6.59508 10.3075L6.65947 10.2061L6.72491 10.1052L6.79147 10.005L6.85899 9.90528L6.92771 9.80624L6.99739 9.70776L7.06811 9.60992L7.13995 9.5128L7.21275 9.41624L7.28667 9.3204L7.36155 9.2252L7.43747 9.13072L7.51435 9.03696L7.59227 8.94384L7.67123 8.85144L7.75115 8.75976L7.83203 8.66888L7.91395 8.57872L7.99675 8.48928L8.08059 8.40064L8.16539 8.31272L8.25107 8.22568L8.33771 8.13936L8.42531 8.05384L8.51387 7.9692L8.6033 7.88528L8.69363 7.80232L8.78491 7.72008L8.87707 7.6388L8.97003 7.55832L9.06394 7.47872L9.15875 7.4L9.25434 7.32216L9.35083 7.2452L9.44818 7.1692L9.54635 7.09408L9.6453 7.01992L9.74515 6.94664L9.84571 6.87432L9.94707 6.80296L10.0493 6.73256L10.1523 6.66312L10.2559 6.59472L10.3605 6.5272L10.4657 6.46072L10.5717 6.39523L10.6784 6.33074L10.7859 6.26727L10.8939 6.20482L11.0028 6.1434L11.1123 6.08301L11.2225 6.02367L11.3334 5.96538L11.4449 5.90815L11.5571 5.85198L11.6699 5.79689L11.7833 5.74287L11.8974 5.68994L12.012 5.6381L12.1273 5.58736L12.2431 5.53773L12.3595 5.48921L12.4765 5.4418L12.5939 5.39552L12.712 5.35037L12.8306 5.30635L12.9497 5.26348L13.0693 5.22175L13.1894 5.18118L13.3099 5.14176L13.4309 5.10351L13.5524 5.06642L13.6743 5.03051L13.7967 4.99578L13.9195 4.96223L14.0427 4.92987L14.1663 4.8987L14.2903 4.86874L14.4146 4.83998L14.5393 4.81241L14.6643 4.78606L14.7897 4.76092L14.9155 4.73701L15.0415 4.71431L15.1678 4.69284L15.2944 4.6726L15.4213 4.65359L15.5484 4.63582L15.6758 4.61929L15.7233 4.61359ZM15.7771 9.14888L15.7404 6.05751L15.636 6.0721L15.5238 6.08893L15.4115 6.10687L15.2999 6.12584L15.1881 6.14597L15.0769 6.16713L14.9659 6.18938L14.8554 6.21266L14.7451 6.23706L14.635 6.26253L14.5252 6.28905L14.4159 6.31662L14.3067 6.34529L14.2019 6.37392L14.0901 6.40568L13.9822 6.43744L13.8747 6.47024L13.7679 6.504L13.6612 6.53888L13.555 6.5748L13.4492 6.61168L13.344 6.64952L13.2392 6.68848L13.1349 6.72832L13.031 6.76928L12.9279 6.81112L12.8247 6.85408L12.7224 6.89792L12.6206 6.94272L12.5195 6.98848L12.4186 7.03528L12.3183 7.08304L12.2188 7.1316L12.1195 7.18128L12.0213 7.23176L11.9232 7.28336L11.8261 7.3356L11.7291 7.38912L11.6331 7.4432L11.5378 7.49832L11.4429 7.5544L11.3487 7.61128L11.2551 7.6692L11.1623 7.72776L11.07 7.78736L10.9786 7.84776L10.8878 7.90896L10.7976 7.97112L10.708 8.03416L10.6195 8.09776L10.5314 8.16248L10.444 8.22792L10.3575 8.29416L10.2717 8.36112L10.1865 8.42904L10.1023 8.4976L10.0187 8.56696L9.93587 8.63728L9.85403 8.70808L9.77275 8.77984L9.69227 8.85232L9.61267 8.92544L9.53395 8.99928L9.45579 9.074L9.37875 9.1492L9.30243 9.2252L9.22682 9.302L9.15219 9.37936L9.07835 9.45752L9.00539 9.53624L8.93331 9.6156L8.86203 9.69568L8.79154 9.77648L8.72227 9.85768L8.65363 9.93968L8.58587 10.0223L8.51906 10.1054L8.45323 10.1891L8.38811 10.2736L8.32403 10.3585L8.26083 10.444L8.19859 10.5301L8.13723 10.6167L8.07691 10.7038L8.01747 10.7914L7.95891 10.8797L7.90131 10.9684L7.84475 11.0575L7.78914 11.1472L7.73443 11.2375L7.68067 11.3281L7.62794 11.4192L7.57611 11.5108L7.52539 11.6026L7.47555 11.6951L7.42659 11.7881L7.37883 11.8812L7.33194 11.975L7.28611 12.069L7.24123 12.1634L7.19739 12.2582L7.15451 12.3534L7.11267 12.4489L7.07178 12.5447L7.03203 12.6409L6.99323 12.7374L6.95538 12.8342L6.91859 12.9314L6.88291 13.0287L6.8481 13.1265L6.81451 13.2243L6.78179 13.3226L6.75019 13.421L6.71954 13.5198L6.69003 13.6186L6.66147 13.7178L6.63403 13.817L6.60755 13.9166L6.58215 14.0163L6.55779 14.1162L6.53447 14.2163L6.51219 14.3165L6.49095 14.4169L6.47079 14.5174L6.45164 14.6179L6.43355 14.7187L6.41651 14.8195L6.40051 14.9205L6.38557 15.0214L6.37166 15.1225L6.35881 15.2236L6.347 15.3248L6.33624 15.426L6.32653 15.5273L6.31786 15.6286L6.31025 15.7298L6.30367 15.8311L6.29814 15.9324L6.29365 16.0336L6.29021 16.1348L6.2878 16.2359L6.28644 16.337L6.28611 16.4382L6.28683 16.5391L6.28858 16.64L6.29136 16.7408L6.29517 16.8414L6.30002 16.9421L6.30589 17.0426L6.31279 17.1428L6.32071 17.243L6.32966 17.343L6.33963 17.4429L6.35061 17.5426L6.3626 17.6421L6.37562 17.7414L6.38963 17.8405L6.40467 17.9394L6.42069 18.038L6.43772 18.1365L6.45575 18.2347L6.47477 18.3326L6.49479 18.4303L6.51578 18.5277L6.53777 18.6249L6.56071 18.7216L6.58466 18.8182L6.60958 18.9144L6.63547 19.0103L6.66227 19.1058L6.69011 19.2011L6.71883 19.296L6.74859 19.3906L6.77923 19.4848L6.81083 19.5786L6.84339 19.6719L6.87682 19.765L6.91123 19.8576L6.94659 19.9498L6.98283 20.0416L7.01995 20.133L7.05803 20.2239L7.09698 20.3144L7.13691 20.4044L7.17763 20.494L7.21931 20.583L7.26187 20.6717L7.30523 20.7598L7.34955 20.8474L7.39467 20.9346L7.44067 21.0213L7.48755 21.1074L7.53522 21.193L7.58379 21.278L7.63315 21.3625L7.68339 21.4464L7.73443 21.5298L7.78627 21.6126L7.83891 21.6949L7.89243 21.7766L7.94659 21.8576L8.00171 21.9382L8.05747 22.018L8.11411 22.0973L8.17147 22.1759L8.22962 22.2539L8.28851 22.3313L8.34819 22.4081L8.40851 22.4842L8.46963 22.5596L8.53147 22.6344L8.59403 22.7086L8.65731 22.7819L8.7213 22.8548L8.78594 22.9268L8.85131 22.9982L8.9173 23.0689L8.98403 23.1389L9.05139 23.2082L9.11946 23.2767L9.18811 23.3446L9.25747 23.4117L9.32747 23.4781L9.39795 23.5437L9.46923 23.6086L9.54099 23.6727L9.61339 23.7361L9.68643 23.7987L9.76003 23.8606L9.83419 23.9217L9.90891 23.9819L9.98419 24.0414L10.06 24.1002L10.1364 24.1582L10.2134 24.2153L10.2907 24.2716L10.3687 24.3271L10.4471 24.3818L10.5261 24.4358L10.6056 24.4889L10.6855 24.5411L10.7659 24.5926L10.8468 24.6432L10.9281 24.693L11.0099 24.7419L11.0921 24.79L11.1747 24.8372L11.2578 24.8836L11.3411 24.9291L11.4251 24.9738L11.5093 25.0177L11.5939 25.0606L11.6789 25.1027L11.7643 25.1439L11.85 25.1843L11.936 25.2238L12.0225 25.2624L12.1091 25.3001L12.1962 25.3369L12.2835 25.3729L12.3712 25.4079L12.4591 25.4421L12.5473 25.4754L12.6358 25.5078L12.7245 25.5393L12.8135 25.5698L12.9027 25.5996L12.9922 25.6283L13.0819 25.6562L13.1718 25.6832L13.2619 25.7093L13.3521 25.7345L13.4426 25.7587L13.5332 25.7822L13.624 25.8046L13.715 25.8261L13.8061 25.8467L13.8974 25.8665L13.9887 25.8853L14.0802 25.9031L14.1719 25.9201L14.2635 25.9362L14.3553 25.9514L14.4471 25.9655L14.5391 25.9789L14.6311 25.9913L14.7231 26.0028L14.8151 26.0134L14.9072 26.023L14.9994 26.0318L15.0915 26.0396L15.1837 26.0465L15.2759 26.0526L15.3679 26.0576L15.46 26.0618L15.5522 26.0651L15.6442 26.0675L15.7361 26.069L15.828 26.0695L15.9199 26.0692L16.0116 26.0679L16.1033 26.0658L16.1948 26.0628L16.2863 26.0589L16.3776 26.054L16.4688 26.0483L16.5599 26.0417L16.6508 26.0342L16.7415 26.0258L16.8322 26.0165L16.9227 26.0063L17.0129 25.9953L17.103 25.9834L17.1928 25.9706L17.2825 25.957L17.3719 25.9424L17.4611 25.927L17.5501 25.9107L17.6388 25.8936L17.7273 25.8757L17.8156 25.8568L17.9035 25.8371L17.9911 25.8166L18.0785 25.7952L18.1656 25.773L18.2524 25.75L18.3389 25.7261L18.4251 25.7014L18.5109 25.6758L18.5963 25.6495L18.6815 25.6223L18.7663 25.5943L18.8507 25.5655L18.9348 25.5359L19.0185 25.5055L19.1018 25.4743L19.1847 25.4423L19.2671 25.4095L19.3493 25.3759L19.431 25.3416L19.5122 25.3065L19.5931 25.2706L19.6734 25.234L19.7534 25.1966L19.8329 25.1584L19.9118 25.1196L19.9905 25.0798L20.0685 25.0395L20.1462 24.9983L20.2231 24.9566L20.2998 24.914L20.3759 24.8707L20.4515 24.8267L20.5266 24.782L20.6011 24.7366L20.6751 24.6906L20.7487 24.6438L20.8215 24.5964L20.8939 24.5482L20.9658 24.4994L21.037 24.4499L21.1075 24.3999L21.1778 24.349L21.2472 24.2978L21.3162 24.2457L21.3846 24.193L21.4521 24.1398L21.5194 24.0858L21.5859 24.0312L21.6516 23.9762L21.7171 23.9202L21.7816 23.864L21.8455 23.8072L21.9091 23.7495L21.9716 23.6916L22.0337 23.633L22.0951 23.5738L22.1558 23.5141L22.2159 23.4538L22.2753 23.393L22.334 23.3316L22.3919 23.2698L22.4493 23.2074L22.506 23.1445L22.5619 23.0812L22.6172 23.0172L22.6717 22.9529L22.7255 22.8881L22.7787 22.8226L22.831 22.757L22.8827 22.6907L22.9336 22.6241L22.9839 22.5569L23.0333 22.4894L23.0819 22.4215L23.13 22.353L23.1772 22.2842L23.2237 22.215L23.2695 22.1454L23.3143 22.0755L23.3587 22.0051L23.4021 21.9343L23.4448 21.8633L23.4867 21.7918L23.5279 21.7199L23.5682 21.648L23.6079 21.5754L23.6467 21.5026L23.6846 21.4296L23.7219 21.356L23.7583 21.2826L23.794 21.2083L23.8287 21.1343L23.863 21.0595L23.8961 20.9849L23.9287 20.9096L23.9603 20.8344L23.9911 20.7589L24.0212 20.683L24.0505 20.607L24.0788 20.5309L24.1066 20.4543L24.1333 20.3777L24.1593 20.3009L24.1845 20.2238L24.2089 20.1466L24.2325 20.0692L24.2552 19.9918L24.2771 19.914L24.2982 19.8362L24.3185 19.7582L24.3379 19.6802L24.3566 19.6021L24.3744 19.5236L24.3914 19.4452L24.4076 19.3667L24.4229 19.2882L24.4375 19.2096L24.4511 19.1306L24.464 19.052L24.4761 18.9731L24.4873 18.8942L24.4977 18.8154L24.5073 18.7364L24.5161 18.6572L24.524 18.5786L24.5312 18.4993L24.5375 18.4203L24.543 18.3415L24.5477 18.2625L24.5515 18.1836L24.5546 18.1048L24.5568 18.0258L24.5582 17.9472L24.5588 17.8683L24.5586 17.7897L24.5576 17.711L24.5558 17.6327L24.5531 17.5542L24.5497 17.4759L24.5455 17.3979L24.5404 17.3197L24.5346 17.2417L24.528 17.1641L24.5206 17.0862L24.5123 17.0089L24.5033 16.9314L24.4935 16.8542L24.483 16.7772L24.4716 16.7002L24.4595 16.6236L24.4466 16.5472L24.4329 16.471L24.4184 16.395L24.4031 16.3189L24.3871 16.2434L24.3704 16.1681L24.3529 16.0929L24.3346 16.0178L24.3156 15.9434L24.2958 15.8688L24.2753 15.7948L24.254 15.7209L24.232 15.6474L24.2093 15.5741L24.1858 15.501L24.1616 15.4285L24.1367 15.3562L24.111 15.2839L24.0847 15.2123L24.0576 15.1409L24.0299 15.0699L24.0014 14.9991L23.9722 14.9286L23.9423 14.8588L23.9117 14.789L23.8805 14.7198L23.8486 14.651L23.8159 14.5824L23.7826 14.5142L23.7487 14.4466L23.714 14.3791L23.6788 14.3123L23.6429 14.2459L23.6063 14.1796L23.5691 14.1141L23.5312 14.0488L23.4927 13.9841L23.4535 13.9196L23.4139 13.8558L23.3735 13.7922L23.3326 13.7294L23.291 13.6669L23.2488 13.6049L23.2059 13.5432L23.1626 13.4822L23.1187 13.4217L23.0741 13.3614L23.0291 13.3019L22.9833 13.2428L22.9372 13.1843L22.8903 13.1262L22.843 13.0686L22.7951 13.0116L22.7467 12.955L22.6978 12.8992L22.6482 12.8437L22.5983 12.7889L22.5477 12.7345L22.4968 12.6809L22.4451 12.6275L22.3932 12.575L22.3406 12.5227L22.2876 12.4713L22.2343 12.4204L22.1803 12.37L22.1259 12.3202L22.071 12.271L22.0157 12.2225L21.9598 12.1743L21.9039 12.1271L21.8471 12.0802L21.7901 12.034L21.7327 11.9885L21.6747 11.9434L21.6165 11.899L21.558 11.8554L21.4988 11.8122L21.4392 11.7696L21.3796 11.7279L21.3192 11.6866L21.2589 11.6462L21.198 11.6062L21.1367 11.5668L21.0751 11.5281L21.0133 11.4902L20.9509 11.4527L20.8884 11.4161L20.8254 11.3799L20.7624 11.3446L20.6989 11.3099L20.6351 11.2758L20.571 11.2423L20.5067 11.2097L20.4421 11.1775L20.3771 11.1461L20.3121 11.1154L20.2469 11.0854L20.181 11.0558L20.1154 11.0272L20.0493 10.9992L19.9829 10.9718L19.9164 10.9451L19.8499 10.9192L19.783 10.8939L19.7157 10.8692L19.6486 10.8454L19.5811 10.8221L19.5134 10.7995L19.4458 10.7777L19.3779 10.7566L19.3099 10.7361L19.2415 10.7162L19.1732 10.6972L19.1048 10.6788L19.0363 10.6611L18.9676 10.6441L18.8987 10.6278L18.8299 10.6122L18.7611 10.5973L18.6919 10.583L18.6227 10.5694L18.5538 10.5567L18.4844 10.5446L18.4152 10.5331L18.3457 10.5223L18.2766 10.5123L18.2069 10.5029L18.1377 10.4943L18.0683 10.4863L17.9988 10.479L17.9295 10.4725L17.8599 10.4666L17.7907 10.4614L17.7211 10.4569L17.6519 10.453L17.5827 10.4499L17.5131 10.4474L17.4441 10.4457L17.375 10.4446L17.3059 10.4442L17.2587 10.4444L17.2945 13.4647L17.3159 13.4648L17.3555 13.4654L17.3953 13.4663L17.4351 13.4676L17.475 13.4694L17.5149 13.4716L17.5548 13.4742L17.5948 13.4772L17.6348 13.4806L17.6749 13.4845L17.715 13.4887L17.7551 13.4934L17.7952 13.4985L17.8353 13.504L17.8755 13.5099L17.9156 13.5163L17.9558 13.5231L17.9959 13.5303L18.036 13.538L18.0761 13.546L18.1162 13.5546L18.1563 13.5634L18.1963 13.5728L18.2363 13.5826L18.2763 13.5927L18.3162 13.6034L18.356 13.6144L18.3959 13.6258L18.4356 13.6378L18.4753 13.6501L18.5149 13.6629L18.5545 13.6761L18.5939 13.6897L18.6334 13.7037L18.6727 13.7182L18.7119 13.733L18.751 13.7483L18.79 13.7641L18.8289 13.7802L18.8677 13.7968L18.9064 13.8138L18.945 13.8313L18.9835 13.8491L19.0218 13.8674L19.0599 13.8861L19.098 13.9052L19.1359 13.9248L19.1736 13.9447L19.2112 13.9651L19.2487 13.9859L19.2859 14.0071L19.3231 14.0287L19.3599 14.0507L19.3967 14.0732L19.4333 14.0961L19.4697 14.1194L19.5059 14.143L19.5419 14.167L19.5777 14.1916L19.6133 14.2165L19.6487 14.2418L19.6839 14.2674L19.7188 14.2935L19.7535 14.32L19.788 14.3469L19.8223 14.3742L19.8563 14.4018L19.8901 14.4298L19.9237 14.4583L19.957 14.4871L19.99 14.5163L20.0228 14.5459L20.0553 14.5759L20.0875 14.6062L20.1195 14.637L20.1512 14.6681L20.1826 14.6995L20.2137 14.7314L20.2446 14.7635L20.2751 14.7961L20.3053 14.829L20.3352 14.8623L20.3649 14.8959L20.3942 14.9299L20.4231 14.9642L20.4519 14.9989L20.4802 15.0339L20.5082 15.0693L20.5359 15.105L20.5632 15.141L20.5903 15.1774L20.6169 15.2141L20.6431 15.251L20.6691 15.2884L20.6947 15.3261L20.7199 15.3641L20.7448 15.4023L20.7694 15.441L20.7935 15.4798L20.8172 15.519L20.8406 15.5586L20.8635 15.5983L20.8862 15.6384L20.9083 15.6788L20.9302 15.7194L20.9516 15.7604L20.9726 15.8016L20.9932 15.843L21.0134 15.8848L21.0331 15.9269L21.0525 15.9691L21.0715 16.0117L21.09 16.0545L21.1081 16.0975L21.1258 16.1408L21.143 16.1843L21.1598 16.2281L21.1762 16.2721L21.1921 16.3163L21.2075 16.3608L21.2226 16.4054L21.2371 16.4503L21.2512 16.4954L21.2649 16.5407L21.2781 16.5862L21.2908 16.632L21.3031 16.6778L21.315 16.7239L21.3263 16.7702L21.3371 16.8167L21.3475 16.8633L21.3575 16.9102L21.3669 16.9571L21.3758 17.0042L21.3843 17.0515L21.3923 17.099L21.3998 17.1465L21.4067 17.1942L21.4132 17.2421L21.4192 17.2901L21.4247 17.3382L21.4298 17.3865L21.4343 17.4348L21.4383 17.4833L21.4418 17.5319L21.4447 17.5806L21.4472 17.6294L21.4491 17.6782L21.4507 17.7272L21.4515 17.7762L21.452 17.8254L21.4519 17.8745L21.4513 17.9238L21.4502 17.9731L21.4485 18.0225L21.4463 18.0719L21.4436 18.1214L21.4404 18.1709L21.4367 18.2204L21.4323 18.27L21.4275 18.3196L21.4223 18.3692L21.4163 18.4188L21.4099 18.4685L21.4031 18.5182L21.3956 18.5678L21.3876 18.6174L21.3791 18.667L21.37 18.7166L21.3604 18.7662L21.3503 18.8157L21.3396 18.8652L21.3284 18.9146L21.3167 18.9641L21.3044 19.0134L21.2916 19.0628L21.2783 19.112L21.2644 19.1612L21.25 19.2102L21.2351 19.2593L21.2196 19.3082L21.2036 19.357L21.1871 19.4058L21.17 19.4545L21.1523 19.503L21.1342 19.5514L21.1155 19.5997L21.0963 19.6479L21.0766 19.6959L21.0563 19.7438L21.0355 19.7916L21.0142 19.8393L20.9923 19.8867L20.9699 19.934L20.947 19.9812L20.9236 20.0282L20.8996 20.075L20.8751 20.1216L20.8501 20.168L20.8246 20.2142L20.7986 20.2603L20.772 20.3062L20.7449 20.3518L20.7174 20.3972L20.6892 20.4425L20.6607 20.4874L20.6315 20.5322L20.6019 20.5767L20.5718 20.621L20.5411 20.665L20.51 20.7088L20.4783 20.7523L20.4463 20.7956L20.4136 20.8386L20.3805 20.8813L20.3469 20.9238L20.3128 20.9659L20.2783 21.0078L20.2432 21.0494L20.2077 21.0906L20.1716 21.1316L20.1351 21.1722L20.0982 21.2126L20.0607 21.2526L20.0229 21.2923L19.9845 21.3318L19.9457 21.3708L19.9064 21.4094L19.8667 21.4478L19.8265 21.4858L19.7859 21.5234L19.7448 21.5607L19.7033 21.5977L19.6614 21.6342L19.619 21.6704L19.5762 21.7062L19.5329 21.7416L19.4892 21.7766L19.4451 21.8112L19.4007 21.8454L19.3558 21.8793L19.3104 21.9127L19.2647 21.9457L19.2186 21.9782L19.1721 22.0105L19.1251 22.0422L19.0779 22.0735L19.0302 22.1043L18.9821 22.1348L18.9336 22.1648L18.8848 22.1943L18.8356 22.2234L18.7861 22.252L18.7362 22.2802L18.6859 22.3078L18.6353 22.3351L18.5843 22.3618L18.5331 22.3882L18.4814 22.4139L18.4295 22.4393L18.3771 22.4641L18.3245 22.4884L18.2716 22.5122L18.2183 22.5355L18.1648 22.5584L18.111 22.5807L18.0568 22.6025L18.0023 22.6238L17.9476 22.6446L17.8926 22.6648L17.8373 22.6846L17.7818 22.7038L17.7259 22.7224L17.6699 22.7406L17.6135 22.7581L17.557 22.7751L17.5001 22.7917L17.4431 22.8076L17.3858 22.823L17.3283 22.8378L17.2705 22.8522L17.2125 22.8658L17.1543 22.879L17.0959 22.8916L17.0374 22.9037L16.9786 22.9151L16.9196 22.926L16.8605 22.9363L16.8011 22.9461L16.7417 22.9552L16.682 22.9638L16.6223 22.9718L16.5623 22.9792L16.5022 22.986L16.4419 22.9922L16.3815 22.9978L16.3211 23.0028L16.2604 23.0073L16.1996 23.011L16.1388 23.0143L16.0779 23.017L16.0168 23.019L15.9556 23.0203L15.8944 23.0211L15.8331 23.0214L15.7718 23.021L15.7103 23.0199L15.6488 23.0182L15.5873 23.016L15.5257 23.0131L15.464 23.0096L15.4023 23.0055L15.3407 23.0008L15.279 22.9954L15.2172 22.9894L15.1555 22.9829L15.0938 22.9756L15.0321 22.9678L14.9703 22.9593L14.9087 22.9502L14.847 22.9405L14.7854 22.9302L14.7238 22.9192L14.6623 22.9076L14.6007 22.8954L14.5393 22.8826L14.4779 22.8691L14.4167 22.855L14.3555 22.8402L14.2943 22.825L14.2332 22.809L14.1723 22.7923L14.1115 22.7751L14.0508 22.7573L13.9902 22.7388L13.9297 22.7197L13.8694 22.7L13.8091 22.6797L13.7491 22.6587L13.6892 22.6371L13.6295 22.6149L13.5699 22.5921L13.5105 22.5686L13.4513 22.5446L13.3923 22.5199L13.3335 22.4946L13.2748 22.4687L13.2163 22.4422L13.1582 22.4151L13.1001 22.3874L13.0423 22.359L12.9848 22.3301L12.9275 22.3006L12.8705 22.2704L12.8137 22.2397L12.7571 22.2083L12.7009 22.1764L12.6448 22.1438L12.5891 22.1107L12.5337 22.077L12.4786 22.0427L12.4237 22.0078L12.3691 21.9724L12.3149 21.9363L12.261 21.8997L12.2075 21.8625L12.1542 21.8247L12.1012 21.7864L12.0487 21.7474L11.9964 21.708L11.9446 21.668L11.8931 21.6274L11.8419 21.5862L11.7911 21.5446L11.7407 21.5023L11.6907 21.4595L11.6411 21.4162L11.5919 21.3723L11.5431 21.3279L11.4947 21.283L11.4467 21.2375L11.3992 21.1915L11.352 21.145L11.3054 21.098L11.2591 21.0505L11.2133 21.0024L11.1679 20.9539L11.1231 20.9048L11.0787 20.8553L11.0347 20.8053L10.9912 20.7547L10.9482 20.7038L10.9056 20.6522L10.8636 20.6002L10.8221 20.5478L10.7811 20.495L10.7405 20.4416L10.7005 20.3878L10.6611 20.3335L10.6221 20.2788L10.5836 20.2236L10.5457 20.168L10.5083 20.112L10.4715 20.0555L10.4353 19.9986L10.3995 19.9414L10.3644 19.8837L10.3298 19.8255L10.2958 19.767L10.2623 19.7081L10.2295 19.6488L10.1971 19.5891L10.1655 19.529L10.1343 19.4686L10.1038 19.4078L10.0739 19.3466L10.0446 19.285L10.0159 19.2232L9.98779 19.161L9.96035 19.0984L9.93347 19.0354L9.90723 18.9722L9.88163 18.9086L9.85667 18.8448L9.83235 18.7806L9.80875 18.7161L9.78571 18.6513L9.7633 18.5862L9.74155 18.5209L9.72051 18.4552L9.70011 18.3893L9.68035 18.3231L9.66123 18.2566L9.64283 18.1899L9.62514 18.123L9.60803 18.0558L9.59171 17.9883L9.57603 17.9207L9.56099 17.8528L9.54667 17.7847L9.53306 17.7164L9.52011 17.6479L9.50786 17.5792L9.49635 17.5103L9.48555 17.4413L9.47539 17.372L9.46595 17.3026L9.4573 17.233L9.44931 17.1634L9.44203 17.0934L9.43547 17.0234L9.42963 16.9533L9.42451 16.883L9.4201 16.8126L9.41643 16.7422L9.41347 16.6716L9.41123 16.6009L9.40979 16.5301L9.40907 16.4593L9.40899 16.3883L9.40971 16.3173L9.41123 16.2462L9.41339 16.1751L9.41635 16.1039L9.42002 16.0327L9.42443 15.9615L9.42955 15.8902L9.43547 15.819L9.44211 15.7477L9.44947 15.6764L9.45763 15.6051L9.46651 15.5338L9.47611 15.4626L9.48651 15.3914L9.49763 15.3202L9.50955 15.2491L9.52211 15.178L9.53547 15.107L9.54963 15.036L9.56451 14.9651L9.5801 14.8943L9.59643 14.8236L9.61355 14.753L9.63138 14.6825L9.65003 14.6121L9.66939 14.5418L9.68947 14.4717L9.71027 14.4016L9.73186 14.3318L9.75419 14.262L9.77723 14.1924L9.80107 14.123L9.82563 14.0538L9.85091 13.9847L9.87691 13.9158L9.9037 13.8472L9.93122 13.7787L9.95947 13.7104L9.98843 13.6424L10.0181 13.5746L10.0486 13.507L10.0797 13.4396L10.1116 13.3725L10.1442 13.3057L10.1775 13.239L10.2115 13.1727L10.2463 13.1067L10.2818 13.041L10.318 12.9755L10.3549 12.9103L10.3925 12.8454L10.4308 12.781L10.4699 12.7167L10.5095 12.6528L10.55 12.5893L10.5911 12.526L10.6329 12.4631L10.6754 12.4006L10.7186 12.3385L10.7624 12.2767L10.807 12.2154L10.8522 12.1543L10.898 12.0937L10.9446 12.0335L10.9918 11.9737L11.0397 11.9143L11.0883 11.8553L11.1374 11.7968L11.1872 11.7386L11.2377 11.681L11.2888 11.6238L11.3406 11.567L11.393 11.5107L11.446 11.4549L11.4997 11.3995L11.5539 11.3446L11.6088 11.2902L11.6643 11.2363L11.7204 11.183L11.7771 11.1301L11.8344 11.0777L11.8923 11.0258L11.9507 10.9745L12.0099 10.9238L12.0695 10.8734L12.1297 10.8238L12.1904 10.7746L12.2518 10.726L12.3136 10.678L12.3761 10.6306L12.4391 10.5837L12.5026 10.5374L12.5667 10.4917L12.6312 10.4466L12.6963 10.402L12.762 10.3581L12.8281 10.3148L12.8947 10.2722L12.9619 10.2301L13.0295 10.1886L13.0977 10.1478L13.1663 10.1077L13.2354 10.0682L13.3049 10.0293L13.3749 9.99104L13.4454 9.95352L13.5163 9.91664L13.5876 9.8804L13.6594 9.84488L13.7316 9.81L13.8043 9.77584L13.8773 9.74232L13.9507 9.70952L14.0246 9.67744L14.0989 9.646L14.1735 9.61528L14.2485 9.58536L14.3239 9.55608L14.3997 9.52752L14.4758 9.49968L14.5523 9.47264L14.6291 9.44624L14.7063 9.42064L14.7838 9.39576L14.8615 9.3716L14.9397 9.34824L15.0181 9.3256L15.0968 9.30376L15.1759 9.28264L15.2551 9.26224L15.3347 9.24264L15.4146 9.22384L15.4947 9.20584L15.5751 9.18856L15.6557 9.17208L15.7365 9.1564L15.7771 9.14888ZM16.7706 14.9571L15.8485 15.1774L15.7943 10.6098L15.7509 10.6196L15.6855 10.635L15.6201 10.6511L15.5552 10.6678L15.4904 10.685L15.426 10.703L15.3616 10.7216L15.2979 10.7406L15.2339 10.7605L15.1708 10.7807L15.1075 10.8018L15.0447 10.8234L14.9821 10.8455L14.9198 10.8682L14.858 10.8915L14.7963 10.9155L14.735 10.94L14.674 10.965L14.6131 10.9908L14.5531 11.0169L14.493 11.0438L14.4335 11.071L14.374 11.099L14.3151 11.1274L14.2564 11.1565L14.1983 11.186L14.1405 11.2161L14.0831 11.2467L14.026 11.2778L13.9693 11.3095L13.913 11.3418L13.8573 11.3744L13.8015 11.4078L13.7465 11.4414L13.6919 11.4757L13.6377 11.5104L13.5838 11.5457L13.5304 11.5814L13.4775 11.6177L13.4249 11.6543L13.3729 11.6914L13.3211 11.7291L13.2699 11.7673L13.2192 11.8058L13.1689 11.8449L13.1191 11.8842L13.0699 11.9242L13.0209 11.9646L12.9724 12.0054L12.9246 12.0466L12.8771 12.0882L12.8302 12.1302L12.7837 12.1727L12.7377 12.2157L12.6923 12.259L12.6473 12.3026L12.6027 12.3467L12.5588 12.3911L12.5154 12.436L12.4725 12.4811L12.4299 12.5269L12.3881 12.5727L12.3467 12.619L12.3059 12.6658L12.2656 12.7126L12.2258 12.7601L12.1867 12.8076L12.1479 12.8558L12.1098 12.904L12.0721 12.9527L12.0351 13.0018L11.9986 13.051L11.9626 13.1005L11.9272 13.1503L11.8923 13.2006L11.858 13.251L11.8243 13.3018L11.7912 13.3526L11.7587 13.4038L11.7266 13.4554L11.6952 13.5071L11.6643 13.5593L11.634 13.6114L11.6043 13.6639L11.5751 13.7166L11.5466 13.7695L11.5186 13.8226L11.4912 13.876L11.4643 13.9297L11.4382 13.9833L11.4125 14.0374L11.3875 14.0914L11.3631 14.1458L11.3391 14.2002L11.3159 14.255L11.2932 14.3097L11.2711 14.3647L11.2497 14.4198L11.2287 14.4751L11.2085 14.5304L11.1888 14.586L11.1697 14.6417L11.1512 14.6974L11.1333 14.7533L11.116 14.8094L11.0993 14.8654L11.0833 14.9215L11.0678 14.9778L11.0528 15.0342L11.0386 15.0906L11.0249 15.1471L11.0118 15.2037L10.9993 15.2603L10.9875 15.317L10.9762 15.3737L10.9655 15.4304L10.9554 15.4873L10.9459 15.544L10.9371 15.6008L10.9287 15.6578L10.9211 15.7145L10.914 15.7714L10.9075 15.8282L10.9016 15.885L10.8963 15.942L10.8916 15.9987L10.8875 16.0555L10.884 16.1123L10.8811 16.169L10.8787 16.2256L10.877 16.2822L10.8759 16.3388L10.8752 16.3953L10.8753 16.4517L10.8759 16.508L10.8771 16.5643L10.8788 16.6205L10.8811 16.6766L10.884 16.7326L10.8875 16.7884L10.8916 16.8442L10.8963 16.8998L10.9015 16.9554L10.9072 17.0109L10.9135 17.066L10.9204 17.1213L10.9279 17.1762L10.9359 17.2311L10.9445 17.2858L10.9536 17.3403L10.9633 17.3948L10.9735 17.449L10.9843 17.503L10.9956 17.5568L11.0075 17.6106L11.0199 17.664L11.0329 17.7174L11.0463 17.7703L11.0604 17.8234L11.0749 17.8759L11.0899 17.9285L11.1055 17.9806L11.1216 18.0327L11.1383 18.0845L11.1554 18.1359L11.1731 18.1874L11.1912 18.2384L11.2099 18.2891L11.229 18.3398L11.2487 18.3901L11.2688 18.4401L11.2895 18.4898L11.3105 18.5393L11.3322 18.5886L11.3543 18.6375L11.3768 18.6862L11.3999 18.7345L11.4233 18.7825L11.4474 18.8304L11.4717 18.8778L11.4966 18.9249L11.5219 18.9718L11.5478 19.0182L11.574 19.0645L11.6007 19.1104L11.6278 19.1558L11.6554 19.2011L11.6833 19.246L11.7117 19.2905L11.7406 19.3347L11.7698 19.3786L11.7995 19.4222L11.8295 19.4651L11.8599 19.508L11.8908 19.5504L11.922 19.5924L11.9538 19.6342L11.9858 19.6754L12.0182 19.7163L12.051 19.7569L12.0842 19.7971L12.1176 19.8368L12.1516 19.8762L12.1859 19.9153L12.2204 19.9538L12.2555 19.9921L12.2907 20.0298L12.3264 20.0673L12.3624 20.1042L12.3987 20.1408L12.4354 20.177L12.4723 20.2127L12.5096 20.2481L12.5472 20.283L12.5851 20.3174L12.6234 20.3515L12.6619 20.3851L12.7007 20.4183L12.7397 20.4511L12.7791 20.4834L12.8187 20.5154L12.8587 20.5468L12.8988 20.5778L12.9393 20.6083L12.98 20.6385L13.021 20.6682L13.0622 20.6974L13.1036 20.7262L13.1453 20.7545L13.1872 20.7823L13.2293 20.8097L13.2716 20.8366L13.3143 20.8632L13.3571 20.8891L13.4 20.9147L13.4433 20.9398L13.4866 20.9644L13.5301 20.9886L13.574 21.0123L13.6179 21.0355L13.662 21.0582L13.7063 21.0805L13.7508 21.1023L13.7953 21.1236L13.8402 21.1445L13.8851 21.1649L13.93 21.1847L13.9753 21.2042L14.0207 21.2231L14.066 21.2416L14.1116 21.2596L14.1573 21.277L14.2032 21.2941L14.249 21.3106L14.2951 21.3267L14.3411 21.3422L14.3873 21.3574L14.4336 21.372L14.48 21.3862L14.5264 21.3998L14.5729 21.413L14.6195 21.4256L14.6662 21.4378L14.7128 21.4495L14.7595 21.4608L14.8063 21.4715L14.8531 21.4818L14.8999 21.4916L14.9468 21.5009L14.9937 21.5098L15.0406 21.5181L15.0875 21.526L15.1345 21.5334L15.1815 21.5403L15.2283 21.5467L15.2752 21.5526L15.3221 21.5582L15.3691 21.5632L15.4159 21.5677L15.4628 21.5718L15.5096 21.5754L15.5563 21.5785L15.6031 21.5811L15.6498 21.5833L15.6963 21.585L15.7431 21.5862L15.7895 21.587L15.8359 21.5874L15.8823 21.5872L15.9285 21.5866L15.9748 21.5855L16.021 21.584L16.0669 21.5821L16.1128 21.5796L16.1588 21.5767L16.2044 21.5734L16.2501 21.5696L16.2955 21.5654L16.341 21.5607L16.3863 21.5555L16.4313 21.55L16.4764 21.544L16.5212 21.5375L16.5659 21.5306L16.6106 21.5234L16.655 21.5156L16.6992 21.5074L16.7434 21.4988L16.7874 21.4898L16.8311 21.4803L16.8746 21.4705L16.9181 21.4602L16.9614 21.4494L17.0044 21.4384L17.0473 21.4269L17.0899 21.415L17.1326 21.4026L17.1748 21.3898L17.2167 21.3767L17.2588 21.3631L17.3004 21.3492L17.3419 21.335L17.3831 21.3202L17.424 21.3051L17.4649 21.2896L17.5055 21.2738L17.5457 21.2575L17.5858 21.241L17.6256 21.2239L17.6653 21.2066L17.7045 21.1889L17.7437 21.1708L17.7825 21.1524L17.821 21.1336L17.8594 21.1145L17.8973 21.095L17.9351 21.0752L17.9727 21.055L18.0099 21.0345L18.0467 21.0137L18.0835 20.9925L18.1199 20.971L18.1559 20.9491L18.1916 20.927L18.2271 20.9045L18.2623 20.8818L18.2973 20.8586L18.3319 20.8353L18.3662 20.8115L18.4002 20.7875L18.4338 20.7633L18.4671 20.7386L18.5002 20.7138L18.5329 20.6886L18.5653 20.6631L18.5975 20.6374L18.6291 20.6114L18.6606 20.5852L18.6916 20.5586L18.7223 20.5318L18.7528 20.5048L18.7829 20.4774L18.8127 20.4499L18.8419 20.4222L18.8711 20.3941L18.8998 20.3658L18.9282 20.3373L18.9562 20.3086L18.9838 20.2795L19.0111 20.2504L19.0381 20.2209L19.0646 20.1914L19.0909 20.1614L19.1167 20.1314L19.1422 20.1012L19.1675 20.0706L19.1921 20.0401L19.2166 20.0092L19.2407 19.9782L19.2643 19.947L19.2876 19.9156L19.3105 19.8842L19.3331 19.8523L19.3553 19.8204L19.3771 19.7885L19.3985 19.7562L19.4196 19.7238L19.4402 19.6914L19.4605 19.6587L19.4804 19.6259L19.4999 19.593L19.5191 19.5599L19.5379 19.5267L19.5563 19.4934L19.5743 19.4599L19.5919 19.4265L19.6091 19.3928L19.6259 19.359L19.6424 19.3252L19.6585 19.2911L19.6742 19.2571L19.6895 19.223L19.7043 19.1888L19.7189 19.1544L19.733 19.1201L19.7468 19.0854L19.7601 19.0511L19.7731 19.0162L19.7856 18.9819L19.7979 18.947L19.8097 18.9122L19.8211 18.8774L19.8321 18.8426L19.8427 18.8078L19.8531 18.7726L19.8628 18.7378L19.8724 18.7026L19.8815 18.6678L19.8902 18.6326L19.8985 18.5974L19.9064 18.5625L19.9139 18.5276L19.9211 18.4922L19.9279 18.4573L19.9343 18.422L19.9403 18.3871L19.946 18.3521L19.9513 18.317L19.9562 18.2818L19.9607 18.2468L19.9648 18.2119L19.9686 18.1771L19.9719 18.142L19.975 18.1072L19.9776 18.0723L19.9799 18.0375L19.9818 18.0028L19.9833 17.9682L19.9844 17.9337L19.9852 17.899L19.9857 17.8643L19.9858 17.83L19.9855 17.7957L19.9848 17.7614L19.9838 17.7273L19.9824 17.693L19.9807 17.6593L19.9786 17.6249L19.9762 17.5914L19.9734 17.5577L19.9703 17.5238L19.9667 17.4902L19.963 17.457L19.9587 17.4234L19.9543 17.3904L19.9494 17.3572L19.9443 17.3245L19.9387 17.2914L19.9328 17.2586L19.9267 17.2262L19.9202 17.1938L19.9133 17.1613L19.9061 17.1292L19.8987 17.0971L19.8908 17.0653L19.8827 17.0337L19.8742 17.0018L19.8655 16.9706L19.8564 16.9391L19.8471 16.9082L19.8374 16.8772L19.8274 16.8465L19.8171 16.8158L19.8064 16.7853L19.7956 16.7552L19.7844 16.7252L19.7729 16.6951L19.7611 16.6655L19.7491 16.6358L19.7368 16.6067L19.7241 16.5774L19.7113 16.5485L19.6981 16.5198L19.6847 16.4912L19.671 16.4629L19.657 16.4347L19.6427 16.4067L19.6283 16.379L19.6135 16.3515L19.5985 16.3242L19.5832 16.2971L19.5676 16.2702L19.5519 16.2436L19.5359 16.2172L19.5196 16.1909L19.5031 16.165L19.4864 16.1393L19.4695 16.1138L19.4523 16.0884L19.4349 16.0634L19.4172 16.0386L19.3994 16.014L19.3813 15.9897L19.363 15.9656L19.3446 15.9418L19.3258 15.9181L19.3069 15.8948L19.2878 15.8717L19.2685 15.8488L19.249 15.8262L19.2294 15.8038L19.2095 15.7818L19.1894 15.7599L19.1691 15.7382L19.1487 15.717L19.1281 15.6959L19.1073 15.675L19.0864 15.6546L19.0653 15.6343L19.0441 15.6143L19.0225 15.5945L19.0011 15.575L18.9793 15.5558L18.9575 15.5369L18.9354 15.5182L18.9132 15.4998L18.8909 15.4817L18.8685 15.4638L18.8459 15.4462L18.8232 15.4289L18.8004 15.4119L18.7775 15.3951L18.7543 15.3786L18.7312 15.3625L18.7079 15.3465L18.6846 15.3309L18.6611 15.3155L18.6374 15.3004L18.6138 15.2856L18.5899 15.271L18.566 15.2568L18.5421 15.2429L18.518 15.2292L18.4938 15.2158L18.4696 15.2026L18.4454 15.1898L18.421 15.1772L18.3967 15.165L18.372 15.1529L18.3475 15.1412L18.3229 15.1298L18.2983 15.1186L18.2735 15.1078L18.2487 15.0971L18.224 15.0869L18.1991 15.0769L18.1741 15.0671L18.1492 15.0577L18.1243 15.0485L18.0993 15.0396L18.0743 15.031L18.0492 15.0226L18.0243 15.0146L17.9991 15.0067L17.974 14.9992L17.9491 14.992L17.9238 14.985L17.8988 14.9784L17.8737 14.972L17.8486 14.9658L17.8235 14.96L17.7984 14.9544L17.7733 14.9491L17.7483 14.9441L17.7233 14.9393L17.6983 14.9348L17.6732 14.9306L17.6484 14.9266L17.6233 14.923L17.5986 14.9195L17.5736 14.9163L17.5488 14.9134L17.5242 14.9108L17.4994 14.9085L17.4747 14.9063L17.4501 14.9045L17.4255 14.9029L17.401 14.9015L17.3765 14.9005L17.3523 14.8997L17.3279 14.899L17.3036 14.8987L17.2794 14.8986L17.2553 14.8989L17.2312 14.8993L17.2073 14.8999L17.1834 14.9009L17.1597 14.902L17.1359 14.9034L17.1123 14.905L17.0888 14.9069L17.0654 14.909L17.0421 14.9114L17.0187 14.9139L16.9957 14.9167L16.9727 14.9198L16.9498 14.923L16.9269 14.9266L16.9043 14.9302L16.8816 14.9342L16.8593 14.9383L16.8368 14.9427L16.8147 14.9473L16.7925 14.9521L16.7706 14.9571Z" fill="#697077"/>
<path d="M49.0271 19.5352C49.0271 19.2305 48.9802 18.957 48.8865 18.7148C48.8005 18.4648 48.6365 18.2383 48.3943 18.0352C48.1521 17.8242 47.8123 17.6172 47.3748 17.4141C46.9373 17.2109 46.3708 17 45.6755 16.7812C44.9021 16.5312 44.1677 16.25 43.4724 15.9375C42.7849 15.625 42.1755 15.2617 41.6443 14.8477C41.1208 14.4258 40.7068 13.9375 40.4021 13.3828C40.1052 12.8281 39.9568 12.1836 39.9568 11.4492C39.9568 10.7383 40.113 10.0938 40.4255 9.51562C40.738 8.92969 41.1755 8.42969 41.738 8.01562C42.3005 7.59375 42.9646 7.26953 43.7302 7.04297C44.5037 6.81641 45.3513 6.70312 46.2732 6.70312C47.531 6.70312 48.6287 6.92969 49.5662 7.38281C50.5037 7.83594 51.2302 8.45703 51.7458 9.24609C52.2693 10.0352 52.531 10.9375 52.531 11.9531H49.0388C49.0388 11.4531 48.9333 11.0156 48.7224 10.6406C48.5193 10.2578 48.2068 9.95703 47.7849 9.73828C47.3708 9.51953 46.8474 9.41016 46.2146 9.41016C45.6052 9.41016 45.0974 9.50391 44.6912 9.69141C44.2849 9.87109 43.9802 10.1172 43.7771 10.4297C43.574 10.7344 43.4724 11.0781 43.4724 11.4609C43.4724 11.75 43.5427 12.0117 43.6833 12.2461C43.8318 12.4805 44.0505 12.6992 44.3396 12.9023C44.6287 13.1055 44.9841 13.2969 45.406 13.4766C45.8279 13.6562 46.3162 13.832 46.8708 14.0039C47.8005 14.2852 48.6169 14.6016 49.3201 14.9531C50.031 15.3047 50.6248 15.6992 51.1013 16.1367C51.5779 16.5742 51.9373 17.0703 52.1794 17.625C52.4216 18.1797 52.5427 18.8086 52.5427 19.5117C52.5427 20.2539 52.3982 20.918 52.1091 21.5039C51.8201 22.0898 51.4021 22.5859 50.8552 22.9922C50.3083 23.3984 49.656 23.707 48.8982 23.918C48.1404 24.1289 47.2927 24.2344 46.3552 24.2344C45.5115 24.2344 44.6794 24.125 43.8591 23.9062C43.0388 23.6797 42.2927 23.3398 41.6208 22.8867C40.9568 22.4336 40.4255 21.8555 40.0271 21.1523C39.6287 20.4492 39.4294 19.6172 39.4294 18.6562H42.9568C42.9568 19.1875 43.0388 19.6367 43.2029 20.0039C43.3669 20.3711 43.5974 20.668 43.8943 20.8945C44.199 21.1211 44.5583 21.2852 44.9724 21.3867C45.3943 21.4883 45.8552 21.5391 46.3552 21.5391C46.9646 21.5391 47.4646 21.4531 47.8552 21.2812C48.2537 21.1094 48.5466 20.8711 48.7341 20.5664C48.9294 20.2617 49.0271 19.918 49.0271 19.5352ZM66.3123 13.8867V16.6289H57.406V13.8867H66.3123ZM58.449 6.9375V24H54.9333V6.9375H58.449ZM68.8201 6.9375V24H65.3162V6.9375H68.8201ZM83.3279 21.2578V24H74.2458V21.2578H83.3279ZM75.3943 6.9375V24H71.8787V6.9375H75.3943ZM82.1443 13.8867V16.5586H74.2458V13.8867H82.1443ZM83.3162 6.9375V9.69141H74.2458V6.9375H83.3162ZM96.3474 21.2578V24H87.7576V21.2578H96.3474ZM88.8943 6.9375V24H85.3787V6.9375H88.8943ZM109.332 21.2578V24H100.742V21.2578H109.332ZM101.879 6.9375V24H98.363V6.9375H101.879ZM120.23 19.5352C120.23 19.2305 120.183 18.957 120.09 18.7148C120.004 18.4648 119.84 18.2383 119.597 18.0352C119.355 17.8242 119.015 17.6172 118.578 17.4141C118.14 17.2109 117.574 17 116.879 16.7812C116.105 16.5312 115.371 16.25 114.676 15.9375C113.988 15.625 113.379 15.2617 112.847 14.8477C112.324 14.4258 111.91 13.9375 111.605 13.3828C111.308 12.8281 111.16 12.1836 111.16 11.4492C111.16 10.7383 111.316 10.0938 111.629 9.51562C111.941 8.92969 112.379 8.42969 112.941 8.01562C113.504 7.59375 114.168 7.26953 114.933 7.04297C115.707 6.81641 116.554 6.70312 117.476 6.70312C118.734 6.70312 119.832 6.92969 120.769 7.38281C121.707 7.83594 122.433 8.45703 122.949 9.24609C123.472 10.0352 123.734 10.9375 123.734 11.9531H120.242C120.242 11.4531 120.136 11.0156 119.926 10.6406C119.722 10.2578 119.41 9.95703 118.988 9.73828C118.574 9.51953 118.051 9.41016 117.418 9.41016C116.808 9.41016 116.301 9.50391 115.894 9.69141C115.488 9.87109 115.183 10.1172 114.98 10.4297C114.777 10.7344 114.676 11.0781 114.676 11.4609C114.676 11.75 114.746 12.0117 114.886 12.2461C115.035 12.4805 115.254 12.6992 115.543 12.9023C115.832 13.1055 116.187 13.2969 116.609 13.4766C117.031 13.6562 117.519 13.832 118.074 14.0039C119.004 14.2852 119.82 14.6016 120.523 14.9531C121.234 15.3047 121.828 15.6992 122.304 16.1367C122.781 16.5742 123.14 17.0703 123.383 17.625C123.625 18.1797 123.746 18.8086 123.746 19.5117C123.746 20.2539 123.601 20.918 123.312 21.5039C123.023 22.0898 122.605 22.5859 122.058 22.9922C121.511 23.3984 120.859 23.707 120.101 23.918C119.344 24.1289 118.496 24.2344 117.558 24.2344C116.715 24.2344 115.883 24.125 115.062 23.9062C114.242 23.6797 113.496 23.3398 112.824 22.8867C112.16 22.4336 111.629 21.8555 111.23 21.1523C110.832 20.4492 110.633 19.6172 110.633 18.6562H114.16C114.16 19.1875 114.242 19.6367 114.406 20.0039C114.57 20.3711 114.801 20.668 115.097 20.8945C115.402 21.1211 115.761 21.2852 116.176 21.3867C116.597 21.4883 117.058 21.5391 117.558 21.5391C118.168 21.5391 118.668 21.4531 119.058 21.2812C119.457 21.1094 119.75 20.8711 119.937 20.5664C120.133 20.2617 120.23 19.918 120.23 19.5352Z" fill="#697077"/>
</svg>
