<svg width="177" height="32" viewBox="0 0 177 32" fill="none" xmlns="http://www.w3.org/2000/svg">
<path d="M23.3019 26.4845L1.88925 11.714C-0.280657 10.2173 0.456968 7.10088 3.16279 6.36802L25.9206 0.191307C26.4026 0.0173566 26.9192 -0.0391112 27.4276 0.0265948C27.9358 0.0923008 28.4211 0.278283 28.8431 0.569108C29.2651 0.859932 29.6117 1.24721 29.854 1.6988C30.0963 2.15038 30.2274 2.65326 30.2365 3.16568L28.8878 24.1116C28.7278 26.5978 25.4718 27.9812 23.3019 26.4845Z" fill="#697077"/>
<path d="M16.5105 30.1304L3.89561 5.46055C3.60724 4.89618 3.48035 4.26312 3.52892 3.63121C3.57748 2.9993 3.79963 2.39308 4.17084 1.8794C4.54207 1.36572 5.04794 0.96454 5.63268 0.720098C6.21742 0.475655 6.85831 0.397452 7.48467 0.494119L30.8631 4.10227C31.4013 4.18535 31.9121 4.395 32.3536 4.71398C32.795 5.03297 33.1544 5.45218 33.4023 5.93714C33.6501 6.4221 33.7794 6.95895 33.7792 7.50358C33.7791 8.04819 33.6497 8.58502 33.4018 9.0699L22.6323 30.1316C22.3431 30.6943 21.9043 31.1665 21.3642 31.4961C20.8241 31.8257 20.2037 32 19.571 31.9999C18.9383 31.9997 18.3179 31.8252 17.7779 31.4955C17.2379 31.1656 16.7994 30.6933 16.5105 30.1304Z" fill="#697077"/>
<path d="M24.2 8.72693L19.7112 8L14.2 9.57011L16.3997 14.0856L21.551 17.8153C21.6646 17.8966 21.7896 17.959 21.9215 18L23.8781 13.9852L24.2 8.72693Z" fill="white"/>
<path d="M52.1855 19.5352C52.1855 19.2305 52.1387 18.957 52.0449 18.7148C51.959 18.4648 51.7949 18.2383 51.5527 18.0352C51.3105 17.8242 50.9707 17.6172 50.5332 17.4141C50.0957 17.2109 49.5293 17 48.834 16.7812C48.0605 16.5312 47.3262 16.25 46.6309 15.9375C45.9434 15.625 45.334 15.2617 44.8027 14.8477C44.2793 14.4258 43.8652 13.9375 43.5605 13.3828C43.2637 12.8281 43.1152 12.1836 43.1152 11.4492C43.1152 10.7383 43.2715 10.0938 43.584 9.51562C43.8965 8.92969 44.334 8.42969 44.8965 8.01562C45.459 7.59375 46.123 7.26953 46.8887 7.04297C47.6621 6.81641 48.5098 6.70312 49.4316 6.70312C50.6895 6.70312 51.7871 6.92969 52.7246 7.38281C53.6621 7.83594 54.3887 8.45703 54.9043 9.24609C55.4277 10.0352 55.6895 10.9375 55.6895 11.9531H52.1973C52.1973 11.4531 52.0918 11.0156 51.8809 10.6406C51.6777 10.2578 51.3652 9.95703 50.9434 9.73828C50.5293 9.51953 50.0059 9.41016 49.373 9.41016C48.7637 9.41016 48.2559 9.50391 47.8496 9.69141C47.4434 9.87109 47.1387 10.1172 46.9355 10.4297C46.7324 10.7344 46.6309 11.0781 46.6309 11.4609C46.6309 11.75 46.7012 12.0117 46.8418 12.2461C46.9902 12.4805 47.209 12.6992 47.498 12.9023C47.7871 13.1055 48.1426 13.2969 48.5645 13.4766C48.9863 13.6562 49.4746 13.832 50.0293 14.0039C50.959 14.2852 51.7754 14.6016 52.4785 14.9531C53.1895 15.3047 53.7832 15.6992 54.2598 16.1367C54.7363 16.5742 55.0957 17.0703 55.3379 17.625C55.5801 18.1797 55.7012 18.8086 55.7012 19.5117C55.7012 20.2539 55.5566 20.918 55.2676 21.5039C54.9785 22.0898 54.5605 22.5859 54.0137 22.9922C53.4668 23.3984 52.8145 23.707 52.0566 23.918C51.2988 24.1289 50.4512 24.2344 49.5137 24.2344C48.6699 24.2344 47.8379 24.125 47.0176 23.9062C46.1973 23.6797 45.4512 23.3398 44.7793 22.8867C44.1152 22.4336 43.584 21.8555 43.1855 21.1523C42.7871 20.4492 42.5879 19.6172 42.5879 18.6562H46.1152C46.1152 19.1875 46.1973 19.6367 46.3613 20.0039C46.5254 20.3711 46.7559 20.668 47.0527 20.8945C47.3574 21.1211 47.7168 21.2852 48.1309 21.3867C48.5527 21.4883 49.0137 21.5391 49.5137 21.5391C50.123 21.5391 50.623 21.4531 51.0137 21.2812C51.4121 21.1094 51.7051 20.8711 51.8926 20.5664C52.0879 20.2617 52.1855 19.918 52.1855 19.5352ZM61.2559 13.9453V24H57.8691V11.3203H61.0449L61.2559 13.9453ZM60.7871 17.2148H59.8496C59.8496 16.332 59.9551 15.5195 60.166 14.7773C60.3848 14.0273 60.7012 13.3789 61.1152 12.832C61.5371 12.2773 62.0566 11.8477 62.6738 11.543C63.291 11.2383 64.0059 11.0859 64.8184 11.0859C65.3809 11.0859 65.8965 11.1719 66.3652 11.3438C66.834 11.5078 67.2363 11.7695 67.5723 12.1289C67.916 12.4805 68.1816 12.9414 68.3691 13.5117C68.5566 14.0742 68.6504 14.75 68.6504 15.5391V24H65.2754V15.9141C65.2754 15.3359 65.1973 14.8906 65.041 14.5781C64.8848 14.2656 64.6621 14.0469 64.373 13.9219C64.0918 13.7969 63.752 13.7344 63.3535 13.7344C62.916 13.7344 62.5332 13.8242 62.2051 14.0039C61.8848 14.1836 61.6191 14.4336 61.4082 14.7539C61.1973 15.0664 61.041 15.4336 60.9395 15.8555C60.8379 16.2773 60.7871 16.7305 60.7871 17.2148ZM68.334 16.8281L67.127 16.9805C67.127 16.1523 67.2285 15.3828 67.4316 14.6719C67.6426 13.9609 67.9512 13.3359 68.3574 12.7969C68.7715 12.2578 69.2832 11.8398 69.8926 11.543C70.502 11.2383 71.2051 11.0859 72.002 11.0859C72.6113 11.0859 73.166 11.1758 73.666 11.3555C74.166 11.5273 74.5918 11.8047 74.9434 12.1875C75.3027 12.5625 75.5762 13.0547 75.7637 13.6641C75.959 14.2734 76.0566 15.0195 76.0566 15.9023V24H72.6699V15.9023C72.6699 15.3164 72.5918 14.8711 72.4355 14.5664C72.2871 14.2539 72.0684 14.0391 71.7793 13.9219C71.498 13.7969 71.1621 13.7344 70.7715 13.7344C70.3652 13.7344 70.0098 13.8164 69.7051 13.9805C69.4004 14.1367 69.1465 14.3555 68.9434 14.6367C68.7402 14.918 68.5879 15.2461 68.4863 15.6211C68.3848 15.9883 68.334 16.3906 68.334 16.8281ZM85.5137 21.1406V15.4922C85.5137 15.0859 85.4473 14.7383 85.3145 14.4492C85.1816 14.1523 84.9746 13.9219 84.6934 13.7578C84.4199 13.5938 84.0645 13.5117 83.627 13.5117C83.252 13.5117 82.9277 13.5781 82.6543 13.7109C82.3809 13.8359 82.1699 14.0195 82.0215 14.2617C81.873 14.4961 81.7988 14.7734 81.7988 15.0938H78.4238C78.4238 14.5547 78.5488 14.043 78.7988 13.5586C79.0488 13.0742 79.4121 12.6484 79.8887 12.2812C80.3652 11.9062 80.9316 11.6133 81.5879 11.4023C82.252 11.1914 82.9941 11.0859 83.8145 11.0859C84.7988 11.0859 85.6738 11.25 86.4395 11.5781C87.2051 11.9062 87.8066 12.3984 88.2441 13.0547C88.6895 13.7109 88.9121 14.5312 88.9121 15.5156V20.9414C88.9121 21.6367 88.9551 22.207 89.041 22.6523C89.127 23.0898 89.252 23.4727 89.416 23.8008V24H86.0059C85.8418 23.6562 85.7168 23.2266 85.6309 22.7109C85.5527 22.1875 85.5137 21.6641 85.5137 21.1406ZM85.959 16.2773L85.9824 18.1875H84.0957C83.6504 18.1875 83.2637 18.2383 82.9355 18.3398C82.6074 18.4414 82.3379 18.5859 82.127 18.7734C81.916 18.9531 81.7598 19.1641 81.6582 19.4062C81.5645 19.6484 81.5176 19.9141 81.5176 20.2031C81.5176 20.4922 81.584 20.7539 81.7168 20.9883C81.8496 21.2148 82.041 21.3945 82.291 21.5273C82.541 21.6523 82.834 21.7148 83.1699 21.7148C83.6777 21.7148 84.1191 21.6133 84.4941 21.4102C84.8691 21.207 85.1582 20.957 85.3613 20.6602C85.5723 20.3633 85.6816 20.082 85.6895 19.8164L86.5801 21.2461C86.4551 21.5664 86.2832 21.8984 86.0645 22.2422C85.8535 22.5859 85.584 22.9102 85.2559 23.2148C84.9277 23.5117 84.5332 23.7578 84.0723 23.9531C83.6113 24.1406 83.0645 24.2344 82.4316 24.2344C81.627 24.2344 80.8965 24.0742 80.2402 23.7539C79.5918 23.4258 79.0762 22.9766 78.6934 22.4062C78.3184 21.8281 78.1309 21.1719 78.1309 20.4375C78.1309 19.7734 78.2559 19.1836 78.5059 18.668C78.7559 18.1523 79.123 17.7188 79.6074 17.3672C80.0996 17.0078 80.7129 16.7383 81.4473 16.5586C82.1816 16.3711 83.0332 16.2773 84.002 16.2773H85.959ZM94.8887 14.0859V24H91.5137V11.3203H94.6895L94.8887 14.0859ZM98.709 11.2383L98.6504 14.3672C98.4863 14.3438 98.2871 14.3242 98.0527 14.3086C97.8262 14.2852 97.6191 14.2734 97.4316 14.2734C96.9551 14.2734 96.541 14.3359 96.1895 14.4609C95.8457 14.5781 95.5566 14.7539 95.3223 14.9883C95.0957 15.2227 94.9238 15.5078 94.8066 15.8438C94.6973 16.1797 94.6348 16.5625 94.6191 16.9922L93.9395 16.7812C93.9395 15.9609 94.0215 15.207 94.1855 14.5195C94.3496 13.8242 94.5879 13.2188 94.9004 12.7031C95.2207 12.1875 95.6113 11.7891 96.0723 11.5078C96.5332 11.2266 97.0605 11.0859 97.6543 11.0859C97.8418 11.0859 98.0332 11.1016 98.2285 11.1328C98.4238 11.1562 98.584 11.1914 98.709 11.2383ZM107.1 11.3203V13.7109H99.7168V11.3203H107.1ZM101.545 8.19141H104.92V20.1797C104.92 20.5469 104.967 20.8281 105.061 21.0234C105.162 21.2188 105.311 21.3555 105.506 21.4336C105.701 21.5039 105.947 21.5391 106.244 21.5391C106.455 21.5391 106.643 21.5312 106.807 21.5156C106.979 21.4922 107.123 21.4688 107.24 21.4453L107.252 23.9297C106.963 24.0234 106.65 24.0977 106.314 24.1523C105.979 24.207 105.607 24.2344 105.201 24.2344C104.459 24.2344 103.811 24.1133 103.256 23.8711C102.709 23.6211 102.287 23.2227 101.99 22.6758C101.693 22.1289 101.545 21.4102 101.545 20.5195V8.19141ZM112.748 6.9375V24H109.232V6.9375H112.748ZM119.545 14.2266V16.9688H111.787V14.2266H119.545ZM120.365 6.9375V9.69141H111.787V6.9375H120.365ZM125.756 11.3203V24H122.369V11.3203H125.756ZM122.158 8.01562C122.158 7.52344 122.33 7.11719 122.674 6.79688C123.018 6.47656 123.479 6.31641 124.057 6.31641C124.627 6.31641 125.084 6.47656 125.428 6.79688C125.779 7.11719 125.955 7.52344 125.955 8.01562C125.955 8.50781 125.779 8.91406 125.428 9.23438C125.084 9.55469 124.627 9.71484 124.057 9.71484C123.479 9.71484 123.018 9.55469 122.674 9.23438C122.33 8.91406 122.158 8.50781 122.158 8.01562ZM131.85 14.0273V24H128.475V11.3203H131.639L131.85 14.0273ZM131.357 17.2148H130.443C130.443 16.2773 130.564 15.4336 130.807 14.6836C131.049 13.9258 131.389 13.2812 131.826 12.75C132.264 12.2109 132.783 11.8008 133.385 11.5195C133.994 11.2305 134.674 11.0859 135.424 11.0859C136.018 11.0859 136.561 11.1719 137.053 11.3438C137.545 11.5156 137.967 11.7891 138.318 12.1641C138.678 12.5391 138.951 13.0352 139.139 13.6523C139.334 14.2695 139.432 15.0234 139.432 15.9141V24H136.033V15.9023C136.033 15.3398 135.955 14.9023 135.799 14.5898C135.643 14.2773 135.412 14.0586 135.107 13.9336C134.811 13.8008 134.443 13.7344 134.006 13.7344C133.553 13.7344 133.158 13.8242 132.822 14.0039C132.494 14.1836 132.221 14.4336 132.002 14.7539C131.791 15.0664 131.631 15.4336 131.521 15.8555C131.412 16.2773 131.357 16.7305 131.357 17.2148ZM149.486 21.2344V6H152.885V24H149.826L149.486 21.2344ZM141.471 17.8125V17.5664C141.471 16.5977 141.58 15.7188 141.799 14.9297C142.018 14.1328 142.338 13.4492 142.76 12.8789C143.182 12.3086 143.701 11.8672 144.318 11.5547C144.936 11.2422 145.639 11.0859 146.428 11.0859C147.17 11.0859 147.818 11.2422 148.373 11.5547C148.936 11.8672 149.412 12.3125 149.803 12.8906C150.201 13.4609 150.521 14.1367 150.764 14.918C151.006 15.6914 151.182 16.5391 151.291 17.4609V18C151.182 18.8828 151.006 19.7031 150.764 20.4609C150.521 21.2188 150.201 21.8828 149.803 22.4531C149.412 23.0156 148.936 23.4531 148.373 23.7656C147.811 24.0781 147.154 24.2344 146.404 24.2344C145.615 24.2344 144.912 24.0742 144.295 23.7539C143.686 23.4336 143.17 22.9844 142.748 22.4062C142.334 21.8281 142.018 21.1484 141.799 20.3672C141.58 19.5859 141.471 18.7344 141.471 17.8125ZM144.846 17.5664V17.8125C144.846 18.3359 144.885 18.8242 144.963 19.2773C145.049 19.7305 145.186 20.1328 145.373 20.4844C145.568 20.8281 145.818 21.0977 146.123 21.293C146.436 21.4805 146.814 21.5742 147.26 21.5742C147.838 21.5742 148.314 21.4453 148.689 21.1875C149.064 20.9219 149.35 20.5586 149.545 20.0977C149.748 19.6367 149.865 19.1055 149.896 18.5039V16.9688C149.873 16.4766 149.803 16.0352 149.686 15.6445C149.576 15.2461 149.412 14.9062 149.193 14.625C148.982 14.3438 148.717 14.125 148.396 13.9688C148.084 13.8125 147.713 13.7344 147.283 13.7344C146.846 13.7344 146.471 13.8359 146.158 14.0391C145.846 14.2344 145.592 14.5039 145.396 14.8477C145.209 15.1914 145.068 15.5977 144.975 16.0664C144.889 16.5273 144.846 17.0273 144.846 17.5664ZM161.357 24.2344C160.373 24.2344 159.49 24.0781 158.709 23.7656C157.928 23.4453 157.264 23.0039 156.717 22.4414C156.178 21.8789 155.764 21.2266 155.475 20.4844C155.186 19.7344 155.041 18.9375 155.041 18.0938V17.625C155.041 16.6641 155.178 15.7852 155.451 14.9883C155.725 14.1914 156.115 13.5 156.623 12.9141C157.139 12.3281 157.764 11.8789 158.498 11.5664C159.232 11.2461 160.061 11.0859 160.982 11.0859C161.881 11.0859 162.678 11.2344 163.373 11.5312C164.068 11.8281 164.65 12.25 165.119 12.7969C165.596 13.3438 165.955 14 166.197 14.7656C166.439 15.5234 166.561 16.3672 166.561 17.2969V18.7031H156.482V16.4531H163.244V16.1953C163.244 15.7266 163.158 15.3086 162.986 14.9414C162.822 14.5664 162.572 14.2695 162.236 14.0508C161.9 13.832 161.471 13.7227 160.947 13.7227C160.502 13.7227 160.119 13.8203 159.799 14.0156C159.479 14.2109 159.217 14.4844 159.014 14.8359C158.818 15.1875 158.67 15.6016 158.568 16.0781C158.475 16.5469 158.428 17.0625 158.428 17.625V18.0938C158.428 18.6016 158.498 19.0703 158.639 19.5C158.787 19.9297 158.994 20.3008 159.26 20.6133C159.533 20.9258 159.861 21.168 160.244 21.3398C160.635 21.5117 161.076 21.5977 161.568 21.5977C162.178 21.5977 162.744 21.4805 163.268 21.2461C163.799 21.0039 164.256 20.6406 164.639 20.1562L166.279 21.9375C166.014 22.3203 165.65 22.6875 165.189 23.0391C164.736 23.3906 164.189 23.6797 163.549 23.9062C162.908 24.125 162.178 24.2344 161.357 24.2344ZM171.857 14.0859V24H168.482V11.3203H171.658L171.857 14.0859ZM175.678 11.2383L175.619 14.3672C175.455 14.3438 175.256 14.3242 175.021 14.3086C174.795 14.2852 174.588 14.2734 174.4 14.2734C173.924 14.2734 173.51 14.3359 173.158 14.4609C172.814 14.5781 172.525 14.7539 172.291 14.9883C172.064 15.2227 171.893 15.5078 171.775 15.8438C171.666 16.1797 171.604 16.5625 171.588 16.9922L170.908 16.7812C170.908 15.9609 170.99 15.207 171.154 14.5195C171.318 13.8242 171.557 13.2188 171.869 12.7031C172.189 12.1875 172.58 11.7891 173.041 11.5078C173.502 11.2266 174.029 11.0859 174.623 11.0859C174.811 11.0859 175.002 11.1016 175.197 11.1328C175.393 11.1562 175.553 11.1914 175.678 11.2383Z" fill="#697077"/>
</svg>
