<svg width="25" height="24" viewBox="0 0 25 24" fill="none" xmlns="http://www.w3.org/2000/svg">
<path d="M22.75 5.90716C22.0004 6.23454 21.2065 6.4492 20.394 6.54416C21.2468 6.0434 21.888 5.24927 22.198 4.31016C21.39 4.78049 20.5087 5.11177 19.591 5.29016C19.2045 4.88537 18.7397 4.56355 18.2248 4.34434C17.7098 4.12513 17.1556 4.01313 16.596 4.01516C14.33 4.01516 12.493 5.82516 12.493 8.05516C12.493 8.37116 12.529 8.68016 12.599 8.97516C10.9736 8.89786 9.38212 8.48257 7.92617 7.7558C6.47022 7.02903 5.18176 6.00674 4.143 4.75416C3.77883 5.36857 3.58742 6.06994 3.589 6.78416C3.5897 7.45213 3.75683 8.10939 4.07529 8.69656C4.39375 9.28372 4.8535 9.78228 5.413 10.1472C4.76248 10.1262 4.12602 9.95249 3.555 9.64016V9.69016C3.555 11.6482 4.97 13.2812 6.845 13.6532C6.49261 13.7467 6.12958 13.7941 5.765 13.7942C5.5 13.7942 5.243 13.7692 4.992 13.7192C5.26008 14.5271 5.77311 15.2315 6.45982 15.7345C7.14653 16.2375 7.97284 16.5142 8.824 16.5262C7.36407 17.6507 5.57182 18.2582 3.729 18.2532C3.397 18.2532 3.071 18.2332 2.75 18.1972C4.63125 19.3879 6.81259 20.0184 9.039 20.0152C16.586 20.0152 20.712 13.8582 20.712 8.51916L20.698 7.99616C21.5029 7.42983 22.1981 6.72201 22.75 5.90716Z" fill="#697077"/>
</svg>
