<svg width="49" height="48" viewBox="0 0 49 48" fill="none" xmlns="http://www.w3.org/2000/svg">
<rect x="0.5" width="48" height="48" rx="24" fill="#F2F4F8"/>
<path d="M21.034 24.07C21.1569 24.0175 21.2892 23.9903 21.4228 23.9898C21.5565 23.9893 21.6889 24.0156 21.8122 24.0672C21.9355 24.1188 22.0473 24.1945 22.1408 24.29C22.2344 24.3855 22.3078 24.4988 22.3568 24.6231C22.4058 24.7475 22.4294 24.8804 22.4262 25.014C22.4229 25.1477 22.3929 25.2793 22.3379 25.4011C22.2829 25.523 22.2041 25.6325 22.106 25.7234C22.008 25.8142 21.8927 25.8845 21.767 25.93C21.0985 26.1934 20.5248 26.6519 20.1205 27.2458C19.7162 27.8397 19.5 28.5415 19.5 29.26V31C19.5 31.2652 19.6054 31.5196 19.7929 31.7071C19.9804 31.8946 20.2348 32 20.5 32H28.5C28.7652 32 29.0196 31.8946 29.2071 31.7071C29.3946 31.5196 29.5 31.2652 29.5 31V29.353C29.5001 28.6115 29.2749 27.8874 28.8541 27.2768C28.4334 26.6662 27.837 26.1979 27.144 25.934C27.0175 25.8901 26.9012 25.8213 26.8018 25.7316C26.7024 25.6419 26.6221 25.5332 26.5655 25.4119C26.509 25.2905 26.4773 25.1591 26.4725 25.0253C26.4677 24.8916 26.4897 24.7582 26.5374 24.6331C26.5851 24.508 26.6574 24.3938 26.75 24.2972C26.8427 24.2006 26.9538 24.1235 27.0767 24.0706C27.1997 24.0177 27.332 23.9901 27.4659 23.9893C27.5998 23.9885 27.7324 24.0146 27.856 24.066C28.9276 24.4742 29.8499 25.1983 30.5006 26.1425C31.1514 27.0867 31.4999 28.2063 31.5 29.353V31C31.5 31.7956 31.1839 32.5587 30.6213 33.1213C30.0587 33.6839 29.2956 34 28.5 34H20.5C19.7044 34 18.9413 33.6839 18.3787 33.1213C17.8161 32.5587 17.5 31.7956 17.5 31V29.26C17.5001 28.1402 17.8373 27.0463 18.4676 26.1206C19.0978 25.195 19.9921 24.4805 21.034 24.07ZM24.5 14C25.5609 14 26.5783 14.4214 27.3284 15.1716C28.0786 15.9217 28.5 16.9391 28.5 18V20C28.5 21.0609 28.0786 22.0783 27.3284 22.8284C26.5783 23.5786 25.5609 24 24.5 24C23.4391 24 22.4217 23.5786 21.6716 22.8284C20.9214 22.0783 20.5 21.0609 20.5 20V18C20.5 16.9391 20.9214 15.9217 21.6716 15.1716C22.4217 14.4214 23.4391 14 24.5 14V14ZM24.5 16C23.9696 16 23.4609 16.2107 23.0858 16.5858C22.7107 16.9609 22.5 17.4696 22.5 18V20C22.5 20.5304 22.7107 21.0391 23.0858 21.4142C23.4609 21.7893 23.9696 22 24.5 22C25.0304 22 25.5391 21.7893 25.9142 21.4142C26.2893 21.0391 26.5 20.5304 26.5 20V18C26.5 17.4696 26.2893 16.9609 25.9142 16.5858C25.5391 16.2107 25.0304 16 24.5 16Z" fill="#C1C7CD"/>
</svg>
