<svg width="188" height="32" viewBox="0 0 188 32" fill="none" xmlns="http://www.w3.org/2000/svg">
<path d="M10.1666 19.9817V28.1025C10.1666 28.4138 10.043 28.7124 9.82282 28.9324C9.60278 29.1526 9.30424 29.2762 8.99289 29.2762C8.68165 29.2762 8.3831 29.1526 8.16295 28.9324C7.9428 28.7124 7.81914 28.4138 7.81914 28.1025V19.993C8.14599 20.2317 8.53776 20.3649 8.94234 20.3749C9.38331 20.3874 9.8154 20.2487 10.1666 19.9817ZM20.1631 17.6343C19.8652 17.6343 19.5795 17.7526 19.3689 17.9632C19.1583 18.1738 19.0399 18.4596 19.0399 18.7575V20.1727C19.0399 20.484 19.1636 20.7826 19.3837 21.0026C19.6038 21.2228 19.9023 21.3464 20.2137 21.3464C20.525 21.3464 20.8236 21.2228 21.0436 21.0026C21.2637 20.7826 21.3874 20.484 21.3874 20.1727V18.8136C21.3962 18.6526 21.3701 18.4915 21.311 18.3414C21.252 18.1914 21.1613 18.0557 21.0451 17.9438C20.9289 17.8319 20.79 17.7464 20.6379 17.6929C20.4857 17.6395 20.3237 17.6195 20.1631 17.6343ZM5.26947 23.0593C4.86531 23.0472 4.47406 22.9142 4.14627 22.6774V30.8206C4.14627 31.1335 4.27052 31.4335 4.4917 31.6546C4.71287 31.8758 5.01284 32 5.32563 32C5.63842 32 5.9384 31.8758 6.15957 31.6546C6.38075 31.4335 6.50499 31.1335 6.50499 30.8206V22.7336C6.13821 22.9707 5.70545 23.0848 5.26947 23.0593ZM16.5015 15.1969C16.3493 15.1893 16.1972 15.2127 16.0543 15.2658C15.9116 15.3188 15.7811 15.4003 15.6707 15.5053C15.5604 15.6105 15.4726 15.7368 15.4127 15.8769C15.3528 16.017 15.3219 16.1678 15.3221 16.3201V22.5763C15.3221 22.8892 15.4464 23.1892 15.6675 23.4103C15.8888 23.6315 16.1887 23.7557 16.5015 23.7557C16.8143 23.7557 17.1143 23.6315 17.3355 23.4103C17.5566 23.1892 17.6808 22.8892 17.6808 22.5763V16.3987C17.6898 16.2367 17.6635 16.0746 17.6038 15.9236C17.544 15.7727 17.4524 15.6364 17.3349 15.5243C17.2174 15.4122 17.0771 15.3269 16.9236 15.2743C16.77 15.2216 16.6068 15.2029 16.4453 15.2194L16.5015 15.1969ZM12.7725 17.6006C12.3493 17.5976 11.9376 17.4643 11.5931 17.2187V25.3843C11.5931 25.6972 11.7173 25.9972 11.9385 26.2183C12.1597 26.4395 12.4596 26.5637 12.7725 26.5637C13.0853 26.5637 13.3852 26.4395 13.6064 26.2183C13.8276 25.9972 13.9518 25.6972 13.9518 25.3843V17.2299C13.5955 17.4953 13.1605 17.6337 12.7163 17.623L12.7725 17.6006ZM2.71981 23.8568V1.04458C2.71685 0.766506 2.60431 0.500847 2.40662 0.305264C2.20894 0.109681 1.94208 -1.12311e-05 1.664 8.625e-10H1.41689C1.13881 -1.12311e-05 0.87195 0.109681 0.674266 0.305264C0.476583 0.500847 0.364038 0.766506 0.361084 1.04458V23.8568C0.361084 24.1368 0.472326 24.4054 0.670324 24.6034C0.868322 24.8014 1.13688 24.9126 1.41689 24.9126H1.664C1.94402 24.9126 2.21257 24.8014 2.41057 24.6034C2.60858 24.4054 2.71981 24.1368 2.71981 23.8568ZM5.39302 22.1945H5.14592C4.86591 22.1945 4.59735 22.0833 4.39935 21.8852C4.20135 21.6872 4.09011 21.4187 4.09011 21.1386V3.76272C4.09308 3.48466 4.20561 3.21898 4.40329 3.02341C4.60098 2.82783 4.86784 2.71814 5.14592 2.71815H5.39302C5.67111 2.71814 5.93797 2.82783 6.13565 3.02341C6.33333 3.21898 6.44588 3.48466 6.44883 3.76272V21.1611C6.44883 21.4411 6.33759 21.7097 6.13959 21.9077C5.9416 22.1057 5.67304 22.2169 5.39302 22.2169V22.1945ZM9.11082 19.5212H8.85248C8.5755 19.5212 8.30975 19.4112 8.11387 19.2153C7.91798 19.0194 7.80791 18.7538 7.80791 18.4767V6.45841C7.80645 6.32029 7.83239 6.18325 7.88417 6.05521C7.93595 5.92718 8.01267 5.8107 8.10982 5.71251C8.20698 5.61432 8.32267 5.53637 8.45015 5.48318C8.57764 5.42998 8.71433 5.40259 8.85248 5.4026H9.11082C9.38893 5.40556 9.65456 5.5181 9.85011 5.71578C10.0458 5.91346 10.1554 6.18032 10.1554 6.45841V18.4767C10.1554 18.7538 10.0453 19.0194 9.84944 19.2153C9.65355 19.4112 9.38791 19.5212 9.11082 19.5212ZM12.8286 16.7694H12.5927C12.3146 16.7694 12.0478 16.6598 11.8501 16.4641C11.6524 16.2686 11.5399 16.0029 11.5369 15.7248V9.25518C11.5277 9.11096 11.5482 8.9664 11.5971 8.83038C11.646 8.69448 11.7224 8.56991 11.8213 8.46467C11.9203 8.35931 12.0398 8.27552 12.1726 8.21824C12.3052 8.16107 12.4482 8.13164 12.5927 8.13198H12.8398C13.1199 8.13198 13.3884 8.24317 13.5864 8.44119C13.7845 8.63921 13.8957 8.90777 13.8957 9.18779V15.7024C13.8971 15.842 13.8709 15.9805 13.8185 16.1098C13.7662 16.2392 13.6887 16.357 13.5904 16.4562C13.4922 16.5554 13.3754 16.6342 13.2464 16.688C13.1176 16.7418 12.9795 16.7694 12.8398 16.7694H12.8286ZM16.5576 14.3545H16.3105C16.0305 14.3545 15.762 14.2433 15.5639 14.0453C15.3659 13.8473 15.2547 13.5787 15.2547 13.2987V11.6251C15.2577 11.347 15.3702 11.0814 15.5679 10.8858C15.7656 10.6902 16.0324 10.5806 16.3105 10.5806H16.5576C16.8357 10.5806 17.1026 10.6902 17.3003 10.8858C17.498 11.0814 17.6105 11.347 17.6135 11.6251V13.2987C17.6135 13.5768 17.5038 13.8437 17.3082 14.0414C17.1126 14.239 16.847 14.3516 16.5689 14.3545H16.5576Z" fill="#697077"/>
<path d="M33.6166 20.4697L36.1654 9.70312H37.5892L37.9144 11.4961L35.1986 22.5H33.6693L33.6166 20.4697ZM32.307 9.70312L34.4164 20.4697L34.2406 22.5H32.5355L29.6967 9.70312H32.307ZM40.1556 20.4258L42.2386 9.70312H44.849L42.0189 22.5H40.3138L40.1556 20.4258ZM38.389 9.70312L40.9554 20.5137L40.8851 22.5H39.3558L36.6224 11.4873L36.974 9.70312H38.389ZM51.098 11.8916L47.6176 22.5H44.8138L49.5687 9.70312H51.3529L51.098 11.8916ZM53.9896 22.5L50.5004 11.8916L50.2191 9.70312H52.0209L56.8021 22.5H53.9896ZM53.8314 17.7363V19.8018H47.0726V17.7363H53.8314ZM61.8822 19.8281L64.8969 9.70312H67.8324L63.3763 22.5H61.4427L61.8822 19.8281ZM59.1049 9.70312L62.1107 19.8281L62.5677 22.5H60.6166L56.1869 9.70312H59.1049ZM77.6146 20.4434V22.5H70.8031V20.4434H77.6146ZM71.6644 9.70312V22.5H69.0277V9.70312H71.6644ZM76.7269 14.915V16.9189H70.8031V14.915H76.7269ZM77.6058 9.70312V11.7686H70.8031V9.70312H77.6058ZM85.8148 19.1514C85.8148 18.9229 85.7797 18.7178 85.7094 18.5361C85.6449 18.3486 85.5219 18.1787 85.3402 18.0264C85.1586 17.8682 84.9037 17.7129 84.5756 17.5605C84.2474 17.4082 83.8226 17.25 83.3011 17.0859C82.7211 16.8984 82.1703 16.6875 81.6488 16.4531C81.1332 16.2188 80.6761 15.9463 80.2777 15.6357C79.8851 15.3193 79.5746 14.9531 79.3461 14.5371C79.1234 14.1211 79.0121 13.6377 79.0121 13.0869C79.0121 12.5537 79.1293 12.0703 79.3636 11.6367C79.598 11.1973 79.9261 10.8223 80.348 10.5117C80.7699 10.1953 81.2679 9.95215 81.8422 9.78223C82.4222 9.6123 83.058 9.52734 83.7494 9.52734C84.6927 9.52734 85.516 9.69727 86.2191 10.0371C86.9222 10.377 87.4672 10.8428 87.8539 11.4346C88.2465 12.0264 88.4427 12.7031 88.4427 13.4648H85.8236C85.8236 13.0898 85.7445 12.7617 85.5863 12.4805C85.434 12.1934 85.1996 11.9678 84.8832 11.8037C84.5726 11.6396 84.1801 11.5576 83.7054 11.5576C83.2484 11.5576 82.8676 11.6279 82.5629 11.7686C82.2582 11.9033 82.0297 12.0879 81.8773 12.3223C81.725 12.5508 81.6488 12.8086 81.6488 13.0957C81.6488 13.3125 81.7015 13.5088 81.807 13.6846C81.9183 13.8604 82.0824 14.0244 82.2992 14.1768C82.516 14.3291 82.7826 14.4727 83.099 14.6074C83.4154 14.7422 83.7816 14.874 84.1976 15.0029C84.8949 15.2139 85.5072 15.4512 86.0345 15.7148C86.5677 15.9785 87.0131 16.2744 87.3705 16.6025C87.7279 16.9307 87.9974 17.3027 88.1791 17.7188C88.3607 18.1348 88.4515 18.6064 88.4515 19.1338C88.4515 19.6904 88.3431 20.1885 88.1263 20.6279C87.9095 21.0674 87.5961 21.4395 87.1859 21.7441C86.7758 22.0488 86.2865 22.2803 85.7181 22.4385C85.1498 22.5967 84.514 22.6758 83.8109 22.6758C83.1781 22.6758 82.5541 22.5938 81.9388 22.4297C81.3236 22.2598 80.764 22.0049 80.2601 21.665C79.7621 21.3252 79.3636 20.8916 79.0648 20.3643C78.766 19.8369 78.6166 19.2129 78.6166 18.4922H81.2621C81.2621 18.8906 81.3236 19.2275 81.4467 19.5029C81.5697 19.7783 81.7426 20.001 81.9652 20.1709C82.1937 20.3408 82.4633 20.4639 82.7738 20.54C83.0902 20.6162 83.4359 20.6543 83.8109 20.6543C84.2679 20.6543 84.6429 20.5898 84.9359 20.4609C85.2347 20.332 85.4545 20.1533 85.5951 19.9248C85.7416 19.6963 85.8148 19.4385 85.8148 19.1514ZM91.1234 9.70312H92.767L96.9594 20.1357L101.143 9.70312H102.795L97.5922 22.5H96.309L91.1234 9.70312ZM90.5873 9.70312H92.0375L92.2748 17.5078V22.5H90.5873V9.70312ZM101.872 9.70312H103.323V22.5H101.635V17.5078L101.872 9.70312ZM111.198 10.8369L106.961 22.5H105.23L110.108 9.70312H111.224L111.198 10.8369ZM114.748 22.5L110.503 10.8369L110.477 9.70312H111.593L116.489 22.5H114.748ZM114.529 17.7627V19.1514H107.339V17.7627H114.529ZM118.203 9.70312H122.439C123.4 9.70312 124.211 9.84961 124.873 10.1426C125.541 10.4355 126.048 10.8691 126.394 11.4434C126.745 12.0117 126.921 12.7119 126.921 13.5439C126.921 14.1299 126.801 14.666 126.561 15.1523C126.327 15.6328 125.987 16.043 125.541 16.3828C125.102 16.7168 124.575 16.9658 123.959 17.1299L123.485 17.3145H119.503L119.486 15.9346H122.492C123.101 15.9346 123.608 15.8291 124.012 15.6182C124.416 15.4014 124.721 15.1113 124.926 14.748C125.131 14.3848 125.234 13.9834 125.234 13.5439C125.234 13.0518 125.137 12.6211 124.944 12.252C124.75 11.8828 124.446 11.5986 124.03 11.3994C123.62 11.1943 123.089 11.0918 122.439 11.0918H119.899V22.5H118.203V9.70312ZM125.682 22.5L122.571 16.6992L124.337 16.6904L127.493 22.3945V22.5H125.682ZM134.032 10.8369L129.795 22.5H128.064L132.942 9.70312H134.058L134.032 10.8369ZM137.582 22.5L133.337 10.8369L133.311 9.70312H134.427L139.323 22.5H137.582ZM137.363 17.7627V19.1514H130.173V17.7627H137.363ZM144.622 9.70312V22.5H142.953V9.70312H144.622ZM148.736 9.70312V11.0918H138.848V9.70312H148.736ZM158.993 15.2051V16.585H152.067V15.2051H158.993ZM152.33 9.70312V22.5H150.634V9.70312H152.33ZM160.469 9.70312V22.5H158.782V9.70312H160.469ZM173.336 15.6973V16.5059C173.336 17.4668 173.216 18.3281 172.976 19.0898C172.736 19.8516 172.39 20.499 171.939 21.0322C171.488 21.5654 170.946 21.9727 170.313 22.2539C169.686 22.5352 168.983 22.6758 168.203 22.6758C167.448 22.6758 166.753 22.5352 166.12 22.2539C165.494 21.9727 164.949 21.5654 164.486 21.0322C164.029 20.499 163.674 19.8516 163.422 19.0898C163.17 18.3281 163.044 17.4668 163.044 16.5059V15.6973C163.044 14.7363 163.167 13.8779 163.413 13.1221C163.665 12.3604 164.02 11.7129 164.477 11.1797C164.934 10.6406 165.476 10.2305 166.103 9.94922C166.736 9.66797 167.43 9.52734 168.186 9.52734C168.965 9.52734 169.668 9.66797 170.295 9.94922C170.928 10.2305 171.47 10.6406 171.921 11.1797C172.378 11.7129 172.727 12.3604 172.967 13.1221C173.213 13.8779 173.336 14.7363 173.336 15.6973ZM171.658 16.5059V15.6797C171.658 14.918 171.578 14.2441 171.42 13.6582C171.268 13.0723 171.042 12.5801 170.744 12.1816C170.445 11.7832 170.078 11.4814 169.645 11.2764C169.217 11.0713 168.731 10.9688 168.186 10.9688C167.659 10.9688 167.181 11.0713 166.753 11.2764C166.331 11.4814 165.968 11.7832 165.663 12.1816C165.365 12.5801 165.133 13.0723 164.969 13.6582C164.805 14.2441 164.723 14.918 164.723 15.6797V16.5059C164.723 17.2734 164.805 17.9531 164.969 18.5449C165.133 19.1309 165.368 19.626 165.672 20.0303C165.983 20.4287 166.349 20.7305 166.771 20.9355C167.199 21.1406 167.676 21.2432 168.203 21.2432C168.754 21.2432 169.244 21.1406 169.671 20.9355C170.099 20.7305 170.459 20.4287 170.752 20.0303C171.051 19.626 171.277 19.1309 171.429 18.5449C171.581 17.9531 171.658 17.2734 171.658 16.5059ZM185.72 9.70312V22.5H184.015L177.573 12.6299V22.5H175.876V9.70312H177.573L184.041 19.5996V9.70312H185.72Z" fill="#697077"/>
</svg>
