<svg width="134" height="32" viewBox="0 0 134 32" fill="none" xmlns="http://www.w3.org/2000/svg">
<path fill-rule="evenodd" clip-rule="evenodd" d="M16.0952 32C24.9318 32 32.0953 24.8366 32.0953 16C32.0953 7.16345 24.9318 0 16.0952 0C7.25865 0 0.0952148 7.16345 0.0952148 16C0.0952148 24.8366 7.25865 32 16.0952 32ZM21.0867 7.45348C21.3296 6.59044 20.4921 6.08011 19.7272 6.62504L9.04972 14.2317C8.22019 14.8226 8.35067 16 9.24572 16H12.0574V15.9782H17.5372L13.0722 17.5537L11.1038 24.5466C10.8608 25.4096 11.6983 25.9199 12.4632 25.375L23.1408 17.7684C23.9703 17.1774 23.8397 16 22.9448 16H18.6809L21.0867 7.45348Z" fill="#697077"/>
<path d="M53.9585 21.2578V24H41.8647V21.2578H53.9585ZM53.7827 8.89453L43.4233 24H40.9507V21.9844L51.3921 6.9375H53.7827V8.89453ZM52.5757 6.9375V9.69141H40.9624V6.9375H52.5757ZM55.189 17.7891V17.543C55.189 16.6133 55.3218 15.7578 55.5874 14.9766C55.853 14.1875 56.2397 13.5039 56.7476 12.9258C57.2554 12.3477 57.8804 11.8984 58.6226 11.5781C59.3647 11.25 60.2163 11.0859 61.1772 11.0859C62.1382 11.0859 62.9937 11.25 63.7437 11.5781C64.4937 11.8984 65.1226 12.3477 65.6304 12.9258C66.146 13.5039 66.5366 14.1875 66.8022 14.9766C67.0679 15.7578 67.2007 16.6133 67.2007 17.543V17.7891C67.2007 18.7109 67.0679 19.5664 66.8022 20.3555C66.5366 21.1367 66.146 21.8203 65.6304 22.4062C65.1226 22.9844 64.4976 23.4336 63.7554 23.7539C63.0132 24.0742 62.1616 24.2344 61.2007 24.2344C60.2397 24.2344 59.3843 24.0742 58.6343 23.7539C57.8921 23.4336 57.2632 22.9844 56.7476 22.4062C56.2397 21.8203 55.853 21.1367 55.5874 20.3555C55.3218 19.5664 55.189 18.7109 55.189 17.7891ZM58.564 17.543V17.7891C58.564 18.3203 58.6108 18.8164 58.7046 19.2773C58.7983 19.7383 58.9468 20.1445 59.1499 20.4961C59.3608 20.8398 59.6343 21.1094 59.9702 21.3047C60.3062 21.5 60.7163 21.5977 61.2007 21.5977C61.6694 21.5977 62.0718 21.5 62.4077 21.3047C62.7437 21.1094 63.0132 20.8398 63.2163 20.4961C63.4194 20.1445 63.5679 19.7383 63.6616 19.2773C63.7632 18.8164 63.814 18.3203 63.814 17.7891V17.543C63.814 17.0273 63.7632 16.543 63.6616 16.0898C63.5679 15.6289 63.4155 15.2227 63.2046 14.8711C63.0015 14.5117 62.7319 14.2305 62.396 14.0273C62.0601 13.8242 61.6538 13.7227 61.1772 13.7227C60.7007 13.7227 60.2944 13.8242 59.9585 14.0273C59.6304 14.2305 59.3608 14.5117 59.1499 14.8711C58.9468 15.2227 58.7983 15.6289 58.7046 16.0898C58.6108 16.543 58.564 17.0273 58.564 17.543ZM68.7358 17.7891V17.543C68.7358 16.6133 68.8687 15.7578 69.1343 14.9766C69.3999 14.1875 69.7866 13.5039 70.2944 12.9258C70.8022 12.3477 71.4272 11.8984 72.1694 11.5781C72.9116 11.25 73.7632 11.0859 74.7241 11.0859C75.6851 11.0859 76.5405 11.25 77.2905 11.5781C78.0405 11.8984 78.6694 12.3477 79.1772 12.9258C79.6929 13.5039 80.0835 14.1875 80.3491 14.9766C80.6147 15.7578 80.7476 16.6133 80.7476 17.543V17.7891C80.7476 18.7109 80.6147 19.5664 80.3491 20.3555C80.0835 21.1367 79.6929 21.8203 79.1772 22.4062C78.6694 22.9844 78.0444 23.4336 77.3022 23.7539C76.5601 24.0742 75.7085 24.2344 74.7476 24.2344C73.7866 24.2344 72.9312 24.0742 72.1812 23.7539C71.439 23.4336 70.8101 22.9844 70.2944 22.4062C69.7866 21.8203 69.3999 21.1367 69.1343 20.3555C68.8687 19.5664 68.7358 18.7109 68.7358 17.7891ZM72.1108 17.543V17.7891C72.1108 18.3203 72.1577 18.8164 72.2515 19.2773C72.3452 19.7383 72.4937 20.1445 72.6968 20.4961C72.9077 20.8398 73.1812 21.1094 73.5171 21.3047C73.853 21.5 74.2632 21.5977 74.7476 21.5977C75.2163 21.5977 75.6187 21.5 75.9546 21.3047C76.2905 21.1094 76.5601 20.8398 76.7632 20.4961C76.9663 20.1445 77.1147 19.7383 77.2085 19.2773C77.3101 18.8164 77.3608 18.3203 77.3608 17.7891V17.543C77.3608 17.0273 77.3101 16.543 77.2085 16.0898C77.1147 15.6289 76.9624 15.2227 76.7515 14.8711C76.5483 14.5117 76.2788 14.2305 75.9429 14.0273C75.6069 13.8242 75.2007 13.7227 74.7241 13.7227C74.2476 13.7227 73.8413 13.8242 73.5054 14.0273C73.1772 14.2305 72.9077 14.5117 72.6968 14.8711C72.4937 15.2227 72.3452 15.6289 72.2515 16.0898C72.1577 16.543 72.1108 17.0273 72.1108 17.543ZM86.1968 13.9453V24H82.8101V11.3203H85.9858L86.1968 13.9453ZM85.728 17.2148H84.7905C84.7905 16.332 84.896 15.5195 85.1069 14.7773C85.3257 14.0273 85.6421 13.3789 86.0562 12.832C86.478 12.2773 86.9976 11.8477 87.6147 11.543C88.2319 11.2383 88.9468 11.0859 89.7593 11.0859C90.3218 11.0859 90.8374 11.1719 91.3062 11.3438C91.7749 11.5078 92.1772 11.7695 92.5132 12.1289C92.8569 12.4805 93.1226 12.9414 93.3101 13.5117C93.4976 14.0742 93.5913 14.75 93.5913 15.5391V24H90.2163V15.9141C90.2163 15.3359 90.1382 14.8906 89.9819 14.5781C89.8257 14.2656 89.603 14.0469 89.314 13.9219C89.0327 13.7969 88.6929 13.7344 88.2944 13.7344C87.8569 13.7344 87.4741 13.8242 87.146 14.0039C86.8257 14.1836 86.5601 14.4336 86.3491 14.7539C86.1382 15.0664 85.9819 15.4336 85.8804 15.8555C85.7788 16.2773 85.728 16.7305 85.728 17.2148ZM93.2749 16.8281L92.0679 16.9805C92.0679 16.1523 92.1694 15.3828 92.3726 14.6719C92.5835 13.9609 92.8921 13.3359 93.2983 12.7969C93.7124 12.2578 94.2241 11.8398 94.8335 11.543C95.4429 11.2383 96.146 11.0859 96.9429 11.0859C97.5522 11.0859 98.1069 11.1758 98.6069 11.3555C99.1069 11.5273 99.5327 11.8047 99.8843 12.1875C100.244 12.5625 100.517 13.0547 100.705 13.6641C100.9 14.2734 100.998 15.0195 100.998 15.9023V24H97.6108V15.9023C97.6108 15.3164 97.5327 14.8711 97.3765 14.5664C97.228 14.2539 97.0093 14.0391 96.7202 13.9219C96.439 13.7969 96.103 13.7344 95.7124 13.7344C95.3062 13.7344 94.9507 13.8164 94.646 13.9805C94.3413 14.1367 94.0874 14.3555 93.8843 14.6367C93.6812 14.918 93.5288 15.2461 93.4272 15.6211C93.3257 15.9883 93.2749 16.3906 93.2749 16.8281ZM109.447 24.2344C108.462 24.2344 107.58 24.0781 106.798 23.7656C106.017 23.4453 105.353 23.0039 104.806 22.4414C104.267 21.8789 103.853 21.2266 103.564 20.4844C103.275 19.7344 103.13 18.9375 103.13 18.0938V17.625C103.13 16.6641 103.267 15.7852 103.541 14.9883C103.814 14.1914 104.205 13.5 104.712 12.9141C105.228 12.3281 105.853 11.8789 106.587 11.5664C107.322 11.2461 108.15 11.0859 109.072 11.0859C109.97 11.0859 110.767 11.2344 111.462 11.5312C112.158 11.8281 112.74 12.25 113.208 12.7969C113.685 13.3438 114.044 14 114.287 14.7656C114.529 15.5234 114.65 16.3672 114.65 17.2969V18.7031H104.572V16.4531H111.333V16.1953C111.333 15.7266 111.248 15.3086 111.076 14.9414C110.912 14.5664 110.662 14.2695 110.326 14.0508C109.99 13.832 109.56 13.7227 109.037 13.7227C108.591 13.7227 108.208 13.8203 107.888 14.0156C107.568 14.2109 107.306 14.4844 107.103 14.8359C106.908 15.1875 106.759 15.6016 106.658 16.0781C106.564 16.5469 106.517 17.0625 106.517 17.625V18.0938C106.517 18.6016 106.587 19.0703 106.728 19.5C106.876 19.9297 107.083 20.3008 107.349 20.6133C107.623 20.9258 107.951 21.168 108.333 21.3398C108.724 21.5117 109.166 21.5977 109.658 21.5977C110.267 21.5977 110.833 21.4805 111.357 21.2461C111.888 21.0039 112.345 20.6406 112.728 20.1562L114.369 21.9375C114.103 22.3203 113.74 22.6875 113.279 23.0391C112.826 23.3906 112.279 23.6797 111.638 23.9062C110.998 24.125 110.267 24.2344 109.447 24.2344ZM119.947 14.0859V24H116.572V11.3203H119.748L119.947 14.0859ZM123.767 11.2383L123.708 14.3672C123.544 14.3438 123.345 14.3242 123.111 14.3086C122.884 14.2852 122.677 14.2734 122.49 14.2734C122.013 14.2734 121.599 14.3359 121.248 14.4609C120.904 14.5781 120.615 14.7539 120.38 14.9883C120.154 15.2227 119.982 15.5078 119.865 15.8438C119.755 16.1797 119.693 16.5625 119.677 16.9922L118.998 16.7812C118.998 15.9609 119.08 15.207 119.244 14.5195C119.408 13.8242 119.646 13.2188 119.958 12.7031C120.279 12.1875 120.669 11.7891 121.13 11.5078C121.591 11.2266 122.119 11.0859 122.712 11.0859C122.9 11.0859 123.091 11.1016 123.287 11.1328C123.482 11.1562 123.642 11.1914 123.767 11.2383ZM128.736 14.0859V24H125.361V11.3203H128.537L128.736 14.0859ZM132.556 11.2383L132.498 14.3672C132.333 14.3438 132.134 14.3242 131.9 14.3086C131.673 14.2852 131.466 14.2734 131.279 14.2734C130.802 14.2734 130.388 14.3359 130.037 14.4609C129.693 14.5781 129.404 14.7539 129.169 14.9883C128.943 15.2227 128.771 15.5078 128.654 15.8438C128.544 16.1797 128.482 16.5625 128.466 16.9922L127.787 16.7812C127.787 15.9609 127.869 15.207 128.033 14.5195C128.197 13.8242 128.435 13.2188 128.748 12.7031C129.068 12.1875 129.458 11.7891 129.919 11.5078C130.38 11.2266 130.908 11.0859 131.501 11.0859C131.689 11.0859 131.88 11.1016 132.076 11.1328C132.271 11.1562 132.431 11.1914 132.556 11.2383Z" fill="#697077"/>
</svg>
