<svg width="133" height="64" viewBox="0 0 133 64" fill="none" xmlns="http://www.w3.org/2000/svg">
<path fill-rule="evenodd" clip-rule="evenodd" d="M16 48C24.8366 48 32 40.8366 32 32C32 23.1635 24.8366 16 16 16C7.16343 16 0 23.1635 0 32C0 40.8366 7.16343 48 16 48ZM20.9915 23.4535C21.2344 22.5904 20.3969 22.0801 19.632 22.625L8.9545 30.2317C8.12498 30.8226 8.25546 32 9.1505 32H11.9622V31.9782H17.442L12.977 33.5537L11.0086 40.5466C10.7656 41.4096 11.6031 41.9199 12.368 41.375L23.0455 33.7684C23.8751 33.1774 23.7445 32 22.8496 32H18.5857L20.9915 23.4535Z" fill="#697077"/>
<path d="M53.8633 37.2578V40H41.7695V37.2578H53.8633ZM53.6875 24.8945L43.3281 40H40.8555V37.9844L51.2969 22.9375H53.6875V24.8945ZM52.4805 22.9375V25.6914H40.8672V22.9375H52.4805ZM55.0938 33.7891V33.543C55.0938 32.6133 55.2266 31.7578 55.4922 30.9766C55.7578 30.1875 56.1445 29.5039 56.6523 28.9258C57.1602 28.3477 57.7852 27.8984 58.5273 27.5781C59.2695 27.25 60.1211 27.0859 61.082 27.0859C62.043 27.0859 62.8984 27.25 63.6484 27.5781C64.3984 27.8984 65.0273 28.3477 65.5352 28.9258C66.0508 29.5039 66.4414 30.1875 66.707 30.9766C66.9727 31.7578 67.1055 32.6133 67.1055 33.543V33.7891C67.1055 34.7109 66.9727 35.5664 66.707 36.3555C66.4414 37.1367 66.0508 37.8203 65.5352 38.4062C65.0273 38.9844 64.4023 39.4336 63.6602 39.7539C62.918 40.0742 62.0664 40.2344 61.1055 40.2344C60.1445 40.2344 59.2891 40.0742 58.5391 39.7539C57.7969 39.4336 57.168 38.9844 56.6523 38.4062C56.1445 37.8203 55.7578 37.1367 55.4922 36.3555C55.2266 35.5664 55.0938 34.7109 55.0938 33.7891ZM58.4688 33.543V33.7891C58.4688 34.3203 58.5156 34.8164 58.6094 35.2773C58.7031 35.7383 58.8516 36.1445 59.0547 36.4961C59.2656 36.8398 59.5391 37.1094 59.875 37.3047C60.2109 37.5 60.6211 37.5977 61.1055 37.5977C61.5742 37.5977 61.9766 37.5 62.3125 37.3047C62.6484 37.1094 62.918 36.8398 63.1211 36.4961C63.3242 36.1445 63.4727 35.7383 63.5664 35.2773C63.668 34.8164 63.7188 34.3203 63.7188 33.7891V33.543C63.7188 33.0273 63.668 32.543 63.5664 32.0898C63.4727 31.6289 63.3203 31.2227 63.1094 30.8711C62.9062 30.5117 62.6367 30.2305 62.3008 30.0273C61.9648 29.8242 61.5586 29.7227 61.082 29.7227C60.6055 29.7227 60.1992 29.8242 59.8633 30.0273C59.5352 30.2305 59.2656 30.5117 59.0547 30.8711C58.8516 31.2227 58.7031 31.6289 58.6094 32.0898C58.5156 32.543 58.4688 33.0273 58.4688 33.543ZM68.6406 33.7891V33.543C68.6406 32.6133 68.7734 31.7578 69.0391 30.9766C69.3047 30.1875 69.6914 29.5039 70.1992 28.9258C70.707 28.3477 71.332 27.8984 72.0742 27.5781C72.8164 27.25 73.668 27.0859 74.6289 27.0859C75.5898 27.0859 76.4453 27.25 77.1953 27.5781C77.9453 27.8984 78.5742 28.3477 79.082 28.9258C79.5977 29.5039 79.9883 30.1875 80.2539 30.9766C80.5195 31.7578 80.6523 32.6133 80.6523 33.543V33.7891C80.6523 34.7109 80.5195 35.5664 80.2539 36.3555C79.9883 37.1367 79.5977 37.8203 79.082 38.4062C78.5742 38.9844 77.9492 39.4336 77.207 39.7539C76.4648 40.0742 75.6133 40.2344 74.6523 40.2344C73.6914 40.2344 72.8359 40.0742 72.0859 39.7539C71.3438 39.4336 70.7148 38.9844 70.1992 38.4062C69.6914 37.8203 69.3047 37.1367 69.0391 36.3555C68.7734 35.5664 68.6406 34.7109 68.6406 33.7891ZM72.0156 33.543V33.7891C72.0156 34.3203 72.0625 34.8164 72.1562 35.2773C72.25 35.7383 72.3984 36.1445 72.6016 36.4961C72.8125 36.8398 73.0859 37.1094 73.4219 37.3047C73.7578 37.5 74.168 37.5977 74.6523 37.5977C75.1211 37.5977 75.5234 37.5 75.8594 37.3047C76.1953 37.1094 76.4648 36.8398 76.668 36.4961C76.8711 36.1445 77.0195 35.7383 77.1133 35.2773C77.2148 34.8164 77.2656 34.3203 77.2656 33.7891V33.543C77.2656 33.0273 77.2148 32.543 77.1133 32.0898C77.0195 31.6289 76.8672 31.2227 76.6562 30.8711C76.4531 30.5117 76.1836 30.2305 75.8477 30.0273C75.5117 29.8242 75.1055 29.7227 74.6289 29.7227C74.1523 29.7227 73.7461 29.8242 73.4102 30.0273C73.082 30.2305 72.8125 30.5117 72.6016 30.8711C72.3984 31.2227 72.25 31.6289 72.1562 32.0898C72.0625 32.543 72.0156 33.0273 72.0156 33.543ZM86.1016 29.9453V40H82.7148V27.3203H85.8906L86.1016 29.9453ZM85.6328 33.2148H84.6953C84.6953 32.332 84.8008 31.5195 85.0117 30.7773C85.2305 30.0273 85.5469 29.3789 85.9609 28.832C86.3828 28.2773 86.9023 27.8477 87.5195 27.543C88.1367 27.2383 88.8516 27.0859 89.6641 27.0859C90.2266 27.0859 90.7422 27.1719 91.2109 27.3438C91.6797 27.5078 92.082 27.7695 92.418 28.1289C92.7617 28.4805 93.0273 28.9414 93.2148 29.5117C93.4023 30.0742 93.4961 30.75 93.4961 31.5391V40H90.1211V31.9141C90.1211 31.3359 90.043 30.8906 89.8867 30.5781C89.7305 30.2656 89.5078 30.0469 89.2188 29.9219C88.9375 29.7969 88.5977 29.7344 88.1992 29.7344C87.7617 29.7344 87.3789 29.8242 87.0508 30.0039C86.7305 30.1836 86.4648 30.4336 86.2539 30.7539C86.043 31.0664 85.8867 31.4336 85.7852 31.8555C85.6836 32.2773 85.6328 32.7305 85.6328 33.2148ZM93.1797 32.8281L91.9727 32.9805C91.9727 32.1523 92.0742 31.3828 92.2773 30.6719C92.4883 29.9609 92.7969 29.3359 93.2031 28.7969C93.6172 28.2578 94.1289 27.8398 94.7383 27.543C95.3477 27.2383 96.0508 27.0859 96.8477 27.0859C97.457 27.0859 98.0117 27.1758 98.5117 27.3555C99.0117 27.5273 99.4375 27.8047 99.7891 28.1875C100.148 28.5625 100.422 29.0547 100.609 29.6641C100.805 30.2734 100.902 31.0195 100.902 31.9023V40H97.5156V31.9023C97.5156 31.3164 97.4375 30.8711 97.2812 30.5664C97.1328 30.2539 96.9141 30.0391 96.625 29.9219C96.3438 29.7969 96.0078 29.7344 95.6172 29.7344C95.2109 29.7344 94.8555 29.8164 94.5508 29.9805C94.2461 30.1367 93.9922 30.3555 93.7891 30.6367C93.5859 30.918 93.4336 31.2461 93.332 31.6211C93.2305 31.9883 93.1797 32.3906 93.1797 32.8281ZM109.352 40.2344C108.367 40.2344 107.484 40.0781 106.703 39.7656C105.922 39.4453 105.258 39.0039 104.711 38.4414C104.172 37.8789 103.758 37.2266 103.469 36.4844C103.18 35.7344 103.035 34.9375 103.035 34.0938V33.625C103.035 32.6641 103.172 31.7852 103.445 30.9883C103.719 30.1914 104.109 29.5 104.617 28.9141C105.133 28.3281 105.758 27.8789 106.492 27.5664C107.227 27.2461 108.055 27.0859 108.977 27.0859C109.875 27.0859 110.672 27.2344 111.367 27.5312C112.062 27.8281 112.645 28.25 113.113 28.7969C113.59 29.3438 113.949 30 114.191 30.7656C114.434 31.5234 114.555 32.3672 114.555 33.2969V34.7031H104.477V32.4531H111.238V32.1953C111.238 31.7266 111.152 31.3086 110.98 30.9414C110.816 30.5664 110.566 30.2695 110.23 30.0508C109.895 29.832 109.465 29.7227 108.941 29.7227C108.496 29.7227 108.113 29.8203 107.793 30.0156C107.473 30.2109 107.211 30.4844 107.008 30.8359C106.812 31.1875 106.664 31.6016 106.562 32.0781C106.469 32.5469 106.422 33.0625 106.422 33.625V34.0938C106.422 34.6016 106.492 35.0703 106.633 35.5C106.781 35.9297 106.988 36.3008 107.254 36.6133C107.527 36.9258 107.855 37.168 108.238 37.3398C108.629 37.5117 109.07 37.5977 109.562 37.5977C110.172 37.5977 110.738 37.4805 111.262 37.2461C111.793 37.0039 112.25 36.6406 112.633 36.1562L114.273 37.9375C114.008 38.3203 113.645 38.6875 113.184 39.0391C112.73 39.3906 112.184 39.6797 111.543 39.9062C110.902 40.125 110.172 40.2344 109.352 40.2344ZM119.852 30.0859V40H116.477V27.3203H119.652L119.852 30.0859ZM123.672 27.2383L123.613 30.3672C123.449 30.3438 123.25 30.3242 123.016 30.3086C122.789 30.2852 122.582 30.2734 122.395 30.2734C121.918 30.2734 121.504 30.3359 121.152 30.4609C120.809 30.5781 120.52 30.7539 120.285 30.9883C120.059 31.2227 119.887 31.5078 119.77 31.8438C119.66 32.1797 119.598 32.5625 119.582 32.9922L118.902 32.7812C118.902 31.9609 118.984 31.207 119.148 30.5195C119.312 29.8242 119.551 29.2188 119.863 28.7031C120.184 28.1875 120.574 27.7891 121.035 27.5078C121.496 27.2266 122.023 27.0859 122.617 27.0859C122.805 27.0859 122.996 27.1016 123.191 27.1328C123.387 27.1562 123.547 27.1914 123.672 27.2383ZM128.641 30.0859V40H125.266V27.3203H128.441L128.641 30.0859ZM132.461 27.2383L132.402 30.3672C132.238 30.3438 132.039 30.3242 131.805 30.3086C131.578 30.2852 131.371 30.2734 131.184 30.2734C130.707 30.2734 130.293 30.3359 129.941 30.4609C129.598 30.5781 129.309 30.7539 129.074 30.9883C128.848 31.2227 128.676 31.5078 128.559 31.8438C128.449 32.1797 128.387 32.5625 128.371 32.9922L127.691 32.7812C127.691 31.9609 127.773 31.207 127.938 30.5195C128.102 29.8242 128.34 29.2188 128.652 28.7031C128.973 28.1875 129.363 27.7891 129.824 27.5078C130.285 27.2266 130.812 27.0859 131.406 27.0859C131.594 27.0859 131.785 27.1016 131.98 27.1328C132.176 27.1562 132.336 27.1914 132.461 27.2383Z" fill="#697077"/>
</svg>
